<!-- Generated by IcoMoon.io -->
<svg version="1.1" xmlns="http://www.w3.org/2000/svg" width="50" height="50" viewBox="0 0 32 32">
<title>Reaction</title>
<path fill="#ffa500" d="M27 9.333v-3h-3v-2h3v-3h2v3h3v2h-3v3zM20.867 14.233q0.767 0 1.283-0.517t0.517-1.283-0.517-1.283-1.283-0.517-1.283 0.517-0.517 1.283 0.517 1.283 1.283 0.517zM11.133 14.233q0.767 0 1.283-0.517t0.517-1.283-0.517-1.283-1.283-0.517-1.283 0.517-0.517 1.283 0.517 1.283 1.283 0.517zM16 23.3q2.2 0 4.050-1.183t2.683-3.217h-13.467q0.867 2.033 2.7 3.217t4.033 1.183zM16 29.333q-2.733 0-5.167-1.050t-4.25-2.867-2.867-4.25-1.050-5.167q0-2.767 1.050-5.2t2.867-4.233 4.25-2.85 5.167-1.050q1.533 0 2.95 0.333t2.717 0.933v5.067h2.667v2.667h4.267q0.367 1.033 0.55 2.1t0.183 2.233q0 2.733-1.050 5.167t-2.85 4.25-4.233 2.867-5.2 1.050z"></path>
</svg>
