<!-- Generated by IcoMoon.io -->
<svg version="1.1" xmlns="http://www.w3.org/2000/svg" width="50" height="50" viewBox="0 0 32 32">
<title>students</title>
<path fill="#ffa500" d="M1.267 26.667v-3.133q0-1.167 0.6-2.117t1.667-1.417q2.433-1.067 4.383-1.533t4.017-0.467 4 0.467 4.367 1.533q1.067 0.467 1.683 1.417t0.617 2.117v3.133zM24.6 26.667v-3.133q0-2.1-1.067-3.45t-2.8-2.183q2.3 0.267 4.333 0.783t3.3 1.183q1.1 0.633 1.733 1.567t0.633 2.1v3.133zM11.933 15.967q-2.2 0-3.6-1.4t-1.4-3.6 1.4-3.6 3.6-1.4 3.6 1.4 1.4 3.6-1.4 3.6-3.6 1.4zM23.933 10.967q0 2.2-1.4 3.6t-3.6 1.4q-0.367 0-0.817-0.050t-0.817-0.183q0.8-0.833 1.217-2.050t0.417-2.717-0.417-2.65-1.217-2.117q0.367-0.1 0.817-0.167t0.817-0.067q2.2 0 3.6 1.4t1.4 3.6z"></path>
</svg>
