<svg width="500" height="500" xmlns="http://www.w3.org/2000/svg">

 <g>
  <title>Layer 1</title>
  <g id="freepik--Book--inject-56">
   <polygon id="svg_1" fill="#455a64" points="228.85 389.14 388.26 367.81 455.24 415.28 297.99 446.69 228.85 389.14"/>
   <polygon id="svg_2" fill="#263238" points="228.85 389.14 297.99 446.69 455.24 415.28 455.24 417.91 297.66 449.15 228.85 391.4 228.85 389.14"/>
   <path id="svg_3" fill="#fff" d="m238.5,389.64l63.29,52.85l147.36,-29.33l-64.8,-45.56s-43,0.28 -45.08,0.64s-21.69,5.76 -21.69,5.76s-26.77,1.28 -28.62,1.65c-1.26,0.26 -28.24,5 -42.76,9.09l-7.7,4.9z"/>
   <polygon id="svg_4" fill="#dbdbdb" points="317.58 374.03 324.87 380.18 332.1 386.39 346.49 398.92 360.75 411.59 367.83 417.97 374.86 424.42 367.57 418.27 360.34 412.06 345.95 399.53 331.69 386.86 324.61 380.48 317.58 374.03"/>
   <path id="svg_5" fill="#dbdbdb" d="m373.86,415.13q6.81,-2.33 13.76,-4.19c1.16,-0.31 2.31,-0.64 3.48,-0.91c0.59,-0.14 1.17,-0.27 1.8,-0.37l1.78,-0.24l7.12,-1c4.74,-0.66 9.5,-1.24 14.25,-1.87s9.5,-1.18 14.26,-1.74c-4.73,0.77 -9.46,1.53 -14.2,2.24s-9.47,1.45 -14.21,2.11l-7.11,1l-1.78,0.25c-0.55,0.1 -1.14,0.25 -1.71,0.39l-3.48,0.86c-4.63,1.25 -9.27,2.43 -13.96,3.47z"/>
   <path id="svg_6" fill="#dbdbdb" d="m369.67,410.91q6.7,-1.89 13.5,-3.38c2.27,-0.5 4.51,-1 6.85,-1.36l6.88,-1c4.59,-0.67 9.18,-1.27 13.78,-1.9s9.19,-1.21 13.79,-1.77c-4.57,0.78 -9.14,1.55 -13.72,2.27s-9.16,1.47 -13.75,2.14l-6.88,1c-1.14,0.16 -2.24,0.41 -3.38,0.64l-3.41,0.68q-6.79,1.5 -13.66,2.68z"/>
   <path id="svg_7" fill="#dbdbdb" d="m365.59,407.1c4.44,-1.21 8.91,-2.33 13.41,-3.31c2.25,-0.49 4.48,-1 6.78,-1.4l6.87,-0.79c4.57,-0.53 9.16,-1 13.73,-1.49s9.17,-0.92 13.75,-1.35c-4.56,0.65 -9.12,1.28 -13.68,1.86s-9.13,1.19 -13.7,1.73c-2.28,0.29 -4.58,0.54 -6.84,0.85l-6.75,1.34q-6.75,1.46 -13.57,2.56z"/>
   <path id="svg_8" fill="#dbdbdb" d="m362.05,404.23c4.33,-1.68 8.74,-3.08 13.21,-4.34c0.56,-0.16 1.12,-0.3 1.7,-0.42a13.6,13.6 0 0 1 1.76,-0.26l3.46,-0.31l6.92,-0.6c9.22,-0.74 18.45,-1.45 27.69,-2c-9.2,1 -18.42,1.88 -27.63,2.77l-6.91,0.64l-3.45,0.33a19.52,19.52 0 0 0 -3.33,0.69c-4.47,1.14 -8.9,2.46 -13.42,3.5z"/>
   <path id="svg_9" fill="#dbdbdb" d="m358.21,400.78c4.33,-1.68 8.74,-3.08 13.2,-4.34c0.57,-0.16 1.13,-0.3 1.7,-0.42a13.74,13.74 0 0 1 1.77,-0.26l3.46,-0.31l6.92,-0.6c9.22,-0.74 18.45,-1.45 27.69,-2c-9.2,1 -18.42,1.88 -27.63,2.76l-6.91,0.65l-3.45,0.33a19.52,19.52 0 0 0 -3.33,0.69c-4.46,1.14 -8.9,2.45 -13.42,3.5z"/>
   <path id="svg_10" fill="#dbdbdb" d="m354.37,397.32c4.32,-1.67 8.73,-3.07 13.2,-4.33c0.56,-0.16 1.13,-0.3 1.7,-0.42a12.19,12.19 0 0 1 1.77,-0.26l3.46,-0.31l6.91,-0.6c9.23,-0.74 18.46,-1.45 27.7,-2c-9.21,1 -18.42,1.88 -27.63,2.76l-6.91,0.65l-3.45,0.33a18.6,18.6 0 0 0 -3.33,0.69c-4.47,1.17 -8.9,2.45 -13.42,3.49z"/>
   <path id="svg_11" fill="#dbdbdb" d="m391.82,387.06c4.94,-0.37 8.2,-0.44 13.14,-0.76c-9.2,1 -12,1.11 -21.25,2a58.14,58.14 0 0 1 8.11,-1.24z"/>
   <path id="svg_12" fill="#ebebeb" d="m246.2,384.77l60.15,47.92s33.75,-7.48 40.07,-8.48s28.73,0.23 28.73,0.23s27.56,-9.22 39.32,-11s29,-2.57 29,-2.57l5.63,2.25l-70.9,14.11l-76.46,15.22l-63.24,-52.81l7.7,-4.87z"/>
  </g>
  <g id="freepik--Plant--inject-56">
   <path id="svg_13" fill="#263238" d="m397.0394,248.85265c16.95,16.59 19.8,42.27 16.22,64.75c-0.09,0.51 -0.88,0.37 -0.88,-0.11c0,-5.12 0.16,-10.19 0.14,-15.25l-0.26,-0.68c-4.42,-3.21 -8.49,-6.85 -11,-11.83c-2.83,-5.56 -4,-11.84 -6.11,-17.66c-0.2,-0.56 0.39,-0.39 0.78,-0.1c10.31,7.6 13.6,15.78 16.56,26.72a91.22,91.22 0 0 0 -1.8,-17c-2.23,-10.38 -6.63,-20.66 -14.09,-28.36c-0.29,-0.33 0.11,-0.76 0.44,-0.48z"/>
   <path id="svg_14" fill="#ff7f00" d="m393.8594,250.78265c-2.92,0.1 -4.75,4.76 -7,6.12a2.19,2.19 0 0 1 -3.22,-0.5c-2.25,-3.15 0.84,-7 3.74,-9.19c-2.07,0.85 -3.8,2.35 -6,2.78a2.1,2.1 0 0 1 -2.72,-1.64c-1,-4.28 4.38,-6.19 8.07,-6.28c-1.79,-1.24 -6.91,-4.62 -4.19,-6.28s8.77,3.16 10.73,4.75c2.89,2.34 6.32,5.84 6.45,9.5c0.11,4.27 -3.62,1.64 -5.86,0.74z"/>
   <path id="svg_15" opacity="0.1" d="m393.0047,251.21c-2.92,0.1 -4.75,4.76 -7,6.12a2.19,2.19 0 0 1 -3.22,-0.5c-2.25,-3.15 0.84,-7 3.74,-9.19c-2.07,0.85 -3.8,2.35 -6,2.78a2.1,2.1 0 0 1 -2.72,-1.64c-1,-4.28 4.38,-6.19 8.07,-6.28c-1.79,-1.24 -6.91,-4.62 -4.19,-6.28s8.77,3.16 10.73,4.75c2.89,2.34 6.32,5.84 6.45,9.5c0.11,4.27 -3.62,1.64 -5.86,0.74z"/>
   <path id="svg_16" fill="#ffaa56" d="m394.7094,251.50265c-3.73,-1.69 -10.89,0.75 -11.5,-0.67c-1.23,-2.87 4.49,-4.84 7.58,-5.22c-2.85,-0.77 -8.3,-2 -8.13,-4.74c0.2,-3.35 8.36,-0.47 12.49,2.69c5.2,4 5.17,7.84 4.31,8.61c-1.19,1.06 -4.14,-0.39 -4.75,-0.67z"/>
   <path id="svg_17" fill="#263238" d="m435.6394,247.21265c-17.56,15.93 -21.38,41.48 -18.67,64.09c0.07,0.51 0.87,0.4 0.88,-0.08c0.2,-5.11 0.24,-10.19 0.45,-15.24l0.28,-0.67c4.55,-3.05 8.75,-6.53 11.46,-11.41c3,-5.45 4.39,-11.68 6.77,-17.41c0.23,-0.55 -0.37,-0.41 -0.77,-0.14c-10.59,7.22 -14.19,15.22 -17.56,26.07a90.23,90.23 0 0 1 2.44,-16.94c2.62,-10.29 7.41,-20.4 15.16,-27.81c0.28,-0.28 -0.13,-0.75 -0.44,-0.46z"/>
   <path id="svg_18" fill="#ff7f00" d="m438.7094,249.26265c2.91,0.21 4.56,4.94 6.78,6.38a2.19,2.19 0 0 0 3.24,-0.38c2.37,-3.06 -0.57,-7.05 -3.39,-9.33c2,0.94 3.71,2.5 5.93,3a2.11,2.11 0 0 0 2.79,-1.53c1.15,-4.24 -4.15,-6.35 -7.83,-6.58c1.83,-1.17 7.08,-4.36 4.42,-6.12s-8.88,2.83 -10.9,4.34c-3,2.23 -6.54,5.59 -6.81,9.24c-0.29,4.29 3.54,1.79 5.77,0.98z"/>
   <path id="svg_19" opacity="0.1" d="m438.7094,249.26265c2.91,0.21 4.56,4.94 6.78,6.38a2.19,2.19 0 0 0 3.24,-0.38c2.37,-3.06 -0.57,-7.05 -3.39,-9.33c2,0.94 3.71,2.5 5.93,3a2.11,2.11 0 0 0 2.79,-1.53c1.15,-4.24 -4.15,-6.35 -7.83,-6.58c1.83,-1.17 7.08,-4.36 4.42,-6.12s-8.88,2.83 -10.9,4.34c-3,2.23 -6.54,5.59 -6.81,9.24c-0.29,4.29 3.54,1.79 5.77,0.98z"/>
   <path id="svg_20" fill="#ffaa56" d="m437.8794,249.95265c3.79,-1.56 10.86,1.15 11.52,-0.23c1.34,-2.83 -4.3,-5 -7.37,-5.51c2.87,-0.66 8.36,-1.68 8.3,-4.43c-0.08,-3.36 -8.34,-0.79 -12.58,2.22c-5.35,3.79 -5.47,7.63 -4.64,8.44c1.14,1.13 4.15,-0.24 4.77,-0.49z"/>
   <path id="svg_21" fill="#263238" d="m417.7094,289.30265a173.25,173.25 0 0 1 -5.46,25.2a0.63,0.63 0 0 1 -1.23,-0.25c1.16,-7.77 3.26,-15.39 4.42,-23.15a116.86,116.86 0 0 0 1.35,-23.78c-0.74,-13.08 -4.3,-27 -12.84,-37.24c-0.18,-0.24 0.21,-0.59 0.41,-0.36c17.06,19.93 14.35,44.37 14.35,46.56c2.42,-8.25 4.91,-17.71 14.07,-26.11c0.39,-0.36 0.7,-0.19 0.63,0.42c-1.63,15.31 -5.89,23.3 -14.76,31.48q-0.39,3.65 -0.94,7.23z"/>
   <path id="svg_22" fill="#ff7f00" d="m403.7694,232.37265c-3.08,-1.36 -7.32,2.55 -10.36,2.82c-1.61,0.15 -2.8,-0.49 -3.09,-2.15c-0.75,-4.39 4.41,-6.86 8.51,-7.65c-2.58,-0.16 -5.13,0.53 -7.66,-0.15c-1.54,-0.43 -2.38,-1.48 -2,-3.07c1.13,-4.94 7.67,-4.21 11.54,-2.45c-1.23,-2.19 -4.85,-8.28 -1.19,-8.63s7.51,7.7 8.75,10.34c1.81,3.87 3.62,9.23 1.91,13.09c-1.98,4.52 -4.53,-0.09 -6.41,-2.15z"/>
   <path id="svg_23" opacity="0.1" d="m404.6241,233.6547c-3.08,-1.36 -7.32,2.55 -10.36,2.82c-1.61,0.15 -2.8,-0.49 -3.09,-2.15c-0.75,-4.39 4.41,-6.86 8.51,-7.65c-2.58,-0.16 -5.13,0.53 -7.66,-0.15c-1.54,-0.43 -2.38,-1.48 -2,-3.07c1.13,-4.94 7.67,-4.21 11.54,-2.45c-1.23,-2.19 -4.85,-8.28 -1.19,-8.63s7.51,7.7 8.75,10.34c1.81,3.87 3.62,9.23 1.91,13.09c-1.98,4.52 -4.53,-0.09 -6.41,-2.15z"/>
   <path id="svg_24" fill="#ffaa56" d="m404.2794,233.57265c-3,-3.63 -11.67,-4.71 -11.59,-6.48c0.16,-3.6 7.09,-2.76 10.49,-1.6c-2.56,-2.23 -7.6,-6.25 -6.05,-9c1.9,-3.37 8.91,3.73 11.6,9.09c3.39,6.76 1.42,10.73 0.14,11.1c-1.76,0.45 -4.09,-2.54 -4.59,-3.11z"/>
   <path id="svg_25" fill="#ff7f00" d="m428.9294,293.90265l7.54,57.61l-45.89,0c0.95,-5.1 9.49,-57.67 9.49,-57.67l28.86,0.06z"/>
   <path id="svg_93" d="m342.58091,238.46644" opacity="NaN"/>
  </g>
  <g id="freepik--Desk--inject-56">
   <polygon id="svg_26" fill="#263238" points="45.75 351.7 96.82 351.46 147.88 351.37 250 351.2 352.12 351.37 403.19 351.46 454.25 351.7 403.19 351.95 352.12 352.04 250 352.2 147.88 352.04 96.82 351.95 45.75 351.7"/>
  </g>
  <g id="freepik--Character--inject-56">
   <path id="svg_27" fill="#263238" d="m126,163.89c-10.65,21.17 -27,44.77 -27,69.34c0,19.25 10.23,36.77 22.74,50.77c27.56,30.63 74.8,54.2 114.2,30.88c15.72,-9.32 30.11,-37 18.82,-54.53c-5.81,-9 -15,-14.59 -23.13,-21.25c-10.74,-8.75 -16.48,-19.55 -17,-33.46c-1.1,-27.1 8.38,-42.33 17,-67.24c1.58,-4.63 2.51,-9.47 -0.2,-15.19a33.3,33.3 0 0 0 -10.68,-14.27a33.22,33.22 0 0 0 -13.48,-8.94c-11.11,-3.65 -25.69,1.57 -36.63,4s-17.79,7.19 -23.11,17.33c-7.38,14.05 -14.35,28.36 -21.53,42.56z"/>
   <path id="svg_28" fill="#263238" d="m118.77,172.88c11,-18.77 22.4,-37.3 33.67,-55.91c0.07,-0.12 0.26,0 0.19,0.09c-8.83,15.58 -17.43,31.27 -26.46,46.75c-8.85,15.16 -19,30.15 -26.48,46c-16.82,35.67 13.6,66.91 45,78.87c1.43,0.54 0.4,2.76 -1,2.16c-27.21,-11.37 -55.2,-35 -50.21,-67.84c2.68,-17.95 16.28,-34.78 25.29,-50.12z"/>
   <path id="svg_29" fill="#263238" d="m230.73,135.71a0.33,0.33 0 0 1 0.59,0.28c-8,20.19 -19.17,43 -15.63,65.26a54.94,54.94 0 0 0 14.43,29.22c6.06,6.36 13.82,10.16 20.9,15.17c27.7,19.59 9.6,60.73 -19.65,66.83c-0.61,0.13 -0.86,-0.93 -0.24,-1.08c21.08,-5.41 36.3,-25.62 31,-47.82c-4.21,-17.81 -25.62,-22.37 -36.28,-35.74c-22.03,-27.72 -8.62,-63.66 4.88,-92.12z"/>
   <path id="svg_30" fill=" rgb(255, 196, 192)" d="m184.54,215.38c15.91,48 43.07,107.07 58.11,118.19c12.89,9.53 61.35,22.12 82.35,20.81c6.17,-0.38 2.29,-57 -4.28,-57.81c-10.52,-1.27 -49.64,-10.7 -50.42,-10.89c-1.67,-0.42 -44.92,-60.59 -63.18,-77.42c-21.34,-19.68 -29.7,-14.34 -22.58,7.12z"/>
   <path id="svg_31" fill=" rgb(255, 196, 192)" d="m323.77,311.72s34.91,19.28 36.29,20.81s-0.74,3.58 -2.34,5.23a20.08,20.08 0 0 1 -3.67,1.95c-5.93,2.82 -16.28,8 -11.44,14.77c6.36,8.86 29.64,-2.82 33,-5.22a12.75,12.75 0 0 0 3.08,-4.49c2.81,-5.95 5,-16.1 0.48,-22.66c-6.2,-9 -16.49,-15.11 -25,-21.06l-30.4,10.67z"/>
   <path id="svg_32" fill="#263238" d="m323.77,311.72s34.91,19.28 36.29,20.81s-0.74,3.58 -2.34,5.23a20.08,20.08 0 0 1 -3.67,1.95c8.76,1.84 18.44,3.82 24.63,5.06c2.81,-5.95 5,-16.1 0.48,-22.66c-6.2,-9 -16.49,-15.11 -25,-21.06l-30.39,10.67z"/>
   <path id="svg_33" fill=" rgb(255, 196, 192)" d="m282.87,348.62c2.31,0.39 21.38,6.79 35.75,11.62c9.81,-6.4 30.84,-16.86 36.4,-19.66c5.65,-4.16 20.11,-9.85 20.41,-9.23c0.58,1.15 2.61,5.24 5.47,10c3.79,6.28 9,13.76 14.16,17.25c2.82,1.89 5.59,2.61 8.13,1.35c4.57,-2.25 0.05,-12.45 -4.25,-25c-5.84,-17.1 -13.94,-37.8 -23,-41.32c-13.4,-5.22 -34.47,-0.2 -40.91,0.57s-33.41,-1 -33.41,-1c-26.07,23.38 -21.82,54.88 -18.75,55.42z"/>
   <path id="svg_34" fill="#ff9bbc" d="m347,285.68s-4.78,-12.51 4,-15.08s11.5,10.55 11.5,10.55l-15.5,4.53z"/>
   <rect transform="rotate(-16.28 368.859 329.651)" id="svg_35" fill="#ff7f00" height="94.19" width="16.16" y="282.5559" x="360.77869"/>
   <rect id="svg_36" transform="rotate(-16.28 -78.41 115.14)" opacity="0.1" height="79.27" width="1.05" y="407.1" x="284.25"/>
   <rect id="svg_37" transform="rotate(-16.28 -77.98 116.06)" opacity="0.1" height="79.27" width="1.05" y="407" x="288.15"/>
   <rect id="svg_38" transform="rotate(-16.28 -77.56 117)" opacity="0.1" height="79.27" width="1.05" y="406.93" x="292.04"/>
   <rect id="svg_39" transform="rotate(-16.28 -77.13 117.92)" opacity="0.1" height="79.27" width="1.05" y="406.83" x="295.95"/>
   <rect id="svg_40" transform="rotate(-16.28 -65.45 110.93)" fill="#37474f" height="3.74" width="18.87" y="393.28" x="280.11"/>
   <rect id="svg_41" transform="rotate(-16.28 -66.52 111.42)" fill="#37474f" height="3.74" width="18.87" y="397.74" x="280.2"/>
   <path id="svg_42" fill="#ebebeb" d="m388.78,371.05l-2.58,12.86l-0.83,4.25l-3,-3.12l-9.1,-9.46l0.91,-2.71s2.15,1.78 2.2,1.81l0.91,-2.72l2.19,1.81l0.88,-2.7s2.18,1.77 2.23,1.79l0.88,-2.7s2.18,1.77 2.22,1.79l0.88,-2.7l2.21,1.8z"/>
   <polygon id="svg_43" fill="#37474f" points="386.2 383.91 385.37 388.16 382.35 385.04 386.2 383.91"/>
   <path id="svg_44" fill=" rgb(255, 196, 192)" d="m318.62,360.24c4.9,1.67 9.25,3.2 12.17,4.32c11.52,4.43 19.35,3.16 27.34,0.58s31.55,6.26 26.73,-6.66s-32.31,-11.66 -32.05,-15.33c0.05,-0.7 0.88,-1.6 2.21,-2.57c-5.56,2.8 -26.59,13.26 -36.4,19.66z"/>
   <path id="svg_45" fill="#263238" d="m358.82,338.21c0.3,-0.11 0.35,0.1 0,0.3c-1,0.61 -5.29,3.41 -4.78,4.48c0.9,1.85 13.26,3.89 18.3,5.65c0.27,0.09 0.17,0.48 -0.09,0.37c-1.32,-0.55 -6.74,-1.47 -8,-1.74c-2.54,-0.5 -10.4,-1.49 -11.53,-3.82c-0.72,-1.56 4.91,-4.78 6.1,-5.24z"/>
   <path id="svg_46" fill="#ff7f00" d="m256.28,251.58159l-56.14,13.1s-16.14,-39.43 -20.14,-61.57c-2.21,-12.42 5.11,-13.3 14.68,-7.13c33.53,21.6 61.6,55.6 61.6,55.6z"/>
   <path transform="rotate(-1.66281 212.965 227.91)" stroke="null" id="svg_47" fill="#fff" d="m242.38,239.17a3,3 0 0 1 -1.14,0.76a2.44,2.44 0 0 1 -2.36,-0.41a3.21,3.21 0 0 0 -3.58,-0.16a3.11,3.11 0 0 0 -1.17,1.29c-0.24,0.49 -0.51,0.94 -0.71,1.44c0.44,-0.32 0.8,-0.69 1.21,-1a3.22,3.22 0 0 1 1.13,-0.81a2.43,2.43 0 0 1 2.35,0.32a3.14,3.14 0 0 0 4.77,-1c0.22,-0.47 0.51,-0.93 0.71,-1.43c-0.44,0.29 -0.82,0.65 -1.21,1zm-51.08,-32.4a3.16,3.16 0 0 1 -1.14,0.76a2.47,2.47 0 0 1 -2.36,-0.41a3.19,3.19 0 0 0 -3.58,-0.18a3.12,3.12 0 0 0 -1.17,1.32c-0.24,0.47 -0.51,0.93 -0.71,1.43c0.44,-0.33 0.8,-0.71 1.21,-1.06a3,3 0 0 1 1.13,-0.79a2.41,2.41 0 0 1 2.33,0.32a3.25,3.25 0 0 0 3.57,0.27a3.09,3.09 0 0 0 1.21,-1.28c0.23,-0.47 0.5,-0.92 0.71,-1.42a14.91,14.91 0 0 0 -1.2,1.04zm13.46,34.85c-0.17,-0.5 -0.3,-1 -0.51,-1.51c-0.07,0.54 -0.07,1.06 -0.12,1.59a3.16,3.16 0 0 1 -0.22,1.36a2.44,2.44 0 0 1 -1.91,1.44a3.22,3.22 0 0 0 -2.72,2.32a3,3 0 0 0 0.05,1.76c0.17,0.5 0.3,1 0.5,1.51c0.08,-0.53 0.08,-1.05 0.13,-1.59a2.79,2.79 0 0 1 0.27,-1.35a2.48,2.48 0 0 1 1.94,-1.37a3.15,3.15 0 0 0 2.65,-2.42a3,3 0 0 0 -0.06,-1.74zm14.24,-21.86a3,3 0 0 1 -1.34,-0.27a2.43,2.43 0 0 1 -1.37,-2a3.23,3.23 0 0 0 -2.42,-2.65a3.15,3.15 0 0 0 -1.74,0.11c-0.5,0.17 -1,0.3 -1.53,0.5c0.55,0.08 1.07,0.08 1.61,0.11a3.34,3.34 0 0 1 1.36,0.24a2.47,2.47 0 0 1 1.44,1.88a3.19,3.19 0 0 0 2.32,2.72a3,3 0 0 0 1.75,-0.05c0.51,-0.17 1,-0.3 1.52,-0.52c-0.53,-0.04 -1.05,-0.02 -1.6,-0.07z"/>
   <path id="svg_48" fill="#263238" d="m200,255.8c8.47,-2.72 31.66,-9.46 47.31,-11.86c0.09,0 0.19,0.33 0.1,0.36c-12.71,4 -38.59,10 -47.26,12c-0.15,0.06 -0.26,-0.44 -0.15,-0.5z"/>
   <path id="svg_49" opacity="0.1" d="m248.77,253.77l-48.63,11.33s-16.14,-39.43 -20.14,-61.57c-1.42,-7.94 1.07,-11.17 5.56,-10.84l63.21,61.08z"/>
   <path id="svg_50" fill="#ff7f00" d="m232.13,351.25l-143.78,0s15.94,-98.59 62.26,-151.33c12.5,-14.23 32.29,-11.74 43,-2.11a99.21,99.21 0 0 1 10.43,11.85c9.74,12.51 25.65,42.56 27.14,50.69c2.45,13.43 -9.44,27.95 -9.44,27.95l10.39,62.95z"/>
   <path id="svg_51" fill="#263238" d="m232.65,259.62c-1.33,-5.54 -4.41,-10.6 -7.12,-15.56c-2.86,-5.23 -5.86,-10.37 -8.94,-15.48l-0.33,-0.54c-0.51,-1.63 -1.25,-3.23 -1.87,-4.81c-0.79,-2 -1.65,-4 -2.43,-6a0.06,0.06 0 0 0 -0.12,0c0.65,2.11 1.29,4.23 2.06,6.3c0.2,0.53 0.39,1.07 0.59,1.62c-1,-1.7 -2.08,-3.4 -3.16,-5.08c-1.83,-2.86 -3.76,-5.65 -5.59,-8.51a0.07,0.07 0 0 0 -0.11,0.07c2.94,5 5.76,10.1 8.69,15.12s5.79,10.07 8.53,15.19q2,3.81 4,7.69a67.53,67.53 0 0 1 3.3,7.49a24.23,24.23 0 0 1 0.1,15.4c-1.77,5.66 -4.92,10.81 -7.92,15.89c-0.12,0.2 0.2,0.45 0.35,0.25c6.24,-8.29 12.58,-18.17 9.97,-29.04z"/>
   <path id="svg_52" fill="#fff" d="m183.17,340.52a2.64,2.64 0 0 1 -1.13,0.74a2.44,2.44 0 0 1 -2.36,-0.4a3.13,3.13 0 0 0 -4.74,1.14c-0.23,0.48 -0.5,0.93 -0.71,1.44c0.43,-0.33 0.81,-0.71 1.22,-1.06a2.92,2.92 0 0 1 1.12,-0.79a2.4,2.4 0 0 1 2.34,0.3a3.21,3.21 0 0 0 3.57,0.29a3.06,3.06 0 0 0 1.2,-1.28c0.24,-0.48 0.51,-0.94 0.71,-1.43c-0.39,0.32 -0.81,0.7 -1.22,1.05zm21.54,-46.1a2.66,2.66 0 0 1 -1.14,0.76a2.48,2.48 0 0 1 -2.35,-0.41a3.22,3.22 0 0 0 -3.59,-0.16a3.16,3.16 0 0 0 -1.15,1.3c-0.24,0.49 -0.51,0.93 -0.71,1.43c0.42,-0.31 0.8,-0.69 1.2,-1a3.45,3.45 0 0 1 1.13,-0.81a2.4,2.4 0 0 1 2.34,0.32a3.23,3.23 0 0 0 3.57,0.28a3,3 0 0 0 1.2,-1.27c0.24,-0.48 0.51,-0.94 0.72,-1.44c-0.45,0.29 -0.81,0.65 -1.22,1zm-67.5,16.25a2.85,2.85 0 0 1 -1.14,0.76a2.42,2.42 0 0 1 -2.35,-0.41a3.17,3.17 0 0 0 -4.76,1.14c-0.23,0.49 -0.5,0.93 -0.71,1.43a15.2,15.2 0 0 0 1.22,-1a3.64,3.64 0 0 1 1.12,-0.81a2.47,2.47 0 0 1 2.36,0.32a3.13,3.13 0 0 0 4.77,-1c0.22,-0.48 0.5,-0.94 0.71,-1.44c-0.43,0.34 -0.82,0.66 -1.22,1.01zm21.41,-59.67a3,3 0 0 1 -1.14,0.76a2.43,2.43 0 0 1 -2.35,-0.41a3.22,3.22 0 0 0 -3.59,-0.16a3.18,3.18 0 0 0 -1.17,1.29c-0.23,0.49 -0.5,0.94 -0.71,1.44a15.2,15.2 0 0 0 1.22,-1a3.38,3.38 0 0 1 1.12,-0.81a2.44,2.44 0 0 1 2.36,0.32a3.14,3.14 0 0 0 4.77,-1c0.22,-0.47 0.5,-0.93 0.71,-1.43c-0.44,0.27 -0.84,0.63 -1.22,1zm-9.32,-42.23a3,3 0 0 1 -1.14,0.75a2.39,2.39 0 0 1 -2.35,-0.41a3.21,3.21 0 0 0 -2.17,-0.6c-0.34,0.44 -0.67,0.89 -1,1.34l0,0a2.43,2.43 0 0 1 2.35,0.32a3.22,3.22 0 0 0 3.56,0.28a3.15,3.15 0 0 0 1.21,-1.28c0.23,-0.47 0.51,-0.93 0.72,-1.44a15.91,15.91 0 0 0 -1.18,1.02l0,0.02zm42,-2a3.16,3.16 0 0 1 -1.14,0.76a2.47,2.47 0 0 1 -2.36,-0.41a3.19,3.19 0 0 0 -3.58,-0.18a3.12,3.12 0 0 0 -1.17,1.32c-0.24,0.47 -0.51,0.93 -0.71,1.43c0.44,-0.33 0.8,-0.71 1.21,-1.06a3,3 0 0 1 1.13,-0.79a2.41,2.41 0 0 1 2.33,0.32a3.25,3.25 0 0 0 3.57,0.27a3.09,3.09 0 0 0 1.21,-1.28c0.23,-0.47 0.5,-0.92 0.71,-1.42a14.91,14.91 0 0 0 -1.2,1.04zm-43.19,130.76c-0.17,-0.51 -0.3,-1 -0.5,-1.52c-0.08,0.54 -0.08,1.06 -0.13,1.6a3,3 0 0 1 -0.22,1.36a2.47,2.47 0 0 1 -1.88,1.44a3.19,3.19 0 0 0 -2.72,2.32a3,3 0 0 0 0.05,1.75c0.17,0.51 0.3,1 0.51,1.52c0.08,-0.54 0.08,-1.06 0.12,-1.6a3,3 0 0 1 0.27,-1.34a2.49,2.49 0 0 1 2,-1.37a3.24,3.24 0 0 0 2.65,-2.42a3.15,3.15 0 0 0 -0.15,-1.74zm-15.65,-105.89c-0.18,-0.51 -0.3,-1 -0.52,-1.52c-0.08,0.54 -0.07,1.06 -0.12,1.6a2.79,2.79 0 0 1 -0.23,1.36a2.44,2.44 0 0 1 -1.88,1.43a3.25,3.25 0 0 0 -2.72,2.33a3,3 0 0 0 0.06,1.75c0.18,0.51 0.3,1 0.51,1.52c0.08,-0.54 0.08,-1.06 0.13,-1.6a2.75,2.75 0 0 1 0.26,-1.34a2.46,2.46 0 0 1 2,-1.38a3.19,3.19 0 0 0 2.65,-2.41a3.35,3.35 0 0 0 -0.14,-1.74zm72.3,10c-0.17,-0.5 -0.3,-1 -0.51,-1.51c-0.07,0.54 -0.07,1.06 -0.12,1.59a3.16,3.16 0 0 1 -0.22,1.36a2.44,2.44 0 0 1 -1.91,1.42a3.22,3.22 0 0 0 -2.72,2.32a3,3 0 0 0 0.05,1.76c0.17,0.5 0.3,1 0.5,1.51c0.08,-0.53 0.08,-1.05 0.13,-1.59a2.79,2.79 0 0 1 0.27,-1.35a2.48,2.48 0 0 1 1.94,-1.37a3.15,3.15 0 0 0 2.65,-2.42a3,3 0 0 0 -0.06,-1.74l0,0.02zm-93.14,49c-0.18,-0.51 -0.3,-1 -0.51,-1.52c-0.08,0.54 -0.08,1.06 -0.13,1.6a2.91,2.91 0 0 1 -0.22,1.36a2.46,2.46 0 0 1 -1.88,1.44a3.4,3.4 0 0 0 -2,1.07c-0.24,0.87 -0.47,1.74 -0.71,2.61l0,0a1.93,1.93 0 0 0 0.09,0.38c0.18,0.51 0.3,1 0.51,1.52c0.08,-0.54 0.08,-1.06 0.13,-1.6a2.62,2.62 0 0 1 0.26,-1.32a2.44,2.44 0 0 1 2,-1.39a3.18,3.18 0 0 0 2.65,-2.42a3.07,3.07 0 0 0 -0.19,-1.75l0,0.02zm119.31,53.36a3.17,3.17 0 0 0 -1.89,2.1a3.2,3.2 0 0 0 0.05,1.77c0.17,0.5 0.3,1 0.52,1.51c0.08,-0.53 0.08,-1.07 0.11,-1.59a3,3 0 0 1 0.27,-1.35a2.49,2.49 0 0 1 1.15,-1.14l-0.21,-1.3zm-69.37,-63c-0.17,-0.51 -0.3,-1 -0.52,-1.52c-0.08,0.54 -0.06,1.08 -0.11,1.6a2.92,2.92 0 0 1 -0.24,1.37a2.43,2.43 0 0 1 -1.88,1.44a3.23,3.23 0 0 0 -2.72,2.31a3,3 0 0 0 0.07,1.77c0.17,0.5 0.3,1 0.5,1.51c0.08,-0.53 0.08,-1.07 0.13,-1.59a2.74,2.74 0 0 1 0.27,-1.35a2.41,2.41 0 0 1 1.94,-1.37a3.17,3.17 0 0 0 2.65,-2.42a3.4,3.4 0 0 0 -0.09,-1.75zm-1.16,-88.46a1.58,1.58 0 0 0 0.09,0.31c0.17,0.51 0.3,1 0.5,1.52c0.08,-0.54 0.08,-1.06 0.11,-1.6a2.48,2.48 0 0 1 0.05,-0.56l-0.75,0.33zm26.07,77.82a2.94,2.94 0 0 1 -1.34,-0.27a2.45,2.45 0 0 1 -1.37,-2a3.14,3.14 0 0 0 -4.18,-2.54c-0.5,0.17 -1,0.3 -1.51,0.5c0.53,0.08 1.07,0.08 1.59,0.11a3.28,3.28 0 0 1 1.36,0.24a2.37,2.37 0 0 1 1.44,1.88a3.25,3.25 0 0 0 2.32,2.72a3.2,3.2 0 0 0 1.77,-0.05c0.51,-0.17 1,-0.3 1.52,-0.52c-0.54,-0.04 -1.07,-0.02 -1.6,-0.07zm38.95,0a2.92,2.92 0 0 1 -1.34,-0.27a2.46,2.46 0 0 1 -1.38,-2a3.13,3.13 0 0 0 -4.17,-2.54c-0.5,0.17 -1,0.3 -1.51,0.5c0.53,0.08 1.07,0.08 1.59,0.11a3.28,3.28 0 0 1 1.36,0.24a2.37,2.37 0 0 1 1.44,1.88a3.14,3.14 0 0 0 4.09,2.72c0.51,-0.17 1,-0.3 1.52,-0.52c-0.54,-0.09 -1.08,-0.07 -1.6,-0.12zm-111.31,62.43a2.94,2.94 0 0 1 -1.34,-0.27a2.42,2.42 0 0 1 -1.37,-2a3.14,3.14 0 0 0 -4.18,-2.54c-0.5,0.17 -1,0.3 -1.51,0.5c0.53,0.08 1.07,0.08 1.59,0.11a3.28,3.28 0 0 1 1.36,0.24a2.45,2.45 0 0 1 1.46,1.88a3.11,3.11 0 0 0 4.07,2.67c0.51,-0.17 1,-0.3 1.52,-0.52c-0.54,-0.04 -1.08,-0.04 -1.6,-0.07zm58,-18.22a3,3 0 0 1 -1.34,-0.27a2.45,2.45 0 0 1 -1.37,-2a3.23,3.23 0 0 0 -2.42,-2.66a3.33,3.33 0 0 0 -1.76,0.12a12.7,12.7 0 0 0 -1.51,0.5c0.54,0.08 1.07,0.08 1.59,0.11a3.07,3.07 0 0 1 1.38,0.24a2.46,2.46 0 0 1 1.44,1.88a3.21,3.21 0 0 0 2.32,2.72a3.14,3.14 0 0 0 1.75,-0.05c0.51,-0.17 1,-0.3 1.52,-0.52c-0.52,-0.04 -1.06,-0.04 -1.58,-0.07l-0.02,0zm-39.91,-37.68a2.75,2.75 0 0 1 -1.34,-0.27a2.43,2.43 0 0 1 -1.37,-1.94a3.21,3.21 0 0 0 -2.42,-2.66a3.06,3.06 0 0 0 -1.74,0.1c-0.5,0.17 -1,0.3 -1.52,0.5c0.54,0.1 1.06,0.08 1.6,0.13a2.79,2.79 0 0 1 1.36,0.24a2.46,2.46 0 0 1 1.44,1.86a3.23,3.23 0 0 0 2.32,2.74a3.13,3.13 0 0 0 1.75,-0.07c0.51,-0.17 1,-0.3 1.52,-0.5c-0.54,-0.08 -1.06,-0.08 -1.6,-0.13zm77,51a2.78,2.78 0 0 1 -1.33,-0.28a2.43,2.43 0 0 1 -1.39,-1.94a3.16,3.16 0 0 0 -2.42,-2.66a3.22,3.22 0 0 0 -1.73,0.1c-0.51,0.17 -1,0.3 -1.52,0.52c0.54,0.08 1.06,0.08 1.59,0.11a3,3 0 0 1 1.36,0.24a2.38,2.38 0 0 1 1.44,1.88a3.26,3.26 0 0 0 2.32,2.71a3,3 0 0 0 1.76,-0.06c0.5,-0.16 1,-0.3 1.51,-0.51c-0.5,0 -1.02,0 -1.56,-0.08l-0.03,-0.03zm-31.59,-94.08a3,3 0 0 1 -1.35,-0.27a2.44,2.44 0 0 1 -1.37,-2a3.23,3.23 0 0 0 -2.39,-2.54a3.16,3.16 0 0 0 -1.74,0.11c-0.5,0.17 -1,0.3 -1.53,0.5c0.55,0.08 1.08,0.08 1.61,0.11a3.31,3.31 0 0 1 1.36,0.24a2.45,2.45 0 0 1 1.44,1.88a3.19,3.19 0 0 0 2.32,2.72a3,3 0 0 0 1.76,-0.05c0.5,-0.17 1,-0.3 1.51,-0.52c-0.54,-0.12 -1.06,-0.1 -1.59,-0.15l-0.03,-0.03z"/>
   <path id="svg_53" fill="#263238" d="m178.44,284.72a124.74,124.74 0 0 1 18.54,-0.31c3.07,0.22 6.1,0.58 9.15,1c1.52,0.21 3,0.37 4.56,0.53a20.2,20.2 0 0 0 4.79,0a0.11,0.11 0 0 1 0,0.22a35.44,35.44 0 0 1 -4.48,0.73a34,34 0 0 1 -4.4,0c-3.12,-0.2 -6.22,-0.53 -9.33,-0.76c-6.28,-0.45 -12.56,-0.9 -18.85,-0.89c-0.25,0 -0.27,-0.5 0.02,-0.52z"/>
   <path id="svg_54" fill="#263238" d="m164.43,292.82a136,136 0 0 1 14.91,-3.46c2.52,-0.43 5,-0.7 7.59,-0.92c1.21,-0.1 2.43,-0.18 3.65,-0.24s2.69,0 4,-0.06c0.14,0 0.18,0.21 0,0.22c-1.26,0.13 -2.5,0.46 -3.75,0.65l-3.77,0.59c-2.52,0.39 -5,0.81 -7.55,1.18c-5,0.74 -10,1.53 -15.07,2.45c-0.21,0.05 -0.26,-0.34 -0.01,-0.41z"/>
   <path id="svg_55" fill=" rgb(255, 196, 192)" d="m144.24,202.72c-42.81,38 -95.24,120.28 -87.02,138.28c9.19,20 67.2,-34.13 65.65,-37.09c-1.31,-2.52 22.62,-52.82 40,-89.61s-8.05,-20.97 -18.63,-11.58z"/>
   <path id="svg_56" fill="#ff7f00" d="m91.88,248.19l55.69,14.88s17.44,-38.88 22.09,-60.89c2.61,-12.34 -4.68,-13.46 -14.44,-7.6c-34.22,20.5 -63.34,53.61 -63.34,53.61z"/>
   <path id="svg_57" fill="#fff" d="m102.36,247.19a2.92,2.92 0 0 1 -1.34,-0.27a2.46,2.46 0 0 1 -1.38,-2a3.23,3.23 0 0 0 -2.32,-2.63l-0.78,0.81a2,2 0 0 1 0.39,0.13a2.41,2.41 0 0 1 1.43,1.88a3.19,3.19 0 0 0 2.33,2.71a3,3 0 0 0 1.75,0c0.51,-0.18 1,-0.3 1.52,-0.52c-0.54,-0.08 -1.06,-0.07 -1.6,-0.11zm58,-55.12a2.77,2.77 0 0 0 0.16,0.78c0.17,0.51 0.3,1 0.5,1.52c0.08,-0.54 0.08,-1.06 0.11,-1.6a2.77,2.77 0 0 1 0.15,-1l-0.92,0.3zm-27.87,39.57c-0.18,-0.51 -0.3,-1 -0.52,-1.52c-0.08,0.54 -0.07,1.06 -0.12,1.6a2.79,2.79 0 0 1 -0.23,1.36a2.44,2.44 0 0 1 -1.88,1.43a3.25,3.25 0 0 0 -2.72,2.33a3,3 0 0 0 0.06,1.75c0.18,0.51 0.3,1 0.51,1.52c0.08,-0.54 0.08,-1.06 0.13,-1.6a2.75,2.75 0 0 1 0.26,-1.34a2.46,2.46 0 0 1 2,-1.38a3.19,3.19 0 0 0 2.65,-2.41a3.35,3.35 0 0 0 -0.17,-1.74l0.03,0zm16.84,-22.89a3,3 0 0 1 -1.14,0.75a2.39,2.39 0 0 1 -2.35,-0.41a3.26,3.26 0 0 0 -3.59,-0.16a3.19,3.19 0 0 0 -1.17,1.3c-0.24,0.49 -0.5,0.93 -0.71,1.44c0.44,-0.32 0.81,-0.7 1.22,-1a3.15,3.15 0 0 1 1.12,-0.81a2.43,2.43 0 0 1 2.35,0.32a3.22,3.22 0 0 0 3.56,0.28a3.15,3.15 0 0 0 1.21,-1.28c0.23,-0.47 0.51,-0.93 0.72,-1.44a15.91,15.91 0 0 0 -1.25,1.01l0.03,0zm2.24,42.42a3.18,3.18 0 0 0 -1.17,1.29c-0.23,0.49 -0.5,0.94 -0.71,1.44a15.2,15.2 0 0 0 1.22,-1a3.38,3.38 0 0 1 1.12,-0.81a2,2 0 0 1 0.35,-0.1q0.27,-0.6 0.51,-1.23a3.1,3.1 0 0 0 -1.35,0.41l0.03,0z"/>
   <path id="svg_58" fill="#263238" d="m148.27,253.23c-8.38,-3 -31.34,-10.47 -46.89,-13.38c-0.1,0 -0.21,0.33 -0.12,0.36c12.58,4.37 38.25,11.28 46.85,13.54c0.16,0.04 0.32,-0.46 0.16,-0.52z"/>
   <path id="svg_59" fill="#263238" d="m140.78,261.26c2.34,0.31 4.65,0.73 6.95,1.19l-0.75,0.36l1.42,-3.64l1.47,-3.62c1,-2.4 2,-4.79 3.09,-7.17s2.13,-4.74 3.22,-7.1s2.22,-4.7 3.29,-7.09a49.4,49.4 0 0 1 -2,7.6c-0.83,2.48 -1.75,4.93 -2.73,7.35s-2,4.81 -3.11,7.18l-1.69,3.53c-0.59,1.16 -1.89,3.67 -1.89,3.67s-5.05,-1.36 -7.27,-2.26z"/>
   <path id="svg_60" fill="#263238" d="m159.47,241.17a31.07,31.07 0 0 1 -2.39,4.58a32.55,32.55 0 0 1 -3,4.19a35.64,35.64 0 0 1 5.42,-8.77l-0.03,0z"/>
   <path id="svg_61" fill=" rgb(255, 196, 192)" d="m57.22,341c8.17,13.51 32.58,17.6 93.08,33.67c8.37,2.22 40,-52.64 31.14,-55.47c-11.1,-3.57 -55,-15 -58.29,-15.45c-27.96,-3.68 -71.48,28.05 -65.93,37.25z"/>
   <path id="svg_62" fill=" rgb(255, 196, 192)" d="m153.44,311.44s25.88,-2.42 39.87,0.52c18.74,3.94 33.29,15.04 39.11,20.04c12.14,10.49 34.26,44.25 25.65,52.31c-7.8,7.3 -28.66,-28.34 -28.66,-28.34s27.27,32.83 16.27,39.9s-32.87,-35.7 -32.87,-35.7s27.26,34.37 14.76,39.86c-9.44,4.15 -31.43,-33.46 -31.43,-33.46s23.23,29.7 13.7,34.38c-10.53,5.18 -33,-28.26 -33,-28.26c-26.23,7.83 -41.92,0.83 -52.49,-5.47c-2.56,-1.5 29.09,-55.78 29.09,-55.78z"/>
   <path id="svg_63" fill="#263238" d="m220.71,344c3.34,3.74 6.75,7.5 9.75,11.53s5.86,8.15 8.47,12.44c6.4,10.51 8.76,18.1 8.57,17.65c-4.67,-10.71 -15.18,-25.28 -18.18,-29.31s-5.78,-8.19 -8.77,-12.21c-0.08,-0.1 0.08,-0.1 0.16,-0.1z"/>
   <path id="svg_64" fill="#263238" d="m206,354.6c4.06,5 8.27,9.74 12.11,14.88s7,10.31 10.47,15.67c0.27,0.42 0,0.42 -0.33,0c-3.67,-5.22 -7.47,-9.77 -11.2,-14.95s-7.27,-10.51 -11.18,-15.53c-0.08,-0.06 0.04,-0.15 0.13,-0.07z"/>
   <path id="svg_65" fill="#263238" d="m191.7,361.39c6.6,7.27 11.84,15.74 16.79,24.17c0.25,0.42 -0.15,0.39 -0.43,0c-5.43,-8.14 -9.63,-14.56 -16.61,-23.91c-0.11,-0.18 0.11,-0.41 0.25,-0.26z"/>
   <path id="svg_66" fill="#263238" d="m95.48,308.35c4.3,-2.25 16.36,-7.36 27.59,-4.73a0.1,0.1 0 0 1 0,0.2c-9.37,-0.83 -23.15,2.87 -27.5,4.7c-0.13,0.05 -0.2,-0.12 -0.09,-0.17z"/>
   <path id="svg_67" fill="#fff" d="m174.19,187.59c-14.29,0 -13.38,16.13 -9.57,25.16c3.28,7.79 14.35,17.82 19.85,17.23s3.08,-13.8 3.08,-13.8s8,10.38 11.5,9.22s1.54,-12.67 -4.4,-22.35s-12.54,-15.47 -20.46,-15.46z"/>
   <path id="svg_68" fill=" rgb(255, 196, 192)" d="m166.27,195c0.29,2.43 9.89,19.09 20.78,19.8c3.55,0.22 5.64,-19.1 5.64,-19.1l0.48,-1.39l6.7,-19.47l-21.78,-17.68l-3.16,-2.38s-1.49,5.45 -3.26,12.26c-0.09,0.31 -0.17,0.63 -0.26,1s-0.22,0.75 -0.31,1.11c-0.27,1 -0.55,2 -0.81,3.08c-0.2,0.79 -0.4,1.56 -0.58,2.39s-0.38,1.65 -0.58,2.49c-1.8,8.22 -2.97,16.89 -2.86,17.89z"/>
   <path id="svg_69" fill="#263238" d="m171.67,167a41.29,41.29 0 0 0 21.5,27.27l6.7,-19.47l-21.78,-17.68l-3.16,-2.38s-1.49,5.49 -3.26,12.26z"/>
   <path id="svg_70" fill=" rgb(255, 196, 192)" d="m234.08,155.34c-5.57,35.71 -27.59,36.41 -35.29,35.2c-7,-1.1 -30.65,-5.73 -28.8,-41.83s20.22,-44.8 36.34,-43.13s33.32,14.04 27.75,49.76z"/>
   <path id="svg_71" fill="#263238" d="m228.46,145.93a23.15,23.15 0 0 1 -2.28,-1a4.05,4.05 0 0 1 -2.14,-1.47a1.3,1.3 0 0 1 0.32,-1.54a3.19,3.19 0 0 1 3.23,-0.09a4.68,4.68 0 0 1 2.54,2.23a1.37,1.37 0 0 1 -1.67,1.87z"/>
   <path id="svg_72" fill="#263238" d="m206,141.42c0.85,0.07 1.65,0 2.5,0a4,4 0 0 0 2.54,-0.49a1.3,1.3 0 0 0 0.32,-1.54a3.18,3.18 0 0 0 -2.92,-1.37a4.71,4.71 0 0 0 -3.22,1a1.38,1.38 0 0 0 0.78,2.4z"/>
   <path id="svg_73" fill="#263238" d="m208.84,151.33c0,-0.1 -0.21,0.08 -0.23,0.18c-0.37,2.43 -1.2,5.16 -3.54,5.56c-0.07,0 -0.09,0.13 0,0.14c2.74,0.11 3.81,-3.52 3.77,-5.88z"/>
   <path id="svg_74" fill="#263238" d="m207.14,148.4c-3.83,-1 -5.58,6.74 -2,7.68s5.22,-6.83 2,-7.68z"/>
   <path id="svg_75" fill="#263238" d="m205.53,148.47c-0.78,0.28 -1.61,0.91 -2.45,0.81s-1.49,-1.1 -1.93,-2c-0.05,-0.1 -0.13,-0.05 -0.16,0c-0.35,1.49 -0.13,3.14 1.42,3.72s2.74,-0.55 3.45,-2c0.14,-0.18 -0.02,-0.65 -0.33,-0.53z"/>
   <path id="svg_76" fill="#263238" d="m222.57,153.34c0,-0.09 0.16,0.16 0.14,0.25c-0.64,2.38 -1,5.21 1,6.52c0.06,0 0,0.16 0,0.13c-2.59,-0.99 -2.12,-4.75 -1.14,-6.9z"/>
   <path id="svg_77" fill="#263238" d="m225.3,151.34c3.92,0.6 2.42,8.4 -1.22,7.84s-2.08,-8.35 1.22,-7.84z"/>
   <path id="svg_78" fill="#263238" d="m226.82,152.16c0.54,0.53 1,1.4 1.73,1.59s1.64,-0.5 2.34,-1.2c0.07,-0.08 0.12,0 0.11,0.1c-0.25,1.5 -1,3 -2.53,3s-2.07,-1.45 -2.14,-3c-0.01,-0.32 0.28,-0.65 0.49,-0.49z"/>
   <path id="svg_79" fill="#263238" d="m203.45,170.3c0.42,0.71 0.78,1.63 1.62,1.94a6.56,6.56 0 0 0 2.72,0.1a0.09,0.09 0 0 1 0.07,0.15a3.31,3.31 0 0 1 -3.37,0.46a2.61,2.61 0 0 1 -1.29,-2.61c0,-0.14 0.19,-0.14 0.25,-0.04z"/>
   <path id="svg_80" fill="#263238" d="m216.55,163.58s-0.27,3.72 -0.63,5.42a9.37,9.37 0 0 1 -8.34,-4.65c-0.1,-0.18 0.17,-0.32 0.31,-0.18a12.41,12.41 0 0 0 6.94,3.69c0.22,-0.45 0.25,-6.38 0.52,-6.35a15.62,15.62 0 0 1 3.69,1.7c0.78,-7.73 0.32,-15.52 1.22,-23.2a0.24,0.24 0 0 1 0.47,0c1.06,8.13 0.35,17 -0.26,25c-0.06,0.99 -3.3,-1.01 -3.92,-1.43z"/>
   <path id="svg_81" fill="#ff7f00" d="m169.84,148s-7.39,-14.51 -0.16,-30.28s30.6,-21.61 49.51,-10.81c0,0 -28.9,-5.08 -38.76,7.84s-10.59,33.25 -10.59,33.25z"/>
   <path id="svg_82" fill="#263238" d="m174.94,153.06c6.51,1.52 9.76,-13.41 9.76,-13.41s28.59,-1.85 33.34,-24.48c0,0 3.31,15.08 17.34,23.2c0,0 1.62,-25.18 -17.76,-32.11c0,0 -23.74,-11.53 -39.64,6.61s-7.41,39.18 -3.04,40.19z"/>
   <path id="svg_83" fill="#263238" d="m218.32,113.49a25,25 0 0 1 -2.32,10.31a26,26 0 0 1 -6.26,8.69a21.25,21.25 0 0 1 -2.09,1.7l-1.07,0.82c-0.38,0.25 -0.77,0.47 -1.16,0.69c-0.78,0.44 -1.54,0.92 -2.34,1.33s-1.65,0.69 -2.48,1c-0.41,0.16 -0.82,0.34 -1.24,0.48l-1.29,0.35l-2.56,0.7c-1.75,0.29 -3.51,0.5 -5.25,0.68c1.69,-0.54 3.39,-0.89 5,-1.44l2.45,-0.89l1.21,-0.44c0.4,-0.18 0.78,-0.39 1.16,-0.57c0.77,-0.39 1.54,-0.78 2.32,-1.14s1.45,-0.91 2.18,-1.35l1.08,-0.69l1,-0.79a20.51,20.51 0 0 0 2,-1.64a29.56,29.56 0 0 0 6.24,-8a30.29,30.29 0 0 0 2.08,-4.73a29.49,29.49 0 0 0 1.34,-5.07z"/>
   <path id="svg_84" fill=" rgb(255, 196, 192)" d="m175.61,151.19s-5,-12.84 -10.6,-11.33s-3.8,18.8 1.51,22.41a6.1,6.1 0 0 0 8.73,-1.23l0.36,-9.85z"/>
   <path id="svg_85" fill="#263238" d="m165.66,144.8c-0.09,0 -0.14,0.1 -0.07,0.15c3.68,2.67 4.9,7 5.45,11.3c-0.85,-1.82 -2.3,-3.06 -4.69,-2.11c-0.12,0.05 -0.06,0.25 0.06,0.25a3.75,3.75 0 0 1 3.7,2.26a18.47,18.47 0 0 1 1.13,3.73c0.1,0.41 0.81,0.38 0.77,-0.08a0.34,0.34 0 0 0 0,-0.1c1.38,-5.2 -0.88,-13.49 -6.35,-15.4z"/>
   <path id="svg_86" fill="#fff" d="m170.31,161.55a1.46,1.46 0 1 1 -0.93,-1.85a1.47,1.47 0 0 1 0.93,1.85z"/>
   <path id="svg_87" fill="#fff" d="m167.63,158.15a1.06,1.06 0 0 1 -2,-0.66a1.06,1.06 0 1 1 2,0.66z"/>
  </g>
  <g id="freepik--Drink--inject-56">
   <polygon id="svg_88" fill="#ff7f00" points="120.36000061035156,344.281602114439 114.95999908447266,412.1615764796734 77.61000061035156,412.1615764796734 72.22000122070312,344.281602114439 120.36000061035156,344.281602114439 "/>
   <rect id="svg_89" fill="#455a64" height="9.9" width="54.89" y="338.15159" x="68.68"/>
   <polygon id="svg_90" fill="#37474f" points="119.80999755859375,338.1515972316265 72.44000244140625,338.1515972316265 75.20999908447266,327.0415813624859 117.04000091552734,327.0415813624859 119.80999755859375,338.1515972316265 "/>
   <path id="svg_91" fill="#fff" d="m109.25,378.82159c0,8.81 -5.8,15.95 -13,15.95s-13,-7.14 -13,-15.95s5.81,-16 13,-16s13,7.19 13,16z"/>
  </g>
 </g>
</svg>