<svg width="499.99999999999994" height="499.99999999999994" xmlns="http://www.w3.org/2000/svg">

 <g>
  <title>Layer 1</title>
  <g id="freepik--Desk--inject-95">
   <polygon id="svg_1" fill="#263238" points="30.76 437.76 85.57 437.52 140.38 437.43 250 437.27 359.62 437.43 414.43 437.52 469.24 437.76 414.43 438.01 359.62 438.1 250 438.26 140.38 438.1 85.57 438.01 30.76 437.76"/>
  </g>
  <g id="freepik--character-2--inject-95">
   <rect id="svg_2" fill="#ebebeb" height="167.58" width="165.8" y="90.01" x="294.48"/>
   <path id="svg_3" fill="#263238" d="m370.71,79.9c5.53,-6.49 15,-8.05 24.16,-6.2s20.13,6.47 21.13,21.79c0.82,12.44 -3,24.57 -3,38.45s15.71,47.69 -9.43,64.19c-22.59,14.82 -68.36,1.21 -69.77,-29.3c-1.11,-24.18 27.57,-46.54 30.59,-56.11s0.26,-25.72 6.32,-32.82z"/>
   <path id="svg_4" fill="#263238" d="m366.58,93.55c-0.17,6.92 -1.17,13.92 -4,20.45a19.66,19.66 0 0 1 -2.85,4.59c-1.11,1.4 -2.29,2.72 -3.47,4c-2.38,2.59 -4.73,5.16 -7,7.83a71.37,71.37 0 0 0 -11.06,17.39a54.68,54.68 0 0 0 -4.39,20a47.21,47.21 0 0 1 0.31,-10.42a51.39,51.39 0 0 1 2.67,-10.16a63.31,63.31 0 0 1 10.92,-18.05c2.27,-2.71 4.68,-5.3 7.08,-7.86s4.83,-5 6.32,-8a44,44 0 0 0 3.47,-9.64a82.54,82.54 0 0 0 2,-10.13z"/>
   <path id="svg_5" fill="#263238" d="m415.37,105.94c-0.17,7.06 -0.62,14.11 -0.43,21.12a86.3,86.3 0 0 0 0.88,10.43c0.52,3.4 1.54,6.8 2.39,10.24s1.61,6.93 2.17,10.45a60.7,60.7 0 0 1 0.68,10.69a37.92,37.92 0 0 1 -2,10.55a26.81,26.81 0 0 1 -5.89,8.94a28.27,28.27 0 0 0 5,-9.24a37.63,37.63 0 0 0 1.38,-10.28a90.46,90.46 0 0 0 -3.26,-20.67c-0.8,-3.43 -1.82,-6.83 -2.31,-10.44a68.13,68.13 0 0 1 -0.54,-10.67a173.22,173.22 0 0 1 1.93,-21.12z"/>
   <path id="svg_6" fill=" rgb(255, 196, 192)" d="m379,165.31c-23,25.32 -41.77,37.48 -60.27,37.48c-17.59,0 -55.17,-42.71 -57.93,-48.34c-2.38,-4.86 28.47,-31.45 33.21,-28.14c8,5.54 33.66,37.61 36.38,37.76s12.74,-6.47 36.87,-17.77c14.66,-6.85 27.74,1.46 11.74,19.01z"/>
   <path id="svg_7" fill=" rgb(255, 196, 192)" d="m264.38,158.66c-3.38,-3.66 -17.57,-21.93 -20.38,-27.89s-9.62,-23.7 -5.27,-26.31s6.75,2.42 6.75,2.42s-1.69,-7.94 2.93,-10.17s8.1,5.72 8.1,5.72s-1.14,-8.28 3.62,-10.18s6.94,6.7 6.94,6.7s-1.4,-7.53 3.18,-7.44c5.51,0.11 6.52,14.28 10.11,20.63c0.81,1.44 18.59,28 18.59,28l-34.57,18.52z"/>
   <path id="svg_8" fill="#263238" d="m266.88,98.22c0.77,10.41 2.91,14.84 9,23.11c0.12,0.16 -0.09,0.37 -0.23,0.22c-6.73,-7.56 -10.21,-12.72 -9.3,-23.32c0.07,-0.52 0.49,-0.51 0.53,-0.01z"/>
   <path id="svg_9" fill="#263238" d="m256.48,101.61c1.74,10.75 4,15.57 9.79,24.7c0.08,0.13 -0.13,0.28 -0.22,0.16c-6.41,-8.49 -9.77,-13.72 -10.1,-24.69c-0.02,-0.5 0.45,-0.67 0.53,-0.17z"/>
   <path id="svg_10" fill="#263238" d="m245.8,107.34c2.44,10.29 4.71,15.68 11.45,23.82c0.16,0.2 -0.11,0.45 -0.28,0.27c-7.68,-7.64 -10.56,-14.35 -11.47,-24c-0.06,-0.64 0.15,-0.74 0.3,-0.09z"/>
   <path id="svg_11" fill=" rgb(255, 196, 192)" d="m306.88,142.68s-0.23,-13.09 -1.6,-18.82s-14.28,-25.19 -18.69,-22.63c-5.63,3.3 -0.37,16 3,21.9c0,0 -13,7.64 -11.23,17.58s28.52,1.97 28.52,1.97z"/>
   <path id="svg_12" fill="#263238" d="m285.34,102.64c-3,6.72 2,14.17 4.85,20.12a0.61,0.61 0 0 1 -0.44,0.89c-5.26,3.57 -11.63,10.12 -11.71,16.82a0.15,0.15 0 0 1 -0.3,0c-0.89,-7.2 4.84,-14.16 10.84,-17.69c-3,-6.07 -7.67,-13.75 -3.3,-20.2a0,0 0 0 1 0.06,0.06z"/>
   <path id="svg_13" fill="#ff7f00" d="m340.34,156.71l18.48,34.48s25.06,-24.33 29.06,-34.48s-0.31,-17.52 -18.14,-12.09a156.07,156.07 0 0 0 -29.4,12.09z"/>
   <path id="svg_14" fill="#263238" d="m362.09,184c-0.91,-1.87 -1.71,-3.8 -2.66,-5.66s-1.9,-3.7 -2.89,-5.52c-2,-3.68 -4,-7.37 -6.08,-11c-1.18,-2 -2.42,-4.06 -3.71,-6c-0.05,-0.09 -0.22,0 -0.17,0.07c3.39,7.59 7.5,14.86 11.6,22.08c1.19,2.09 2.54,4.08 3.78,6.14c0.04,0.05 0.18,-0.04 0.13,-0.11z"/>
   <path id="svg_15" fill="#263238" d="m386.88,156.71c-4,10.15 -29.06,34.48 -29.06,34.48l-12.45,-23.19l41.07,-22.71c2.36,2.46 2.33,6.63 0.44,11.42z"/>
   <path id="svg_16" fill="#ff7f00" d="m343.55,214.76s-10.16,24.32 -6.57,42.82l112.02,0c-3.64,-50.29 -28.71,-93.51 -43.52,-107.5c-11.94,-11.28 -24.51,-10.27 -33.26,-4.5c-2.06,1.37 -24.79,32.78 -27.25,37.75c-9.76,19.61 -1.42,31.43 -1.42,31.43z"/>
   <path id="svg_17" fill=" rgb(255, 196, 192)" d="m373,144.1s-7,20.13 -2.94,21.18c10.1,2.6 23.65,-13.89 24.46,-15.57c0.2,-0.43 1.1,-11.7 1.77,-20.47c0.43,-5.64 0.76,-10.25 0.76,-10.25l-24.92,8.55l0.8,15.45l0.07,1.11z"/>
   <path id="svg_18" fill="#263238" d="m372.09,127.54l0.8,15.45c5.07,-0.71 16.22,-3.46 23.36,-13.75c0.43,-5.64 0.76,-10.25 0.76,-10.25l-3.12,1l-21.8,7.55z"/>
   <path id="svg_19" fill=" rgb(255, 196, 192)" d="m353.53,105.91c-0.3,7.85 0.48,14.2 2.39,18.42a21.41,21.41 0 0 0 18.59,12.54c3,0.11 11.64,-0.68 17.89,-5.44c4.86,-3.7 7.79,-10.37 9.45,-22.1c3.8,-26.82 -8.47,-35.84 -20.56,-36.92s-26.76,6.44 -27.76,33.5z"/>
   <path id="svg_20" fill="#263238" d="m360.46,99.93c0.63,-0.09 1.21,-0.27 1.82,-0.41a3.13,3.13 0 0 0 1.79,-0.77a1,1 0 0 0 0,-1.18a2.4,2.4 0 0 0 -2.36,-0.53a3.52,3.52 0 0 0 -2.19,1.27a1,1 0 0 0 0.94,1.62z"/>
   <path id="svg_21" fill="#263238" d="m378.13,100.6a17.85,17.85 0 0 1 -1.82,-0.42a3,3 0 0 1 -1.78,-0.78a1,1 0 0 1 0,-1.18a2.39,2.39 0 0 1 2.37,-0.51a3.51,3.51 0 0 1 2.2,1.29a1,1 0 0 1 -0.97,1.6z"/>
   <path id="svg_22" fill="#263238" d="m373.71,107.36c0,-0.07 0.14,0.09 0.14,0.17c-0.15,1.83 0,4 1.63,4.66c0,0 0,0.11 0,0.1c-2.04,-0.38 -2.2,-3.22 -1.77,-4.93z"/>
   <path id="svg_23" fill="#263238" d="m375.45,105.51c3,-0.08 2.92,5.87 0.16,5.95s-2.61,-5.88 -0.16,-5.95z"/>
   <path id="svg_24" fill="#263238" d="m376.62,105.84c0.51,0.34 1,0.94 1.64,1s1.28,-0.54 1.76,-1.14c0.05,-0.06 0.1,0 0.1,0.07c0,1.14 -0.44,2.31 -1.67,2.47s-1.9,-0.88 -2.18,-2c-0.05,-0.24 0.14,-0.54 0.35,-0.4z"/>
   <path id="svg_25" fill="#263238" d="m363.86,106.58c0,-0.07 -0.14,0.09 -0.14,0.16c0,1.85 -0.19,4 -1.86,4.58c-0.05,0 -0.05,0.11 0,0.1c2.05,-0.28 2.35,-3.1 2,-4.84z"/>
   <path id="svg_26" fill="#263238" d="m362.22,104.65c-3,-0.23 -3.21,5.72 -0.46,5.93s2.94,-5.73 0.46,-5.93z"/>
   <path id="svg_27" fill="#263238" d="m361,105c-0.48,0.3 -1,0.85 -1.53,0.87s-1.11,-0.65 -1.5,-1.28c0,-0.07 -0.09,0 -0.1,0.06c-0.07,1.14 0.25,2.33 1.34,2.6s1.76,-0.71 2.07,-1.83c0.02,-0.22 -0.13,-0.54 -0.28,-0.42z"/>
   <path id="svg_28" fill="#263238" d="m373.53,121.68c-0.43,0.45 -0.85,1.06 -1.51,1.14a5.13,5.13 0 0 1 -2,-0.39a0.06,0.06 0 0 0 -0.08,0.09a2.5,2.5 0 0 0 2.38,0.92a2,2 0 0 0 1.39,-1.68a0.1,0.1 0 0 0 -0.18,-0.08z"/>
   <path id="svg_29" fill="#263238" d="m366,114.85s-0.44,2.75 -0.46,4.05c0,0.12 0.31,0.18 0.75,0.22c0,0 0,0 0.05,0a6.17,6.17 0 0 0 6,-2.18c0.09,-0.12 -0.07,-0.26 -0.19,-0.18a9.36,9.36 0 0 1 -5.67,1.5c-0.08,-0.37 0.91,-4.68 0.7,-4.7a11.08,11.08 0 0 0 -3,0.61c0.75,-5.75 2.41,-11.33 3.06,-17.06c0,-0.2 -0.27,-0.27 -0.33,-0.09c-2.16,5.72 -3.16,12.32 -4.09,18.23c-0.08,0.75 2.62,-0.18 3.18,-0.4z"/>
   <path id="svg_30" fill="#263238" d="m367.12,118.44a6.82,6.82 0 0 0 2.56,2.32a3.1,3.1 0 0 0 1.84,0.26c1.37,-0.25 1.5,-1.48 1.34,-2.55a7.75,7.75 0 0 0 -0.48,-1.66a8.82,8.82 0 0 1 -5.26,1.63z"/>
   <path id="svg_31" fill="#ff98b9" d="m369.68,120.76a3.1,3.1 0 0 0 1.84,0.26c1.37,-0.25 1.5,-1.48 1.34,-2.55a3.16,3.16 0 0 0 -3.18,2.29z"/>
   <path id="svg_32" fill="#263238" d="m401.36,106.92c-2.95,0.09 -11.32,-7.27 -12.84,-21.41c0,0 2.25,12.6 3.37,14.37s-4.68,-4.15 -6.07,-15.53c0,0 -5.9,5.14 -11.16,7.14s-8.55,2.26 -9,1.9s7.28,-3.58 9.2,-6.24c0,0 -13.73,8 -20.29,9.08c-0.76,0.12 0.52,-11.69 10.13,-19.29s22.82,-5.7 27.56,-1.9c0,0 5.18,0.27 11.42,7.32s0.85,24.46 -2.32,24.56z"/>
   <path id="svg_33" fill=" rgb(255, 196, 192)" d="m397.47,111.24s5.49,-8.73 9.42,-6.81s0.1,14.37 -4.31,16.26a4.57,4.57 0 0 1 -6.25,-2.15l1.14,-7.3z"/>
   <path id="svg_34" fill="#263238" d="m405.7,108c0.08,0 0.09,0.09 0,0.12c-3.09,1.43 -4.6,4.44 -5.62,7.53c0.89,-1.22 2.13,-1.92 3.75,-0.88c0.08,0.05 0,0.19 -0.08,0.17a2.83,2.83 0 0 0 -3,1.14a14.34,14.34 0 0 0 -1.36,2.57c-0.13,0.29 -0.65,0.17 -0.55,-0.16a0.24,0.24 0 0 1 0,-0.08c-0.28,-4.04 2.57,-9.82 6.86,-10.41z"/>
   <path id="svg_35" fill=" rgb(255, 196, 192)" d="m414.15,155.57c11.08,12.79 42.14,59.09 34.94,71.6c-6.91,12 -22.58,15.38 -31.6,-0.74c-6.49,-11.53 -17.4,-45.93 -20.11,-62.43c-2.2,-13.36 6.53,-20.26 16.77,-8.43z"/>
   <path id="svg_36" fill="#ff7f00" d="m403.8,196.56l36.72,-13.49s-20.61,-28.21 -30.1,-33.58s-17.39,-2.13 -14.49,16.28a154.92,154.92 0 0 0 7.87,30.79z"/>
   <path id="svg_37" fill="#263238" d="m434,177.83c-2,0.65 -4,1.17 -6,1.85s-3.92,1.37 -5.86,2.1c-3.93,1.46 -7.85,2.92 -11.74,4.49c-2.18,0.88 -4.36,1.83 -6.49,2.83c-0.1,0 -0.06,0.21 0,0.18c8,-2.3 15.76,-5.36 23.48,-8.41c2.24,-0.89 4.39,-2 6.6,-2.89c0.15,-0.04 0.08,-0.18 0.01,-0.15z"/>
   <path id="svg_38" fill="#263238" d="m405.87,195.7a13.44,13.44 0 0 0 -2.13,0.66c-1,-2.17 -3.37,-11.71 -3.92,-14.16c-1.1,-4.88 -2,-9.81 -3.15,-14.69c0,-0.14 -0.27,-0.1 -0.25,0c0.34,2.71 0.76,5.41 1.23,8.09c-0.5,-1.28 -1,-2.57 -1.39,-3.88a0.06,0.06 0 1 0 -0.11,0a39.75,39.75 0 0 0 1.67,4.78c0.39,5 4.94,20.89 5.07,20.83a30.07,30.07 0 0 0 3,-1.57c0.11,0.03 0.11,-0.07 -0.02,-0.06z"/>
   <path id="svg_39" fill="#a6a6a6" d="m387.71,101.57l-10.45,44.61c-0.45,1.31 0.22,2.36 1.5,2.34l19.95,4.06a3.7,3.7 0 0 0 3.14,-2.42l10.45,-44.61c0.45,-1.31 -0.22,-2.36 -1.5,-2.33l-19.95,-4.07a3.7,3.7 0 0 0 -3.14,2.42z"/>
   <path id="svg_40" fill="#dbdbdb" d="m389.42,101.82l-10.42,44.61c-0.45,1.31 0.22,2.36 1.5,2.34l19.95,4.06a3.7,3.7 0 0 0 3.14,-2.41l10.41,-44.61c0.45,-1.32 -0.22,-2.36 -1.5,-2.34l-19.94,-4.07a3.73,3.73 0 0 0 -3.14,2.42z"/>
   <path id="svg_41" fill="#263238" d="m395.74,103.74a2,2 0 1 1 -1.94,-1.95a1.95,1.95 0 0 1 1.94,1.95z"/>
   <path id="svg_42" fill=" rgb(255, 196, 192)" d="m422.82,230.47c6.49,12 23.67,5.16 26.27,-3.3c6.1,-19.85 2.32,-52.85 -1.32,-71.28c-1.17,-5.93 -41.45,0 -41.21,6.41c0.28,7.75 3.54,44.57 16.26,68.17z"/>
   <path id="svg_43" fill=" rgb(255, 196, 192)" d="m447.32,164.7a62.54,62.54 0 0 0 0.36,-26.62c-2.12,-9.59 -9.05,-29.93 -36.91,-39c-6.61,-2.16 -17.56,-0.55 -8,6.89c6.76,5.29 12.64,6.6 16,10.4c0,0 -13.68,3.7 -15.58,10.4a129.23,129.23 0 0 0 -3.73,17.88a27.37,27.37 0 0 0 3.28,1a26.59,26.59 0 0 0 3.86,16.68l40.72,2.37z"/>
   <path id="svg_44" fill=" rgb(255, 196, 192)" d="m444.19,129.25c-4.14,-3 -13,-9.38 -22.09,-12c-10.08,-3 -30.27,-5.9 -32.37,1.55c-1.54,5.47 6.07,7.28 6.07,7.28s-8.6,0.54 -8.91,5.78c-0.28,4.78 5.69,5.83 5.69,5.83s-5.16,1.22 -4.55,5.88c0.74,5.59 11.45,2.11 17.1,7.13c1.27,1.1 39.06,-21.45 39.06,-21.45z"/>
   <path id="svg_45" fill="#263238" d="m420.76,128.38c-4.36,-2.24 -15.58,-4.77 -24.8,-2.48c-0.21,0 -0.28,0.23 -0.08,0.23a103.58,103.58 0 0 1 24.86,2.34c0.05,0.02 0.07,-0.07 0.02,-0.09z"/>
   <path id="svg_46" fill="#263238" d="m417.5,138.46c-4,-1.54 -15.65,-3.64 -24.91,-1c-0.21,0.06 -0.27,0.25 -0.07,0.24a109.86,109.86 0 0 1 25,0.86a0.05,0.05 0 0 0 -0.02,-0.1z"/>
   <path id="svg_47" fill="#263238" d="m419.14,222.11c-0.3,-1 -0.59,-2 -0.91,-2.91c-0.66,-2 -1.23,-4 -1.81,-6c-1.18,-4 -2.31,-8.06 -3.3,-12.14a214.94,214.94 0 0 1 -4.49,-24.68c-0.28,-2.3 -0.52,-4.6 -0.77,-6.9s-0.33,-4.69 -0.77,-7c0,-0.12 -1.17,-1.88 -1.63,-2.75a23.41,23.41 0 0 1 -1.25,-2.8a25.9,25.9 0 0 1 -1.51,-6.08a0.07,0.07 0 0 0 -0.13,0a19.72,19.72 0 0 0 0.88,7a12.37,12.37 0 0 0 3.1,5c0,0.3 0.07,4 0.19,6.07s0.31,4.14 0.54,6.2c0.47,4.14 1.05,8.27 1.78,12.38a188.11,188.11 0 0 0 5.94,24.57c0,0.13 0.09,0.26 0.13,0.39c0,0.3 0,0.6 0,0.9a18.12,18.12 0 0 0 0.18,2.21a20.86,20.86 0 0 0 1.07,4.27a0.08,0.08 0 1 0 0.15,0a28.43,28.43 0 0 1 -0.72,-4.4l-0.18,-1.52c0.55,1.62 1.13,3.24 1.7,4.85c0.4,1.12 0.81,2.21 1.27,3.3s0.82,2.15 1.36,3.16c0,0.08 0.16,0 0.14,-0.06c-0.25,-1.07 -0.65,-2.05 -0.96,-3.06z"/>
   <polygon id="svg_48" fill="#ebebeb" points="294.48 257.58 294.48 230.7 263.93 257.58 294.48 257.58"/>
  </g>
  <g id="freepik--character-1--inject-95">
   <path id="svg_49" fill=" rgb(255, 196, 192)" d="m137.47,314.57c8.8,38.29 27,84.19 34.77,91.64c9.83,9.42 74.86,26.7 78.1,27.05c8,0.81 24.13,-57 15.57,-58.25c-13,-1.88 -60.36,-4.45 -63.19,-7.36s-22.93,-28.25 -43.47,-56.72c-14.18,-19.67 -27.25,-20.12 -21.78,3.64z"/>
   <path id="svg_50" fill=" rgb(255, 196, 192)" d="m243.9,430.14c0.95,0.48 14.54,7.32 22.94,9.75c6.27,1.82 24.45,6.57 27.14,-0.14c1.84,-4.56 -8.53,-8.61 -15.79,-11.64c-3.83,-1.6 -8.55,-5.6 -7.42,-8.06c2,-4.3 11.83,0 18.31,3.78c12.53,7.28 29.22,20.39 36.87,14c2.89,-2.4 -0.47,-6.78 -5.38,-11.07c8,5 16.48,9.1 19.79,6.56c1.91,-1.45 2,-3.44 0.94,-5.7c2.46,0.8 4.63,0.64 6.15,-1c2.59,-2.72 1.33,-6.72 -1.51,-10.83a3.08,3.08 0 0 0 2.36,-1.54c5.49,-8.37 -22,-32.4 -31.49,-34.65c-27.95,-6.65 -57.41,-5.41 -57.41,-5.41c-10.98,8.81 -15.53,55.93 -15.5,55.95z"/>
   <path id="svg_51" fill="#263238" d="m285,404.41a47.46,47.46 0 0 1 18.65,7.17c7.09,4.68 11.79,10.16 17.73,15.67a0.17,0.17 0 0 1 -0.22,0.25c-2.83,-2.62 -14.57,-12.48 -17.6,-14.72a45.26,45.26 0 0 0 -18.56,-8.26c-0.09,-0.01 -0.07,-0.13 0,-0.11z"/>
   <path id="svg_52" fill="#263238" d="m290.21,392.54c7.35,2 14.88,4 21.7,7.52c7.46,3.8 13.3,10 19,16q5.18,5.37 10.11,11c0.13,0.16 -0.08,0.41 -0.22,0.25q-8.74,-9.24 -18,-18a59.82,59.82 0 0 0 -19.8,-12.48c-4.2,-1.61 -8.52,-2.88 -12.84,-4.16c-0.06,-0.02 -0.03,-0.15 0.05,-0.13z"/>
   <path id="svg_53" fill="#263238" d="m298.06,382.17c7.14,1.47 13.37,2.72 19.69,6.54c8.37,5.07 16.45,13.6 19.28,16.63c3.13,3.34 6.15,6.78 9.11,10.27c0.12,0.14 -0.12,0.36 -0.25,0.22a237,237 0 0 0 -21.77,-21.57a47.42,47.42 0 0 0 -12.18,-7.92a84.61,84.61 0 0 0 -13.89,-4.12s-0.05,-0.06 0.01,-0.05z"/>
   <path id="svg_54" fill="#ff7f00" d="m254.9,371.89l-20,63.36s-54.15,-15.46 -64,-26.13s-28.16,-65.77 -33.53,-92.48s8.13,-26 20.54,-9.21s43.31,57.65 45,58.54s51.99,5.92 51.99,5.92z"/>
   <path id="svg_55" opacity="0.1" d="m254.36809,370.82616l-20,63.36s-54.15,-15.46 -64,-26.13s-28.16,-65.77 -33.53,-92.48s8.13,-26 20.54,-9.21s43.31,57.65 45,58.54s51.99,5.92 51.99,5.92z"/>
   <path id="svg_56" fill="#263238" d="m229.7,407.1c2.43,-7.47 4.91,-14.92 7.05,-22.48c1.22,-4.29 2.46,-8.59 3.64,-12.89c0.05,-0.17 -0.22,-0.26 -0.28,-0.1c-2.73,7.4 -5.45,14.83 -7.84,22.35s-4.82,15 -7.1,22.47c-1.29,4.28 -2.46,8.58 -3.49,12.93c0,0.08 0.12,0.13 0.15,0.05c2.98,-7.31 5.43,-14.81 7.87,-22.33z"/>
   <path id="svg_57" fill="#263238" d="m207.59,426.54l-2.4,-0.84c-4.51,-1.61 -9.11,-3.34 -13.44,-5.11c-0.56,-0.22 -1.11,-0.45 -1.65,-0.68c-0.87,-0.36 -1.74,-0.73 -2.58,-1.1l-1.26,-0.55l-0.45,-0.2l-1.3,-0.6c-1.72,-0.79 -3.35,-1.58 -4.87,-2.38l-1,-0.56a37.67,37.67 0 0 1 -6.68,-4.39c-0.19,-0.17 -0.38,-0.34 -0.55,-0.51s-0.35,-0.34 -0.5,-0.5c-9.9,-10.67 -28.16,-65.77 -33.53,-92.48l-0.18,-0.92l0,-0.2c-0.36,-2 -0.68,-4.54 -0.94,-7.26l0,0c-0.75,-13.29 5.54,-15.46 13.31,-9.62c19.37,41.57 49.04,110.26 58.02,127.9z"/>
   <path id="svg_58" fill="#ebebeb" d="m179.5,437.18l-118,0.62c0.1,-2.54 16.9,-76.84 30.26,-104.26c17.13,-35.16 26,-38 31.23,-39.88c6.75,-2.42 18.77,-1.22 21.62,0.13c3.24,1.51 13.54,19.49 17.23,32.68c7.38,26.53 19.32,109.09 17.66,110.71z"/>
   <path id="svg_59" fill="#ff7f00" d="m116.94,296.44s15,55.55 15.75,59.24c1.13,5.36 8.61,81.84 8.61,81.84l-82.25,0.28s17.95,-70.8 31.31,-101.8c14.58,-34 26.58,-39.56 26.58,-39.56z"/>
   <g id="svg_60" opacity="0.1">
    <path id="svg_61" d="m117.74851,301.03574s15,55.55 15.75,59.24c1.13,5.36 8.61,81.84 8.61,81.84l-82.25,0.28s17.95,-70.8 31.31,-101.8c14.58,-34 26.58,-39.56 26.58,-39.56z"/>
   </g>
   <path id="svg_62" fill="#ff7f00" d="m145.69,294.65c0.44,1.77 14.27,46.9 15.23,58.15c1.07,12.48 10.53,85 10.53,85l12,0s-17.37,-104.19 -22.14,-115.2c-9.76,-22.47 -15.62,-27.95 -15.62,-27.95z"/>
   <path id="svg_63" opacity="0.1" d="m146.22191,295.18191c0.44,1.77 14.27,46.9 15.23,58.15c1.07,12.48 10.53,85 10.53,85l12,0s-17.37,-104.19 -22.14,-115.2c-9.76,-22.47 -15.62,-27.95 -15.62,-27.95z"/>
   <path id="svg_64" fill=" rgb(255, 196, 192)" d="m101.41,309.43c-19.76,21.17 -67.8,101.49 -52.56,116.14s99.85,-5.07 123.61,-16.4c7.07,-3.36 -19.79,-47.44 -28.1,-48.47c-6.92,-0.85 -42.28,15.32 -43.31,13.29c-1.15,-2.3 4.47,-19.27 13,-50c9.79,-35.42 -3.9,-23.92 -12.64,-14.56z"/>
   <path id="svg_65" fill=" rgb(255, 196, 192)" d="m179.48,346.48c17.18,-2.4 22,-0.37 35.39,-10.09c8.81,-6.38 16.67,-3.49 11.64,6.64c-8.22,16.58 -29.74,24.32 -38,24.86l-9.03,-21.41z"/>
   <path id="svg_66" fill=" rgb(255, 196, 192)" d="m133.84,363s19.31,-10.72 37.37,-15.08c12.48,-3 40.38,-6.55 67.08,21c6.33,6.53 10.72,20.33 -3.49,13.42c-10.1,-4.91 -15,-11.07 -21.41,-12.86c0,0 3.5,18.21 -3.29,24.3a167.87,167.87 0 0 1 -18.87,14.64a34.48,34.48 0 0 1 -3.06,-3.28s-6.88,5.09 -19.82,3.85l-34.51,-45.99z"/>
   <path id="svg_67" fill=" rgb(255, 196, 192)" d="m183.59,347c6,3.11 18.51,9.92 26.83,19.06c9.25,10.16 24.32,32.2 16.75,39c-5.54,4.95 -12,-3 -12,-3s4.31,10.43 -1.68,13.8c-5.45,3.08 -10.11,-3.34 -10.11,-3.34s1.53,6.77 -4.3,8.72c-7,2.34 -9.06,-12.24 -18.21,-16c-2.09,-0.9 2.72,-58.24 2.72,-58.24z"/>
   <path id="svg_68" fill="#263238" d="m198.07,374c5.13,3.85 14.55,15.58 17.15,27.73c0.06,0.28 -0.11,0.47 -0.22,0.23a134.87,134.87 0 0 0 -17,-27.87c-0.08,-0.09 0,-0.09 0.07,-0.09z"/>
   <path id="svg_69" fill="#263238" d="m188.09,383.63c4.09,3.78 13.26,16.3 15.47,28.71c0.05,0.28 -0.14,0.46 -0.23,0.21a144.57,144.57 0 0 0 -15.33,-28.84c-0.06,-0.06 0,-0.13 0.09,-0.08z"/>
   <path id="svg_70" fill="#263238" d="m213.39,369.36c5.6,1.65 9.24,4.4 14,7.68a76.93,76.93 0 0 0 7.21,4.57c2.28,1.23 5.65,3.09 8.07,1.16c1.36,-1.07 1.34,-3 1,-4.57a22.47,22.47 0 0 0 -3.08,-6.37c0,-0.08 0.07,-0.17 0.13,-0.1a32.51,32.51 0 0 1 3.36,5.68a7.46,7.46 0 0 1 0.51,4.37c-0.83,3.08 -4.47,3.49 -7,2.64a24.8,24.8 0 0 1 -4.4,-2.13c-1.36,-0.78 -2.68,-1.62 -4,-2.5c-2.66,-1.8 -5.21,-3.75 -7.85,-5.58a72.64,72.64 0 0 0 -8,-4.66a0.1,0.1 0 0 1 0.05,-0.19z"/>
   <path id="svg_71" fill="#263238" d="m225.12,389.06c-1.45,-3.19 -9.3,-16.49 -11.84,-19.57a0.08,0.08 0 0 1 0.11,-0.11c4.37,4.14 11.38,15.13 13,18.65s3.48,7.93 3.48,11.8c0,5.85 -3.88,7 -5.31,7.25a7.56,7.56 0 0 1 -5,-0.82a15.22,15.22 0 0 1 -4.52,-4.24c-0.06,-0.08 0.05,-0.19 0.12,-0.11c2,2.31 5.4,4.58 8.57,4.16a5.28,5.28 0 0 0 3.62,-1.95a6.91,6.91 0 0 0 0.94,-4.71a32.34,32.34 0 0 0 -3.17,-10.35z"/>
   <path id="svg_72" fill="#ff7f00" d="m133.84,363l27.08,57s-105.92,23.78 -115.06,5.34s32,-90.6 50.53,-111.62c21.49,-24.36 24.23,-16.07 19.5,5.52c-5,22.6 -14.53,55.28 -14.53,55.28l32.48,-11.52z"/>
   <path id="svg_73" opacity="0.1" d="m131.84,365l27.08,57s-105.92,23.78 -115.06,5.34s32,-90.6 50.53,-111.62c21.49,-24.36 24.23,-16.07 19.5,5.52c-5,22.6 -14.53,55.28 -14.53,55.28l32.48,-11.52z"/>
   <path id="svg_74" fill="#263238" d="m69.17,389.69a119.49,119.49 0 0 1 31.83,-15.69c3.21,-1 6.45,-1.95 9.69,-2.88c0.1,0 0.14,0.13 0,0.16a152.63,152.63 0 0 0 -16.59,6.46q-8.09,3.6 -16,7.49c-3,1.47 -5.92,3.08 -8.86,4.65a0.12,0.12 0 0 1 -0.07,-0.19z"/>
   <path id="svg_75" fill="#263238" d="m133.56,362.85c-0.53,0.14 -29.5,9.71 -30.45,10.15c0.12,-0.44 5.32,-15.84 6.1,-18.1c0.07,-0.22 0.14,-0.45 0.22,-0.67c0.52,-1 1.06,-2 1.55,-3c0.62,-1.31 1.24,-2.64 1.85,-4a0,0 0 0 0 -0.06,0l-2,3.87c-0.31,0.59 -0.6,1.2 -0.89,1.81c0.51,-1.59 1,-3.19 1.49,-4.8c0.78,-2.55 1.48,-5.13 2.17,-7.71c0,-0.09 -0.1,-0.11 -0.13,0c-1.54,4.49 -3.22,8.93 -4.77,13.42s-7.51,21 -7.46,21s31.9,-11.26 32.52,-11.51a0.21,0.21 0 0 0 -0.14,-0.46z"/>
   <path id="svg_76" fill="#263238" d="m135.51,400c-3,-6.35 -5.91,-12.74 -9.12,-19c-1.83,-3.55 -3.64,-7.11 -5.5,-10.64c-0.07,-0.13 -0.31,0 -0.25,0.11c2.74,6.5 5.5,13 8.54,19.39s6,12.7 9.09,19q2.64,5.37 5.61,10.57c0,0.07 0.16,0 0.13,0c-2.52,-6.62 -5.49,-13.01 -8.5,-19.43z"/>
   <path id="svg_77" fill="#263238" d="m162.29,420.88c-1.06,-1.76 -2.4,-4.28 -3.53,-6c-0.3,-0.45 -0.65,-0.36 -0.41,0.11c0.81,1.6 1.48,3.39 2.27,5c-1.48,0.3 -3,0.56 -4.46,0.87c-1.72,0.36 -3.43,0.73 -5.15,1.08q-5.06,1 -10.12,2q-10.26,1.91 -20.6,3.36a403.92,403.92 0 0 1 -41.66,3.91c-3.9,0.14 -7.81,0.21 -11.71,0.16a112.81,112.81 0 0 1 -11.52,-0.56c-0.11,0 -0.13,0.17 0,0.19a63.91,63.91 0 0 0 10,1.3c3.53,0.17 7.07,0.25 10.61,0.21c7,-0.08 14.07,-0.54 21.08,-1.18c13.9,-1.28 27.76,-3.16 41.5,-5.59q5.78,-1 11.53,-2.17c1.94,-0.39 3.87,-0.78 5.8,-1.21s6.55,-1.18 6.37,-1.48z"/>
   <path id="svg_78" fill=" rgb(255, 196, 192)" d="m145.71,315.38c-7,1.93 -19.53,-8.42 -24.65,-17c-0.35,-0.59 0.34,-6.95 0.81,-14.72c0.27,-4.71 0.45,-10 0.27,-14.78c0,-1 30.43,6.22 30.43,6.22s-2.6,10.18 -2.24,18.56a11,11 0 0 0 0.28,2a2.29,2.29 0 0 1 0.06,0.32c0.75,3.71 1.81,17.53 -4.96,19.4z"/>
   <path id="svg_79" fill="#263238" d="m124,269c1.7,8.08 7.48,27.53 23.58,27.3a19.14,19.14 0 0 0 3.08,-0.28a1.44,1.44 0 0 0 0,-0.33a13,13 0 0 1 -0.29,-2c-0.35,-8.39 2.24,-18.58 2.24,-18.58s-22.02,-5.2 -28.61,-6.11z"/>
   <path id="svg_80" fill="#455a64" d="m156.2,254.45c-0.34,7.38 4.64,13.6 11.12,13.9s12,-5.46 12.33,-12.84s-4.65,-13.6 -11.12,-13.89s-12,5.45 -12.33,12.83z"/>
   <ellipse id="svg_81" transform="rotate(-87.41 -97.14 409.04)" fill="#c7c7c7" ry="13.06" rx="14.88" cy="664.38001" cx="68.28"/>
   <path id="svg_82" fill=" rgb(255, 196, 192)" d="m126.11,230.59c-5.24,9.88 -5.57,41.29 0.59,49.51c8.93,11.9 26.48,16.27 37.3,4.9c10.53,-11.06 10.23,-52 3.08,-59.77c-10.51,-11.47 -33.23,-9.23 -40.97,5.36z"/>
   <path id="svg_83" fill="#263238" d="m152.23,254.87c0,-0.08 -0.17,0.11 -0.16,0.2c0.11,2.11 -0.11,4.55 -2,5.29c-0.06,0 -0.05,0.13 0,0.12c2.34,-0.38 2.6,-3.62 2.16,-5.61z"/>
   <path id="svg_84" fill="#263238" d="m150.29,252.71c-3.41,-0.18 -3.52,6.65 -0.37,6.81s3.23,-6.66 0.37,-6.81z"/>
   <path id="svg_85" fill="#263238" d="m164.07,255.13c0,-0.08 0.16,0.11 0.16,0.19c-0.1,2.12 0.14,4.56 2,5.29c0.06,0 0,0.13 0,0.12c-2.31,-0.37 -2.6,-3.61 -2.16,-5.6z"/>
   <path id="svg_86" fill="#263238" d="m166,253c3.4,-0.21 3.56,6.62 0.4,6.81s-3.26,-6.69 -0.4,-6.81z"/>
   <path id="svg_87" fill="#263238" d="m147.23,247.25c1,-0.05 1.83,-0.26 2.78,-0.4a4.52,4.52 0 0 0 2.75,-1a1.44,1.44 0 0 0 0.1,-1.76a3.57,3.57 0 0 0 -3.47,-1a5.22,5.22 0 0 0 -3.41,1.65a1.54,1.54 0 0 0 1.25,2.51z"/>
   <path id="svg_88" fill="#263238" d="m169.21,248a25.76,25.76 0 0 1 -2.7,-0.75a4.51,4.51 0 0 1 -2.61,-1.25a1.44,1.44 0 0 1 0.11,-1.76a3.6,3.6 0 0 1 3.58,-0.61a5.27,5.27 0 0 1 3.18,2.06a1.54,1.54 0 0 1 -1.56,2.31z"/>
   <path id="svg_89" fill="#263238" d="m148.37,274.48c0.5,0.5 1,1.19 1.76,1.27a5.68,5.68 0 0 0 2.28,-0.5a0.08,0.08 0 0 1 0.09,0.11a2.83,2.83 0 0 1 -2.7,1.11a2.27,2.27 0 0 1 -1.64,-1.9c-0.03,-0.12 0.13,-0.17 0.21,-0.09z"/>
   <path id="svg_90" fill="#263238" d="m150.7,268.18a7.19,7.19 0 0 0 4.75,3.28a9,9 0 0 0 2.59,0.17a4,4 0 0 0 0.5,-0.05l0.46,-0.07a0.53,0.53 0 0 0 0.44,-0.46l0,0a1.62,1.62 0 0 0 0,-0.22l0,0l0,-0.19c0.07,-1.63 0,-4.11 0,-4.11c0.59,0.31 3.61,1.73 3.57,0.88c-0.3,-7.06 -0.64,-14.9 -2.43,-21.85a0.2,0.2 0 0 0 -0.39,0c0,6.79 1.24,13.53 1.37,20.35a12.86,12.86 0 0 0 -3.38,-1.09c-0.23,0.07 0.31,4.79 0.22,5.52a0.45,0.45 0 0 1 0,0.08c-2.75,0.3 -4.8,-0.56 -7.42,-2.44c-0.24,-0.11 -0.41,0.02 -0.28,0.2z"/>
   <path id="svg_91" fill="#263238" d="m157.09,270.78a8.49,8.49 0 0 1 -3.46,2.6a3.87,3.87 0 0 1 -2.34,0.11c-1.68,-0.48 -1.7,-2 -1.37,-3.35a9.21,9.21 0 0 1 0.79,-2a11.08,11.08 0 0 0 6.38,2.64z"/>
   <path id="svg_92" fill="#ff98b9" d="m153.63,273.38a3.87,3.87 0 0 1 -2.34,0.11c-1.68,-0.48 -1.7,-2 -1.37,-3.35c1.81,0.22 3.58,1.48 3.71,3.24z"/>
   <path id="svg_93" opacity="0.2" fill="#263238" d="m122.18,252.77c2.06,-0.33 7,-7.3 9.09,-10.07s3.3,-17.62 3.49,-21a22.25,22.25 0 0 0 -8.66,8.86c-2.34,4.44 -3.69,13.17 -3.92,22.21z"/>
   <path id="svg_94" fill="#263238" d="m160.31,234a10.64,10.64 0 0 1 -9.82,3.29a10.84,10.84 0 0 1 -8.14,-6.73c0,-0.11 -0.2,-0.05 -0.16,0.05a10.72,10.72 0 0 0 8.13,7.53a10.94,10.94 0 0 0 10.19,-4a0.13,0.13 0 0 0 -0.2,-0.14z"/>
   <path id="svg_95" fill="#263238" d="m150.15,207.38c-6.17,-0.06 -11.93,3.17 -14.32,7.29a11.94,11.94 0 0 0 -1.4,7.74c0,0.11 0.23,0.09 0.22,0a13.09,13.09 0 0 1 6.55,-11.63a16.89,16.89 0 0 1 15,-1.32a10.6,10.6 0 0 1 5.58,4.78c0.12,0.23 0.58,0.1 0.49,-0.13c-1.56,-3.92 -6.55,-6.68 -12.12,-6.73z"/>
   <path id="svg_96" fill="#263238" d="m185.5,221.87a13.63,13.63 0 0 0 -5.56,-7.49c-3.71,-2.46 -8,-2.25 -12.24,-1.95a0.09,0.09 0 0 0 0,0.18c3.62,-0.24 7.31,-0.28 10.57,1.53a13.34,13.34 0 0 1 6,6.69a13,13 0 0 1 -5.9,16a13.24,13.24 0 0 1 -10.46,0.73c-0.14,-0.05 -0.24,0.14 -0.11,0.2a13.31,13.31 0 0 0 17.72,-15.89l-0.02,0z"/>
   <path id="svg_97" fill="#263238" d="m123.88,236.64s-5.46,-11.23 -0.34,-17.43c2.9,-3.51 12.08,-2.71 12.08,-2.71s3.15,-5.17 10.83,-6.64s16.74,3.34 16.74,3.34s7.46,-3.91 14.16,0.25c9.35,5.8 7.63,20.29 -2.15,24.61c-6.86,3 -15.8,-3.26 -15.8,-3.26c-0.89,0.09 -10.11,5.19 -16.63,-3.1c0,0 -5.72,4.72 -10.57,1.09a8,8 0 0 1 -8.32,3.85z"/>
   <path id="svg_98" fill=" rgb(255, 196, 192)" d="m127.81,256.57s-5.19,-11 -10.08,-9.36s-2.18,16.86 2.72,19.72a5.42,5.42 0 0 0 7.65,-1.63l-0.29,-8.73z"/>
   <path id="svg_99" fill="#263238" d="m118.61,251.54c-0.08,0 -0.12,0.1 0,0.14c3.42,2.12 4.77,5.87 5.51,9.64c-0.85,-1.55 -2.22,-2.55 -4.26,-1.57a0.12,0.12 0 0 0 0.06,0.22a3.35,3.35 0 0 1 3.42,1.77a16.43,16.43 0 0 1 1.22,3.22c0.12,0.36 0.74,0.28 0.68,-0.12a0.29,0.29 0 0 0 0,-0.09c0.84,-4.67 -1.67,-11.86 -6.63,-13.21z"/>
   <polygon id="svg_100" fill="#c7c7c7" points="139.12 278.72 129.27 274.47 121.35 264.61 122.87 263.38 130.49 272.87 139.9 276.93 139.12 278.72"/>
   <path id="svg_101" fill="#37474f" d="m138.07,277.15c1,-2.87 9,-1.81 7.55,2.53s-8.52,0.32 -7.55,-2.53z"/>
   <path id="svg_102" fill="#c7c7c7" d="m117.58,246.91s-1.07,-16.13 3.65,-25c5.26,-9.91 27.06,-19.34 42,-8.69c0,0 -24.27,-4.34 -35.58,9.4c-4.76,5.78 -4.64,24.74 -4.64,24.74l-5.43,-0.45z"/>
   <ellipse id="svg_103" transform="rotate(-0.57 -2.53 1.2)" fill="#c7c7c7" ry="14.88" rx="13.06" cy="256.4" cx="117.1"/>
   <path id="svg_104" fill="#455a64" d="m128.88,254.64c0.07,7.39 -5.12,13.43 -11.6,13.49s-11.8,-5.87 -11.87,-13.26s5.12,-13.43 11.6,-13.49s11.8,5.87 11.87,13.26z"/>
   <path id="svg_105" fill="#ebebeb" d="m150.55,295.48l-7.05,17.8l-22.18,-22.38l-6.22,7.24s21.75,35.61 21.88,34l7.25,-15.35l10.62,10.61l-1,-26.74l-3.3,-5.18z"/>
   <path id="svg_106" fill="#263238" d="m155.11,314.15c-0.31,-4.41 -0.49,-8.86 -1,-13.25c0,-0.15 -0.26,-0.22 -0.3,0c-0.86,4.27 0.41,21.12 0.41,25.17l-0.05,0c-0.44,-0.46 -9.84,-9.33 -9.93,-9.19c-1.57,2.44 -6.9,13.61 -7.26,14.63c-3.44,-5.66 -18,-27.95 -22.1,-33.3a0.15,0.15 0 0 0 -0.26,0.15c3,6 21.9,35.41 22.16,35.33a174.62,174.62 0 0 0 7.59,-16.22c1.59,1.93 11.07,11.95 11.1,11.29a138,138 0 0 0 -0.36,-14.61z"/>
  </g>
  <g id="freepik--call-button--inject-95">
   <path id="svg_107" fill="#455a64" d="m392.84,248.68l-30.93,0a11.32,11.32 0 0 1 -11.31,-11.31l0,0a11.31,11.31 0 0 1 11.31,-11.31l30.93,0a11.31,11.31 0 0 1 11.31,11.31l0,0a11.31,11.31 0 0 1 -11.31,11.31z"/>
   <g id="freepik--IaQ7Yo--inject-95">
    <path id="svg_108" fill="#fff" d="m368.67,237.17a2,2 0 0 1 0.34,-1l0.28,-0.41l0.59,-0.59l0.69,-0.5a8.56,8.56 0 0 1 3.12,-1.21a19.82,19.82 0 0 1 7.75,0a8.34,8.34 0 0 1 3.08,1.19c0.24,0.16 0.48,0.34 0.71,0.51l0.58,0.58a7.74,7.74 0 0 1 0.42,0.68a5.34,5.34 0 0 1 0.24,0.74l-5.07,0a0.18,0.18 0 0 1 -0.19,-0.11a1.72,1.72 0 0 0 -1.45,-0.93a34.47,34.47 0 0 0 -4.43,0a1.7,1.7 0 0 0 -1.44,0.92c0,0.07 -0.07,0.12 -0.17,0.12l-5.05,0l0,0.01z"/>
    <path id="svg_109" fill="#fff" d="m368.67,240l0,-1.85l5,0c0,0.11 0,0.23 0,0.36l0,1.49a0.56,0.56 0 0 1 -0.64,0.64l-3.73,0a0.55,0.55 0 0 1 -0.63,-0.64z"/>
    <path id="svg_110" fill="#fff" d="m381.44,240.06c0,-0.63 0,-1.26 0,-1.88l4.95,0l0,0.11c0,0.58 0,1.17 0,1.75a0.56,0.56 0 0 1 -0.62,0.62l-3.77,0a0.54,0.54 0 0 1 -0.56,-0.6z"/>
   </g>
  </g>
  <g id="freepik--Device--inject-95">
   <rect id="svg_111" fill="#455a64" height="4.48" width="6.86" y="439" x="259.08"/>
   <rect id="svg_112" fill="#455a64" height="4.48" width="6.86" y="438.7" x="267.97"/>
   <rect id="svg_113" fill="#455a64" height="4.48" width="6.86" y="438.4" x="276.87"/>
   <rect id="svg_114" fill="#455a64" height="4.48" width="6.86" y="438.11" x="285.77"/>
   <rect id="svg_115" fill="#455a64" height="4.48" width="6.86" y="437.81" x="294.67"/>
   <rect id="svg_116" fill="#455a64" height="4.48" width="6.86" y="437.52" x="303.57"/>
   <rect id="svg_117" fill="#455a64" height="4.48" width="6.86" y="437.22" x="312.47"/>
   <rect id="svg_118" fill="#455a64" height="4.48" width="6.86" y="436.92" x="321.37"/>
   <rect id="svg_119" fill="#455a64" height="4.48" width="6.86" y="436.63" x="330.26"/>
   <polygon id="svg_120" fill="#37474f" points="338.81 446.05 257.39 446.05 257.39 440.6 338.81 438.33 338.81 446.05"/>
   <polygon id="svg_121" fill="#455a64" points="418.27 424.56 283.87 424.56 305.24 324.5 439.64 324.5 418.27 424.56"/>
   <polygon id="svg_122" fill="#37474f" points="423.24 424.56 288.84 424.56 310.21 324.5 444.61 324.5 423.24 424.56"/>
   <ellipse id="svg_123" transform="rotate(-42.74 -151.98 349.03)" fill="#263238" ry="7.68" rx="8.99" cy="717.76" cx="218.05"/>
   <polygon id="svg_124" fill="#455a64" points="385.23 450.69 319.13 450.69 319.13 445.55 385.23 443.42 385.23 450.69"/>
   <polygon id="svg_125" fill="#455a64" points="403.2 450.68 367.71 450.68 346.33 394.61 381.82 394.61 403.2 450.68"/>
   <polygon id="svg_126" fill="#263238" points="409.04 450.68 373.55 450.68 352.18 394.61 387.67 394.61 409.04 450.68"/>
   <path id="svg_127" fill="#37474f" d="m254.88,452.05l-68.15,0c-5.81,0 2.6,-16.56 23.83,-22.91s51.02,16.7 44.32,22.91z"/>
   <path id="svg_128" fill="#263238" d="m228.14,452.05a20.68,20.68 0 0 1 0.93,-5.56a23.3,23.3 0 0 1 2.29,-5.19a18.88,18.88 0 0 1 3.62,-4.39a16,16 0 0 1 4.79,-3c-0.73,0.6 -1.56,1 -2.23,1.67l-1,0.89l-1,1a23.74,23.74 0 0 0 -3.3,4.35a32.65,32.65 0 0 0 -2.42,4.93a41.28,41.28 0 0 0 -1.68,5.3z"/>
   <path id="svg_129" fill="#263238" d="m236.21,436.29a43.79,43.79 0 0 1 11.37,5.71a24.52,24.52 0 0 1 4.75,4.3a14.59,14.59 0 0 1 1.75,2.71a7.86,7.86 0 0 1 0.8,3.09a8.89,8.89 0 0 0 -1.23,-2.86a14.34,14.34 0 0 0 -1.9,-2.43a33.75,33.75 0 0 0 -4.75,-4c-1.69,-1.22 -3.48,-2.31 -5.27,-3.39c-0.9,-0.54 -1.82,-1.06 -2.74,-1.56s-1.85,-1.06 -2.78,-1.57z"/>
  </g>
  <g id="freepik--speech-bubbles--inject-95">
   <path id="svg_130" fill="#fff" d="m259.76,224.89a30.27,30.27 0 0 1 -50.59,19.11l-15.17,2.26l7.58,-13.09a30,30 0 0 1 -2.08,-14.58a30.28,30.28 0 1 1 60.23,6.3l0.03,0z"/>
   <path id="svg_131" fill="#263238" d="m259.76,224.89a30.43,30.43 0 0 1 -6.11,15.35a34.28,34.28 0 0 1 -2.74,3.16a35.69,35.69 0 0 1 -3.2,2.7a29.53,29.53 0 0 1 -7.3,4.07a30.1,30.1 0 0 1 -8.15,1.94a28.19,28.19 0 0 1 -4.21,0.08a26.69,26.69 0 0 1 -4.19,-0.43a30.6,30.6 0 0 1 -15,-7.4l0.36,0.11l-15.13,2.33l-1.09,0.2l0.55,-1l7.54,-13.13l0,0.52a30.58,30.58 0 1 1 58.7,-8.5l-0.03,0zm0,0a30,30 0 0 0 -34.33,-32.77a29.75,29.75 0 0 0 -12.51,4.94a31.35,31.35 0 0 0 -9.06,9.88a30,30 0 0 0 -3.86,12.82a30.36,30.36 0 0 0 2.15,13.24l0.11,0.27l-0.15,0.24l-7.62,13.07l-0.54,-0.8l15.16,-2.12l0.21,0l0.15,0.14a29.85,29.85 0 0 0 14.5,7.47a26.83,26.83 0 0 0 4.11,0.5a30.11,30.11 0 0 0 4.14,0a29.6,29.6 0 0 0 8.09,-1.78a28.3,28.3 0 0 0 7.3,-3.93a37.09,37.09 0 0 0 3.2,-2.67a34,34 0 0 0 2.75,-3.13a30.39,30.39 0 0 0 6.2,-15.37z"/>
   <path id="svg_132" fill="#263238" d="m246.53,222.66a3.67,3.67 0 1 1 -3.67,-3.66a3.66,3.66 0 0 1 3.67,3.66z"/>
   <path id="svg_133" fill="#263238" d="m233.39,222.66a3.67,3.67 0 1 1 -3.66,-3.66a3.66,3.66 0 0 1 3.66,3.66z"/>
   <path id="svg_134" fill="#263238" d="m220.26,222.66a3.67,3.67 0 1 1 -3.67,-3.66a3.67,3.67 0 0 1 3.67,3.66z"/>
   <path id="svg_135" fill="#fff" d="m272.59,67.87a30.28,30.28 0 0 0 50.59,19.13l15.14,2.22l-7.57,-13.09a30.28,30.28 0 1 0 -58.16,-8.28l0,0.02z"/>
   <path id="svg_136" fill="#263238" d="m281.65,42.86a30.22,30.22 0 0 1 25.35,-8.42a30.53,30.53 0 0 1 12.92,4.85a30.64,30.64 0 0 1 11.35,37.08l0,-0.52l7.52,13.15l0.55,1l-1.09,-0.17l-15.14,-2.32l0.36,-0.11a30.6,30.6 0 0 1 -15,7.4a26.69,26.69 0 0 1 -4.19,0.43a29.45,29.45 0 0 1 -4.2,-0.08a30.52,30.52 0 0 1 -15.46,-6a35.69,35.69 0 0 1 -3.2,-2.7a35.64,35.64 0 0 1 -2.74,-3.16a30.47,30.47 0 0 1 2.95,-40.36l0.02,-0.07zm-2.86,40.29a33.9,33.9 0 0 0 2.75,3.12a33.78,33.78 0 0 0 3.2,2.67a27.93,27.93 0 0 0 7.31,3.94a29.9,29.9 0 0 0 8.08,1.78a30.25,30.25 0 0 0 4.15,0a26.85,26.85 0 0 0 4.1,-0.5a29.85,29.85 0 0 0 14.5,-7.47l0.15,-0.14l0.21,0l15.16,2.12l-0.54,0.8l-7.62,-13.07l-0.15,-0.25l0.11,-0.27a29.87,29.87 0 0 0 -1.71,-26a31.24,31.24 0 0 0 -9.06,-9.88a29.76,29.76 0 0 0 -12.5,-4.94a29.94,29.94 0 0 0 -28.14,48.05l0,0.04z"/>
   <path id="svg_137" fill="#ff7f00" d="m305.4,68.42l0,3.78a2.79,2.79 0 0 1 -2.85,2.85a2.86,2.86 0 0 1 -2.85,-2.85l0,-6c0,-0.06 0.06,-0.06 0.06,-0.12s-0.06,-0.06 -0.06,-0.11a2.93,2.93 0 0 1 2.85,-2.85a6.52,6.52 0 1 0 0,-13a6.42,6.42 0 0 0 -5.58,3.2a2.89,2.89 0 0 1 -4,1a2.84,2.84 0 0 1 -1,-3.9a12.22,12.22 0 1 1 13.37,18l0.06,0zm0,12.73l0,1a2.78,2.78 0 0 1 -2.85,2.85a2.85,2.85 0 0 1 -2.85,-2.85l0,-1a2.89,2.89 0 0 1 2.85,-2.85a2.82,2.82 0 0 1 2.85,2.85z"/>
  </g>
 </g>
</svg>