<svg xmlns="http://www.w3.org/2000/svg" xmlns:xlink="http://www.w3.org/1999/xlink" width="500" zoomAndPan="magnify" viewBox="0 0 375 374.999991" height="500" preserveAspectRatio="xMidYMid meet" version="1.0"><defs><g/><clipPath id="id1"><path d="M 23.160156 89 L 134.160156 89 L 134.160156 214 L 23.160156 214 Z M 23.160156 89 " clip-rule="nonzero"/></clipPath><clipPath id="id2"><path d="M 31.625 121.554688 L 126.125 121.554688 L 126.125 181.554688 L 31.625 181.554688 Z M 31.625 121.554688 " clip-rule="nonzero"/></clipPath></defs><g clip-path="url(#id1)"><path fill="#ff914d" d="M 134.039062 127.035156 L 134.039062 175.984375 C 134.039062 177.144531 133.886719 178.285156 133.589844 179.402344 C 133.289062 180.523438 132.851562 181.585938 132.277344 182.59375 C 131.703125 183.597656 131.007812 184.511719 130.195312 185.335938 C 129.382812 186.160156 128.476562 186.863281 127.480469 187.449219 L 85.289062 211.910156 C 84.285156 212.488281 83.222656 212.929688 82.101562 213.230469 C 80.980469 213.53125 79.839844 213.683594 78.683594 213.683594 C 77.523438 213.683594 76.382812 213.53125 75.261719 213.230469 C 74.140625 212.929688 73.078125 212.488281 72.074219 211.910156 L 29.90625 187.449219 C 28.902344 186.867188 27.988281 186.167969 27.167969 185.347656 C 26.34375 184.527344 25.644531 183.613281 25.0625 182.609375 C 24.480469 181.601562 24.039062 180.539062 23.738281 179.414062 C 23.4375 178.289062 23.285156 177.148438 23.28125 175.984375 L 23.28125 127.035156 C 23.285156 125.871094 23.433594 124.726562 23.734375 123.601562 C 24.039062 122.480469 24.480469 121.414062 25.0625 120.40625 C 25.640625 119.398438 26.34375 118.484375 27.164062 117.664062 C 27.988281 116.84375 28.898438 116.144531 29.90625 115.566406 L 72.089844 91.082031 C 73.097656 90.503906 74.160156 90.066406 75.28125 89.769531 C 76.398438 89.46875 77.539062 89.320312 78.699219 89.320312 C 79.855469 89.320312 80.996094 89.46875 82.117188 89.769531 C 83.234375 90.066406 84.300781 90.503906 85.304688 91.082031 L 127.496094 115.578125 C 128.492188 116.160156 129.394531 116.867188 130.207031 117.6875 C 131.019531 118.511719 131.714844 119.425781 132.289062 120.429688 C 132.859375 121.433594 133.296875 122.496094 133.59375 123.617188 C 133.890625 124.738281 134.039062 125.875 134.039062 127.035156 Z M 134.039062 127.035156 " fill-opacity="1" fill-rule="nonzero"/></g><path fill="#ffffff" d="M 44.3125 168.460938 L 47.261719 170.09375 L 44.890625 163.296875 C 45.472656 163.066406 45.886719 162.5 45.886719 161.839844 C 45.886719 161.332031 45.644531 160.882812 45.269531 160.59375 L 45.269531 148.21875 L 43.355469 148.21875 L 43.355469 160.59375 C 42.976562 160.882812 42.734375 161.332031 42.734375 161.839844 C 42.734375 162.5 43.148438 163.066406 43.730469 163.296875 L 41.359375 170.09375 L 44.3125 168.460938 " fill-opacity="1" fill-rule="nonzero"/><g clip-path="url(#id2)"><path fill="#ffffff" d="M 47.882812 160.339844 L 47.882812 167.425781 L 78.875 181.546875 L 109.867188 167.425781 L 109.867188 160.339844 L 78.875 174.460938 Z M 47.882812 151.855469 L 47.882812 158.941406 L 78.875 173.0625 L 109.867188 158.941406 L 109.867188 151.855469 L 78.875 165.976562 Z M 59.261719 149.957031 C 59.261719 150.539062 58.785156 151.007812 58.203125 151.007812 L 49.046875 151.007812 L 78.875 164.601562 L 126.113281 143.074219 L 78.875 121.550781 L 31.636719 143.074219 L 44.429688 148.90625 L 58.203125 148.90625 C 58.785156 148.90625 59.261719 149.375 59.261719 149.957031 " fill-opacity="1" fill-rule="nonzero"/></g><g fill="#000000" fill-opacity="1"><g transform="translate(145.586376, 143.401383)"><g><path d="M 0.71875 -24.351562 L 0.6875 -22.566406 L 1.679688 -22.566406 C 2.503906 -22.601562 3.601562 -22.773438 3.738281 -21.46875 C 3.808594 -15.605469 4.046875 -10.5625 4.117188 -4.699219 C 4.117188 -3.808594 4.253906 -3.085938 4.183594 -2.402344 C 4.082031 -1.507812 3.257812 -1.644531 2.058594 -1.679688 C 1.921875 -1.679688 1.371094 -1.714844 1.234375 -1.714844 L 1.234375 0.171875 C 2.160156 0.136719 17.148438 0.0703125 19 0.0703125 L 19.617188 0.0703125 L 19.617188 -2.125 C 19.617188 -3.085938 19.722656 -6.003906 19.722656 -6.859375 L 17.800781 -6.859375 L 17.765625 -5.042969 C 17.800781 -2.402344 17.457031 -1.714844 14.128906 -1.851562 C 12.828125 -1.851562 11.457031 -1.816406 10.082031 -1.816406 C 8.917969 -1.816406 7.886719 -1.785156 6.929688 -1.816406 C 6.824219 -4.699219 6.757812 -7.648438 6.757812 -10.117188 C 6.757812 -10.632812 6.757812 -11.214844 6.789062 -11.695312 L 6.824219 -11.695312 C 7.269531 -11.695312 8.539062 -11.660156 9.261719 -11.660156 C 10.359375 -11.625 11.558594 -11.625 12.484375 -11.625 C 13.71875 -11.660156 13.308594 -9.535156 13.339844 -8.675781 L 15.160156 -8.675781 C 15.160156 -10.015625 15.125 -12.175781 15.054688 -13.617188 C 15.023438 -14.917969 14.953125 -16.53125 14.953125 -17.492188 C 14.886719 -17.492188 14.300781 -17.527344 14.128906 -17.527344 L 13.339844 -17.527344 C 13.339844 -17.183594 13.375 -16.394531 13.375 -16.050781 C 13.375 -14.0625 13.789062 -13.71875 12.347656 -13.71875 C 11.96875 -13.71875 11.59375 -13.71875 11.179688 -13.753906 C 10.769531 -13.789062 10.289062 -13.789062 9.808594 -13.789062 C 8.746094 -13.789062 7.648438 -13.753906 6.652344 -13.789062 C 6.621094 -16.839844 6.550781 -19.480469 6.515625 -22.5 L 7.097656 -22.5 C 9.328125 -22.535156 11.316406 -22.566406 13.652344 -22.566406 L 15.605469 -22.464844 C 16.941406 -22.464844 17.082031 -22.601562 17.59375 -17.183594 C 17.800781 -17.183594 19.308594 -17.25 19.308594 -17.25 C 19.308594 -17.25 19.207031 -22.566406 19.207031 -24.386719 C 16.121094 -24.386719 12.828125 -24.351562 9.945312 -24.351562 Z M 0.71875 -24.351562 "/></g></g></g><g fill="#000000" fill-opacity="1"><g transform="translate(168.629103, 143.401383)"><g><path d="M 13.308594 -13.339844 C 10.632812 -17.046875 7.957031 -20.785156 5.898438 -23.972656 L 0.6875 -24.042969 L 0.6875 -22.085938 L 1.542969 -22.085938 C 2.503906 -22.085938 3.875 -22.054688 3.910156 -21.230469 C 4.046875 -18.039062 4.046875 -15.332031 4.082031 -12.554688 C 4.117188 -10.734375 4.117188 -8.574219 4.183594 -6.480469 L 4.183594 -3.292969 C 4.082031 -1.714844 1.304688 -1.679688 1.304688 -1.679688 L 1.234375 0 C 3.738281 0 6.996094 0 9.601562 0.0351562 L 9.601562 -0.824219 C 9.601562 -1.097656 9.601562 -1.785156 9.601562 -1.886719 L 8.539062 -1.851562 C 6.824219 -1.816406 6.3125 -2.261719 6.3125 -3.429688 C 6.3125 -7.03125 6.003906 -16.1875 5.898438 -19.652344 C 7.921875 -16.769531 9.125 -14.988281 11.148438 -12.039062 C 13.890625 -8.058594 16.738281 -3.875 19.480469 0 L 21.332031 0 L 21.160156 -6.515625 C 21.023438 -11.660156 20.886719 -15.984375 20.886719 -20.921875 C 20.886719 -22.394531 24.109375 -22.226562 24.144531 -22.226562 L 24.144531 -24.078125 L 15.46875 -24.007812 L 15.46875 -22.121094 C 16.222656 -22.121094 18.625 -22.292969 18.625 -20.921875 C 18.964844 -12.039062 19.136719 -9.261719 19.242188 -4.765625 C 17.320312 -7.613281 15.261719 -10.53125 13.308594 -13.339844 Z M 13.308594 -13.339844 "/></g></g></g><g fill="#000000" fill-opacity="1"><g transform="translate(195.06643, 143.401383)"><g><path d="M 12.382812 0.6875 C 16.910156 0.617188 18.210938 -0.652344 18.488281 -0.925781 L 18.691406 -6.277344 C 18.691406 -8.644531 18.65625 -9.089844 21.777344 -8.847656 L 21.777344 -9.433594 C 21.777344 -9.5 21.777344 -9.601562 21.777344 -9.671875 C 21.777344 -9.742188 21.777344 -9.84375 21.777344 -9.910156 L 21.777344 -10.460938 C 20.988281 -10.496094 19.242188 -10.5625 18.519531 -10.5625 L 12.757812 -10.5625 L 12.757812 -9.707031 C 12.757812 -9.601562 12.792969 -9.089844 12.792969 -8.953125 C 13.511719 -8.882812 13.925781 -8.882812 14.300781 -8.882812 C 15.46875 -8.847656 16.53125 -8.574219 16.53125 -7.410156 L 16.53125 -2.914062 C 16.394531 -2.675781 15.707031 -1.542969 12.382812 -1.199219 C 6.035156 -1.40625 3.394531 -7.820312 3.53125 -12.585938 C 3.667969 -17.765625 5.96875 -23.5625 12.140625 -23.5625 C 13.511719 -23.5625 15.125 -23.253906 16.804688 -22.566406 L 16.941406 -16.222656 L 18.761719 -16.292969 C 18.761719 -17.183594 18.796875 -18.691406 18.828125 -19.722656 C 18.863281 -21.058594 18.933594 -22.703125 18.933594 -23.734375 L 17.421875 -24.351562 C 16.222656 -24.726562 14.300781 -25.3125 12.074219 -25.3125 C 4.734375 -25.3125 0.6875 -19.582031 0.6875 -12.863281 C 0.6875 -3.808594 6.035156 0.6875 12.039062 0.6875 Z M 12.382812 0.6875 "/></g></g></g><g fill="#000000" fill-opacity="1"><g transform="translate(218.452046, 143.401383)"><g><path d="M 0.824219 -1.921875 L 0.824219 0 C 3.019531 0 7.578125 0.0351562 9.910156 0.0351562 C 12.828125 0.0703125 16.359375 0.0703125 19.273438 0.0703125 L 19.273438 -7.511719 L 18.210938 -7.511719 C 18.039062 -7.511719 17.421875 -7.546875 17.320312 -7.546875 C 17.285156 -5.554688 17.390625 -2.058594 15.742188 -2.058594 C 15.054688 -2.023438 14.816406 -2.058594 14.371094 -2.058594 L 8.882812 -2.058594 C 7.269531 -2.058594 7.066406 -2.125 6.996094 -5.660156 L 7.167969 -20.234375 C 7.132812 -21.128906 7.167969 -22.292969 8.710938 -22.121094 L 11.59375 -22.085938 C 11.59375 -23.253906 11.523438 -23.632812 11.488281 -24.109375 C 9.601562 -24.214844 6.550781 -24.351562 4.320312 -24.417969 L 0.71875 -24.523438 C 0.652344 -24.042969 0.71875 -22.910156 0.71875 -22.429688 C 1.097656 -22.429688 1.476562 -22.429688 1.886719 -22.429688 C 3.976562 -22.5 4.320312 -21.46875 4.289062 -20.578125 C 4.21875 -18.417969 4.289062 -15.46875 4.289062 -11.007812 L 4.289062 -5.351562 C 4.253906 -1.921875 4.457031 -1.816406 1.75 -1.921875 Z M 0.824219 -1.921875 "/></g></g></g><g fill="#000000" fill-opacity="1"><g transform="translate(240.020342, 143.401383)"><g><path d="M 5.726562 -15.261719 C 5.863281 -11.214844 5.761719 -7.992188 5.898438 -3.019531 C 5.933594 -1.644531 4.628906 -1.371094 3.394531 -1.40625 L 2.125 -1.40625 C 2.125 -1.167969 2.125 -1.027344 2.160156 -0.789062 C 2.160156 -0.582031 2.195312 -0.0703125 2.195312 0.0351562 C 4.734375 0.171875 7.167969 0.207031 9.570312 0.207031 L 11.933594 0.207031 L 11.96875 -1.304688 C 10.5625 -1.335938 8.472656 -1.304688 8.300781 -3.019531 L 8.265625 -5.488281 C 8.265625 -6.207031 8.300781 -7.410156 8.300781 -8.230469 L 8.300781 -12.382812 C 8.300781 -13.820312 8.335938 -15.296875 8.335938 -16.910156 L 8.335938 -20.921875 C 8.300781 -22.15625 10.769531 -22.257812 12.003906 -22.257812 C 12.003906 -22.671875 12.003906 -23.597656 11.933594 -24.144531 C 8.917969 -24.144531 3.703125 -24.042969 0.6875 -23.972656 L 0.925781 -21.949219 L 2.914062 -22.019531 C 4.355469 -22.085938 5.382812 -21.949219 5.453125 -20.679688 Z M 5.726562 -15.261719 "/></g></g></g><g fill="#000000" fill-opacity="1"><g transform="translate(254.319373, 143.401383)"><g><path d="M 10.1875 -0.445312 L 9.945312 -0.445312 C 6.585938 -0.515625 3.910156 -3.019531 3.839844 -3.773438 L 3.703125 -8.300781 L 1.886719 -8.367188 C 1.886719 -8.367188 1.785156 -2.402344 1.921875 -2.433594 C 1.886719 -2.433594 4.21875 1.714844 10.699219 1.785156 C 14.816406 1.644531 18.863281 -0.308594 18.863281 -5.695312 C 18.863281 -11.078125 14.953125 -11.730469 11.113281 -12.449219 C 7.648438 -13.03125 4.21875 -13.652344 4.148438 -18.144531 C 4.148438 -21.640625 7.476562 -23.011719 10.769531 -22.84375 C 12.863281 -22.703125 13.617188 -22.121094 13.855469 -21.8125 L 14.371094 -16.292969 L 16.085938 -16.324219 L 16.324219 -22.636719 C 16.324219 -23.117188 13.410156 -24.933594 9.773438 -24.933594 C 5.625 -24.933594 1.371094 -23.117188 1.371094 -17.902344 C 1.371094 -12.414062 5.28125 -11.625 9.125 -10.871094 C 12.449219 -10.21875 15.707031 -9.636719 15.707031 -5.523438 C 15.707031 -4.011719 14.917969 -0.480469 10.1875 -0.445312 Z M 10.1875 -0.445312 "/></g></g></g><g fill="#000000" fill-opacity="1"><g transform="translate(275.476201, 143.401383)"><g><path d="M 0.71875 -22.292969 C 1.507812 -22.292969 4.011719 -22.535156 4.082031 -21.023438 C 4.148438 -19.308594 4.289062 -12.246094 4.289062 -6.449219 C 4.289062 -5.144531 4.289062 -4.011719 4.253906 -3.019531 C 4.082031 -1.578125 3.328125 -1.613281 2.777344 -1.644531 L 1.234375 -1.679688 L 1.199219 0.0703125 L 9.945312 0.0703125 L 10.015625 -1.714844 L 8.984375 -1.714844 C 6.929688 -1.714844 6.929688 -3.601562 6.929688 -5.488281 C 6.929688 -5.488281 6.929688 -10.976562 6.960938 -10.941406 C 7.304688 -10.976562 10.976562 -10.976562 14.300781 -11.007812 C 16.804688 -11.042969 18.488281 -10.976562 18.453125 -10.976562 L 18.589844 -3.085938 C 18.589844 -2.058594 17.320312 -1.886719 16.839844 -1.886719 C 16.566406 -1.886719 15.84375 -1.851562 15.503906 -1.851562 C 15.503906 -1.269531 15.503906 -0.582031 15.570312 0 L 24.25 0 C 24.214844 -0.308594 24.214844 -1.921875 24.214844 -2.058594 L 22.191406 -2.058594 C 20.988281 -2.058594 21.09375 -3.738281 21.09375 -4.835938 L 21.09375 -5.523438 L 21.023438 -7.238281 C 21.023438 -8.644531 20.957031 -10.324219 20.921875 -12.105469 C 20.851562 -14.507812 20.785156 -17.082031 20.785156 -19.105469 C 20.785156 -20.339844 20.75 -22.15625 21.949219 -22.292969 L 24.007812 -22.363281 L 23.941406 -24.25 L 14.988281 -24.351562 C 14.988281 -23.699219 14.988281 -23.011719 14.953125 -22.292969 C 14.953125 -22.292969 16.324219 -22.292969 16.53125 -22.292969 C 17.492188 -22.292969 18.246094 -21.949219 18.382812 -21.058594 C 18.453125 -20.542969 18.382812 -19.824219 18.382812 -18.074219 L 18.382812 -13.03125 L 15.878906 -13.066406 C 13.546875 -13.066406 10.253906 -13.101562 8.230469 -13.101562 L 6.929688 -13.101562 C 6.824219 -13.855469 6.824219 -20.886719 6.824219 -20.921875 C 6.757812 -22.15625 9.191406 -22.328125 9.742188 -22.292969 L 10.839844 -22.292969 L 10.90625 -24.25 C 8.675781 -24.25 5.042969 -24.28125 0.6875 -24.25 Z M 0.71875 -22.292969 "/></g></g></g><g fill="#000000" fill-opacity="1"><g transform="translate(145.586376, 183.90138)"><g><path d="M 10.1875 -0.445312 L 9.945312 -0.445312 C 6.585938 -0.515625 3.910156 -3.019531 3.839844 -3.773438 L 3.703125 -8.300781 L 1.886719 -8.367188 C 1.886719 -8.367188 1.785156 -2.402344 1.921875 -2.433594 C 1.886719 -2.433594 4.21875 1.714844 10.699219 1.785156 C 14.816406 1.644531 18.863281 -0.308594 18.863281 -5.695312 C 18.863281 -11.078125 14.953125 -11.730469 11.113281 -12.449219 C 7.648438 -13.03125 4.21875 -13.652344 4.148438 -18.144531 C 4.148438 -21.640625 7.476562 -23.011719 10.769531 -22.84375 C 12.863281 -22.703125 13.617188 -22.121094 13.855469 -21.8125 L 14.371094 -16.292969 L 16.085938 -16.324219 L 16.324219 -22.636719 C 16.324219 -23.117188 13.410156 -24.933594 9.773438 -24.933594 C 5.625 -24.933594 1.371094 -23.117188 1.371094 -17.902344 C 1.371094 -12.414062 5.28125 -11.625 9.125 -10.871094 C 12.449219 -10.21875 15.707031 -9.636719 15.707031 -5.523438 C 15.707031 -4.011719 14.917969 -0.480469 10.1875 -0.445312 Z M 10.1875 -0.445312 "/></g></g></g><g fill="#000000" fill-opacity="1"><g transform="translate(166.743208, 183.90138)"><g><path d="M 11.523438 -8.882812 C 16.566406 -8.882812 20.167969 -11.214844 20.167969 -16.1875 C 20.167969 -18.382812 20.339844 -24.316406 11.179688 -24.316406 L 10.804688 -24.316406 C 8.675781 -24.25 6.171875 -24.214844 3.703125 -24.214844 C 3.191406 -24.214844 2.742188 -24.25 2.261719 -24.25 L 0.6875 -24.25 L 0.6875 -22.363281 C 0.890625 -22.363281 3.703125 -22.5 3.667969 -20.886719 C 3.703125 -18.316406 3.738281 -17.113281 3.808594 -14.542969 C 3.875 -11.457031 3.910156 -8.4375 3.945312 -5.761719 L 4.011719 -2.949219 C 3.703125 -1.714844 2.640625 -1.886719 1.613281 -1.886719 L 0.859375 -1.886719 L 0.859375 0 L 5.417969 0.0351562 L 9.980469 0.0351562 L 9.980469 -0.890625 C 9.980469 -1.097656 10.015625 -1.75 10.015625 -1.886719 C 6.378906 -1.921875 6.585938 -1.542969 6.585938 -4.664062 C 6.585938 -5.074219 6.621094 -6.003906 6.621094 -6.480469 C 6.652344 -7.203125 6.652344 -7.957031 6.652344 -8.816406 Z M 11.351562 -22.191406 C 17.355469 -22.191406 17.183594 -17.730469 17.148438 -16.257812 L 17.148438 -16.015625 C 17.148438 -12.863281 14.746094 -10.941406 11.625 -10.804688 C 10.390625 -10.769531 9.261719 -10.734375 8.09375 -10.734375 C 7.578125 -10.734375 7.304688 -10.699219 6.757812 -10.699219 C 6.6875 -11.59375 6.550781 -20.40625 6.515625 -22.15625 Z M 11.351562 -22.191406 "/></g></g></g><g fill="#000000" fill-opacity="1"><g transform="translate(189.237306, 183.90138)"><g><path d="M 10.253906 -25.039062 C 9.019531 -21.882812 4.9375 -10.390625 3.019531 -4.148438 L 2.503906 -2.742188 C 1.921875 -1.507812 1.269531 -1.75 0.515625 -1.785156 C 0.273438 -1.785156 -0.378906 -1.816406 -0.582031 -1.816406 C -0.582031 -1.613281 -0.582031 -0.789062 -0.6875 0 C 1.167969 0.0351562 3.636719 0.0703125 5.554688 0.0703125 L 7.269531 0.0703125 C 7.339844 -0.273438 7.410156 -1.644531 7.410156 -1.886719 C 5.796875 -1.851562 4.835938 -1.613281 5.179688 -2.882812 C 5.179688 -2.882812 5.660156 -4.597656 5.898438 -6.003906 L 7.097656 -6.003906 C 8.917969 -6.003906 12.792969 -6.003906 15.054688 -6.035156 C 15.8125 -6.035156 16.667969 -6.070312 17.082031 -6.070312 L 17.699219 -4.5625 C 18.039062 -3.636719 18.246094 -3.429688 18.589844 -2.402344 C 18.898438 -1.507812 15.878906 -1.851562 15.367188 -1.851562 L 15.296875 0.0351562 C 16.875 0 21.265625 0 22.671875 0 L 24.179688 0 L 24.28125 -1.921875 C 23.046875 -1.886719 21.8125 -1.921875 21.367188 -2.640625 C 19.859375 -6.035156 18.347656 -9.773438 16.875 -13.546875 C 15.8125 -16.257812 14.78125 -18.964844 13.753906 -21.402344 L 12.246094 -25.039062 Z M 6.722656 -8.027344 C 7.71875 -10.597656 10.289062 -18.175781 11.214844 -20.886719 C 12.277344 -18.144531 13 -16.394531 14.027344 -13.683594 C 14.714844 -11.796875 15.46875 -9.945312 16.152344 -8.09375 C 14.128906 -8.058594 7.992188 -8.027344 6.722656 -8.027344 Z M 6.722656 -8.027344 "/></g></g></g><g fill="#000000" fill-opacity="1"><g transform="translate(214.440241, 183.90138)"><g><path d="M 12.691406 -1.269531 C 6.3125 -0.617188 3.5 -6.960938 3.429688 -12.414062 C 3.328125 -17.421875 5.96875 -23.082031 12.382812 -23.082031 C 13.652344 -23.082031 15.023438 -22.875 16.601562 -22.394531 C 17.011719 -21.023438 16.976562 -18.898438 16.976562 -17.113281 L 16.976562 -16.324219 C 17.113281 -16.324219 17.699219 -16.292969 17.835938 -16.292969 L 18.691406 -16.292969 C 18.691406 -16.667969 18.726562 -17.835938 18.726562 -18.347656 C 18.761719 -19.996094 18.796875 -23.425781 18.761719 -23.460938 C 17.730469 -24.351562 15.195312 -25.207031 12.074219 -25.207031 C 10.359375 -25.207031 8.265625 -24.832031 6.277344 -23.734375 C 2.914062 -21.640625 0.6875 -16.875 0.6875 -12.484375 C 0.6875 -3.191406 6.242188 0.6875 11.421875 0.6875 C 16.121094 0.6875 18.007812 -1.644531 18.453125 -2.296875 L 17.320312 -3.601562 C 17.320312 -3.601562 15.984375 -1.578125 12.691406 -1.269531 Z M 12.691406 -1.269531 "/></g></g></g><g fill="#000000" fill-opacity="1"><g transform="translate(235.871379, 183.90138)"><g><path d="M 0.71875 -24.351562 L 0.6875 -22.566406 L 1.679688 -22.566406 C 2.503906 -22.601562 3.601562 -22.773438 3.738281 -21.46875 C 3.808594 -15.605469 4.046875 -10.5625 4.117188 -4.699219 C 4.117188 -3.808594 4.253906 -3.085938 4.183594 -2.402344 C 4.082031 -1.507812 3.257812 -1.644531 2.058594 -1.679688 C 1.921875 -1.679688 1.371094 -1.714844 1.234375 -1.714844 L 1.234375 0.171875 C 2.160156 0.136719 17.148438 0.0703125 19 0.0703125 L 19.617188 0.0703125 L 19.617188 -2.125 C 19.617188 -3.085938 19.722656 -6.003906 19.722656 -6.859375 L 17.800781 -6.859375 L 17.765625 -5.042969 C 17.800781 -2.402344 17.457031 -1.714844 14.128906 -1.851562 C 12.828125 -1.851562 11.457031 -1.816406 10.082031 -1.816406 C 8.917969 -1.816406 7.886719 -1.785156 6.929688 -1.816406 C 6.824219 -4.699219 6.757812 -7.648438 6.757812 -10.117188 C 6.757812 -10.632812 6.757812 -11.214844 6.789062 -11.695312 L 6.824219 -11.695312 C 7.269531 -11.695312 8.539062 -11.660156 9.261719 -11.660156 C 10.359375 -11.625 11.558594 -11.625 12.484375 -11.625 C 13.71875 -11.660156 13.308594 -9.535156 13.339844 -8.675781 L 15.160156 -8.675781 C 15.160156 -10.015625 15.125 -12.175781 15.054688 -13.617188 C 15.023438 -14.917969 14.953125 -16.53125 14.953125 -17.492188 C 14.886719 -17.492188 14.300781 -17.527344 14.128906 -17.527344 L 13.339844 -17.527344 C 13.339844 -17.183594 13.375 -16.394531 13.375 -16.050781 C 13.375 -14.0625 13.789062 -13.71875 12.347656 -13.71875 C 11.96875 -13.71875 11.59375 -13.71875 11.179688 -13.753906 C 10.769531 -13.789062 10.289062 -13.789062 9.808594 -13.789062 C 8.746094 -13.789062 7.648438 -13.753906 6.652344 -13.789062 C 6.621094 -16.839844 6.550781 -19.480469 6.515625 -22.5 L 7.097656 -22.5 C 9.328125 -22.535156 11.316406 -22.566406 13.652344 -22.566406 L 15.605469 -22.464844 C 16.941406 -22.464844 17.082031 -22.601562 17.59375 -17.183594 C 17.800781 -17.183594 19.308594 -17.25 19.308594 -17.25 C 19.308594 -17.25 19.207031 -22.566406 19.207031 -24.386719 C 16.121094 -24.386719 12.828125 -24.351562 9.945312 -24.351562 Z M 0.71875 -24.351562 "/></g></g></g></svg>