<svg xmlns="http://www.w3.org/2000/svg" xmlns:xlink="http://www.w3.org/1999/xlink" width="500" zoomAndPan="magnify" viewBox="0 0 375 374.999991" height="500" preserveAspectRatio="xMidYMid meet" version="1.0"><defs><clipPath id="id1"><path d="M 21 7 L 343.992188 7 L 343.992188 368 L 21 368 Z M 21 7 " clip-rule="nonzero"/></clipPath><clipPath id="id2"><path d="M 34.265625 92.980469 L 330.515625 92.980469 L 330.515625 281.976562 L 34.265625 281.976562 Z M 34.265625 92.980469 " clip-rule="nonzero"/></clipPath></defs><g clip-path="url(#id1)"><path fill="#ff914d" d="M 343.636719 116.484375 L 343.636719 258.441406 C 343.636719 260.113281 343.523438 261.78125 343.304688 263.441406 C 343.085938 265.101562 342.761719 266.742188 342.328125 268.359375 C 341.894531 269.976562 341.359375 271.558594 340.71875 273.105469 C 340.082031 274.652344 339.34375 276.152344 338.507812 277.605469 C 337.675781 279.058594 336.75 280.449219 335.734375 281.78125 C 334.71875 283.113281 333.621094 284.371094 332.441406 285.558594 C 331.265625 286.746094 330.011719 287.855469 328.6875 288.878906 C 327.367188 289.90625 325.980469 290.839844 324.535156 291.683594 L 201.671875 362.625 C 200.214844 363.464844 198.707031 364.203125 197.152344 364.84375 C 195.601562 365.488281 194.011719 366.023438 192.386719 366.457031 C 190.761719 366.890625 189.117188 367.21875 187.449219 367.4375 C 185.785156 367.65625 184.109375 367.765625 182.429688 367.765625 C 180.75 367.765625 179.074219 367.65625 177.40625 367.4375 C 175.742188 367.21875 174.09375 366.890625 172.472656 366.457031 C 170.847656 366.023438 169.257812 365.488281 167.703125 364.84375 C 166.152344 364.203125 164.644531 363.464844 163.1875 362.625 L 40.382812 291.683594 C 38.925781 290.851562 37.53125 289.921875 36.195312 288.902344 C 34.859375 287.886719 33.597656 286.78125 32.40625 285.597656 C 31.21875 284.414062 30.109375 283.15625 29.082031 281.824219 C 28.058594 280.496094 27.125 279.105469 26.28125 277.652344 C 25.4375 276.199219 24.695312 274.695312 24.046875 273.144531 C 23.402344 271.597656 22.859375 270.007812 22.421875 268.386719 C 21.984375 266.765625 21.65625 265.121094 21.433594 263.457031 C 21.210938 261.792969 21.097656 260.121094 21.097656 258.441406 L 21.097656 116.484375 C 21.097656 114.804688 21.210938 113.128906 21.429688 111.464844 C 21.652344 109.796875 21.980469 108.152344 22.417969 106.53125 C 22.855469 104.910156 23.398438 103.320312 24.042969 101.769531 C 24.6875 100.21875 25.433594 98.714844 26.273438 97.261719 C 27.117188 95.808594 28.050781 94.417969 29.078125 93.085938 C 30.105469 91.753906 31.210938 90.496094 32.402344 89.3125 C 33.59375 88.125 34.859375 87.023438 36.195312 86.003906 C 37.53125 84.984375 38.925781 84.058594 40.382812 83.222656 L 163.234375 12.222656 C 164.691406 11.386719 166.199219 10.652344 167.753906 10.011719 C 169.308594 9.375 170.898438 8.839844 172.519531 8.410156 C 174.144531 7.976562 175.789062 7.652344 177.457031 7.433594 C 179.121094 7.21875 180.796875 7.109375 182.476562 7.109375 C 184.15625 7.109375 185.828125 7.21875 187.496094 7.433594 C 189.160156 7.652344 190.804688 7.976562 192.429688 8.410156 C 194.054688 8.839844 195.640625 9.375 197.195312 10.011719 C 198.75 10.652344 200.257812 11.386719 201.714844 12.222656 L 324.582031 83.253906 C 326.027344 84.097656 327.410156 85.035156 328.730469 86.058594 C 330.054688 87.082031 331.304688 88.191406 332.480469 89.378906 C 333.660156 90.566406 334.753906 91.824219 335.769531 93.15625 C 336.78125 94.488281 337.703125 95.878906 338.535156 97.328125 C 339.367188 98.78125 340.101562 100.28125 340.738281 101.828125 C 341.375 103.375 341.910156 104.957031 342.339844 106.574219 C 342.773438 108.1875 343.097656 109.828125 343.3125 111.484375 C 343.53125 113.144531 343.636719 114.808594 343.640625 116.484375 Z M 343.636719 116.484375 " fill-opacity="1" fill-rule="nonzero"/></g><path fill="#ffffff" d="M 74.039062 240.734375 L 83.289062 245.878906 L 75.855469 224.46875 C 77.683594 223.742188 78.976562 221.964844 78.976562 219.878906 C 78.976562 218.28125 78.214844 216.863281 77.039062 215.960938 L 77.039062 176.980469 L 71.039062 176.980469 L 71.039062 215.960938 C 69.859375 216.863281 69.097656 218.28125 69.097656 219.878906 C 69.097656 221.964844 70.390625 223.742188 72.21875 224.46875 L 64.789062 245.878906 L 74.039062 240.734375 " fill-opacity="1" fill-rule="nonzero"/><g clip-path="url(#id2)"><path fill="#ffffff" d="M 85.238281 215.15625 L 85.238281 237.472656 L 182.390625 281.957031 L 279.546875 237.472656 L 279.546875 215.15625 L 182.390625 259.640625 Z M 85.238281 188.429688 L 85.238281 210.746094 L 182.390625 255.226562 L 279.546875 210.746094 L 279.546875 188.429688 L 182.390625 232.914062 Z M 120.902344 182.445312 C 120.902344 184.277344 119.417969 185.761719 117.589844 185.761719 L 88.886719 185.761719 L 182.390625 228.574219 L 330.476562 160.769531 L 182.390625 92.96875 L 34.304688 160.769531 L 74.414062 179.136719 L 117.589844 179.136719 C 119.417969 179.136719 120.902344 180.617188 120.902344 182.445312 " fill-opacity="1" fill-rule="nonzero"/></g></svg>