<svg width="500" height="500" xmlns="http://www.w3.org/2000/svg">

 <g>
  <title>Layer 1</title>
  <g id="freepik--Sofa--inject-45">
   <rect id="svg_1" fill="#ff7f00" height="132.43" width="50.47" y="233.97" x="93.88"/>
   <rect id="svg_2" opacity="0.2" height="132.43" width="50.47" y="233.97" x="93.88"/>
   <rect id="svg_3" fill="#ff7f00" height="132.43" width="50.47" y="233.97" x="355.66"/>
   <rect id="svg_4" opacity="0.2" height="132.43" width="50.47" y="233.97" x="355.66"/>
   <rect id="svg_5" fill="#ff7f00" height="225.65" width="211.33" y="140.75" x="144.34"/>
   <rect id="svg_6" opacity="0.2" height="225.65" width="211.33" y="140.75" x="144.34"/>
   <g id="svg_7" opacity="0.2">
    <rect id="svg_8" height="132.42" width="1.2" y="233.97" x="355.69"/>
    <rect id="svg_9" height="132.42" width="1.2" y="233.97" x="143.74"/>
    <path id="svg_10" d="m356.91,328l-213.17,0l0,-41.11l213.17,0l0,41.11zm-211.91,-1.27l210.67,0l0,-38.61l-210.67,0l0,38.61z"/>
   </g>
   <g id="svg_11" opacity="0.2">
    <path id="svg_12" d="m157.5,213.16a0.84,0.84 0 0 0 0,1.67a0.84,0.84 0 0 0 0,-1.67z"/>
    <path id="svg_13" d="m158.93,315.41a0.84,0.84 0 0 0 0,1.67a0.84,0.84 0 0 0 0,-1.67z"/>
    <path id="svg_14" d="m216.05,299.44c0,-0.09 -0.09,-0.17 -0.13,-0.25a0.38,0.38 0 0 0 -0.65,0a2,2 0 0 0 -0.13,0.25c-0.48,0.99 1.38,0.99 0.91,0z"/>
    <path id="svg_15" d="m132.62,317.51c0,-0.08 -0.08,-0.17 -0.13,-0.25a0.38,0.38 0 0 0 -0.65,0c-0.05,0.08 -0.09,0.17 -0.13,0.25c-0.47,0.99 1.39,0.99 0.91,0z"/>
    <path id="svg_16" d="m164.69,218.26a0.64,0.64 0 0 0 0,1.28a0.64,0.64 0 0 0 0,-1.28z"/>
    <path id="svg_17" d="m120.2,283.07a0.64,0.64 0 0 0 0,1.27a0.64,0.64 0 0 0 0,-1.27z"/>
    <path id="svg_18" d="m204,182.64a0.89,0.89 0 0 0 -1.25,0a1.25,1.25 0 0 0 -0.3,1.21a1,1 0 0 0 1.86,0a1.24,1.24 0 0 0 -0.31,-1.21z"/>
    <path id="svg_19" d="m165.93,310.68a0.89,0.89 0 0 0 -1.25,0a1.23,1.23 0 0 0 -0.3,1.2a1,1 0 0 0 1.85,0a1.21,1.21 0 0 0 -0.3,-1.2z"/>
    <path id="svg_20" d="m341.51,319.3a0.84,0.84 0 0 0 0,-1.68a0.84,0.84 0 0 0 0,1.68z"/>
    <path id="svg_21" d="m290.77,207.74a0.84,0.84 0 0 0 0,-1.67a0.84,0.84 0 0 0 0,1.67z"/>
    <path id="svg_22" d="m368.58,311.41c0,0.08 0.08,0.17 0.13,0.25a0.38,0.38 0 0 0 0.65,0c0.05,-0.08 0.09,-0.17 0.13,-0.25c0.51,-0.99 -1.38,-0.99 -0.91,0z"/>
    <path id="svg_23" d="m265.27,261.06a0.89,0.89 0 0 0 1.25,0a1.23,1.23 0 0 0 0.3,-1.21a1,1 0 0 0 -1.85,0a1.26,1.26 0 0 0 0.3,1.21z"/>
   </g>
   <g id="svg_24" opacity="0.2">
    <path id="svg_25" d="m145,328s53.22,10.38 105.3,10.38s105.36,-10.38 105.36,-10.38l-210.66,0z"/>
   </g>
   <rect id="svg_26" fill="#37474f" height="11.64" width="312.24" y="354.75" x="93.88"/>
   <polygon id="svg_27" fill="#37474f" points="161.48 366.4 148.65 392.67 135.76 419.08 124.53 419.08 128.7 392.67 132.85 366.4 161.48 366.4"/>
   <polygon id="svg_28" fill="#263238" points="132.85 366.4 161.49 366.4 153.7 382.33 130.34 382.33 132.85 366.4"/>
   <polygon id="svg_29" fill="#37474f" points="370.66 419.08 359.44 419.08 346.55 392.67 333.71 366.4 362.35 366.4 366.49 392.67 370.66 419.08"/>
   <polygon id="svg_30" fill="#263238" points="364.86 382.33 341.5 382.33 333.71 366.4 362.34 366.4 364.86 382.33"/>
  </g>
  <g id="freepik--Character--inject-45">
   <path id="svg_31" fill=" rgb(255, 196, 192)" d="m375.70964,308.42518c-0.92,-2.77 -49.95,-67.56 -53.3,-68.8c-0.38,-0.17 -22.3,15.43 -22.3,15.43c-0.9,1.21 -42.56,-7.6 -42.56,-7.6l-0.42,50.26l75.89,-1.61s10.25,6 19.63,10.93l0,0c5.77,3 10.88,5.6 12.34,6c3.82,0.96 11.65,-1.86 10.72,-4.61z"/>
   <path id="svg_32" fill="#fff" d="m365.01964,313.02518c-1.47,-0.38 -6.57,-2.94 -12.33,-6l0,0c-9.37,-4.91 -19.62,-10.95 -19.62,-10.95l-16.89,0.37l-26.49,-42.65c5.81,1 10.14,1.64 10.43,1.26c0,0 21.9,-15.6 22.29,-15.43c3.35,1.24 52.38,66 53.3,68.79s-6.9,5.59 -10.69,4.61z"/>
   <path id="svg_33" fill="#ff7f00" d="m376.14964,308.50518c-1,-2.84 -50.21,-67.58 -53.65,-68.86c-1.3,-0.5 -12,6.13 -22.39,15.41l31.81,41.74s29.34,15.55 33.26,16.55s11.94,-2 10.97,-4.84z"/>
   <path id="svg_34" fill="#263238" d="m372.85964,309.54518c-8.52,-10.65 -41.89,-54.41 -49.51,-65.58c-0.06,-0.1 0,-0.14 0.07,-0.06c8.68,10.38 41.69,54.41 49.62,65.51c0.16,0.23 0,0.38 -0.18,0.13z"/>
   <path id="svg_35" fill="#263238" d="m359.67964,310.91518a11,11 0 0 1 -2.29,-8.51a10.64,10.64 0 0 1 3.95,-6.84c0.07,0 0.16,0.07 0.1,0.13a12.66,12.66 0 0 0 -1.62,15.1a0.09,0.09 0 0 1 -0.14,0.12z"/>
   <path id="svg_36" fill="#263238" d="m335.58964,299.33518c-3.36,-4.3 -5.66,-10.5 -4.16,-15.9c0.06,-0.21 0.35,-0.13 0.39,0.05a75,75 0 0 0 4.37,15.52a0.35,0.35 0 0 1 -0.6,0.33z"/>
   <path id="svg_37" fill="#263238" d="m339.40964,301.69518c-3.36,-4.3 -5.66,-10.5 -4.16,-15.9c0.06,-0.21 0.35,-0.13 0.38,0.05a76.22,76.22 0 0 0 4.37,15.52a0.34,0.34 0 0 1 -0.59,0.33z"/>
   <path id="svg_38" fill="#263238" d="m343.30964,304.05518c-3.36,-4.3 -5.66,-10.5 -4.16,-15.9c0.05,-0.21 0.35,-0.13 0.38,0.05a76.22,76.22 0 0 0 4.37,15.52a0.34,0.34 0 0 1 -0.59,0.33z"/>
   <path id="svg_39" fill="#263238" d="m347.16964,306.41518c-3.37,-4.3 -5.66,-10.5 -4.16,-15.91c0,-0.2 0.35,-0.12 0.38,0.06a75.58,75.58 0 0 0 4.37,15.52a0.34,0.34 0 0 1 -0.59,0.33z"/>
   <path id="svg_40" fill="#263238" d="m315.14964,254.56518c-3.7,-4.88 3.89,-10.63 7.59,-5.74s-3.89,10.63 -7.59,5.74z"/>
   <path id="svg_41" fill="#263238" d="m333.67964,307.65518c1.24,-4.64 0.42,-9.66 0.21,-14.38a0.67,0.67 0 0 0 -0.94,-0.52a0.15,0.15 0 0 0 -0.23,0a28.68,28.68 0 0 0 -8.11,12.4c-0.86,2.8 -0.53,6.92 3,7.73c3.27,0.73 5.34,-2.52 6.07,-5.23zm-3.45,2.94c-5.05,3.16 -4.67,-3.86 -3.95,-5.9a31.74,31.74 0 0 1 1.72,-3.81a85.81,85.81 0 0 1 4.58,-7.35c0,2.33 0.12,4.64 0.17,7c0.06,2.73 0.27,8.32 -2.52,10.06z"/>
   <path id="svg_42" fill="#263238" d="m318.20964,279.39518c-2.57,2.5 -0.72,6.2 1.45,8.16a28.63,28.63 0 0 0 13.34,6.44a0.14,0.14 0 0 0 0.17,-0.15a0.67,0.67 0 0 0 0.55,-0.93c-2.25,-4.15 -4.14,-8.88 -7.6,-12.22c-2.02,-1.9 -5.47,-3.66 -7.91,-1.3zm10.81,7.92c1.16,2 2.21,4.08 3.44,6.05a83.47,83.47 0 0 1 -7.71,-3.94a28.86,28.86 0 0 1 -3.44,-2.38c-1.67,-1.37 -5.62,-7.19 0.34,-7.09c3.29,0.06 5.99,4.96 7.37,7.36z"/>
   <path id="svg_43" fill="#263238" d="m255.24964,232.04518l-34.06,0s-35.63,-17.12 -64.33,-10.25c-32.9,7.91 -37.11,49.23 -12.52,63.84c31.16,18.52 169.82,14.93 169.82,14.93l-30,-50.8s-46.11,-9.71 -87.92,-8.3l59,8l0.01,-17.42z"/>
   <path id="svg_44" fill="#455a64" d="m286.17964,253.07518a0.82,0.82 0 0 1 -0.06,-0.26l-0.06,-0.22c0,-0.16 -0.08,-0.32 -0.13,-0.49a9,9 0 0 0 -0.35,-1c-0.12,-0.33 -0.27,-0.65 -0.42,-1a7.07,7.07 0 0 0 -0.56,-0.9s-0.05,0 -0.08,0a0.1,0.1 0 0 0 -0.05,0s-0.05,0 -0.08,0a0.15,0.15 0 0 0 -0.07,0c-5.07,-1 -39.53,-5.88 -44.65,-6.46s-10.35,-1.07 -15.53,-1.5a307.23,307.23 0 0 0 -31.09,-1.12c-1,0 -1.94,0.05 -2.91,0.09c-0.21,-0.07 -0.43,-0.11 -0.64,-0.16c-0.5,-0.12 -1,-0.24 -1.5,-0.34c-0.93,-0.18 -1.88,-0.32 -2.82,-0.46c-2,-0.3 -3.93,-0.51 -5.88,-0.87a0.09,0.09 0 0 0 0,0.18c2,0.43 3.9,1 5.86,1.43c0.57,0.12 1.13,0.25 1.7,0.36c-3.8,0.2 -7.6,0.49 -11.39,0.84a0.1,0.1 0 0 0 0,0.19c5.16,-0.31 10.36,-0.35 15.54,-0.26s10.26,0.2 15.39,0.5c10.38,0.59 20.74,1.52 31.08,2.6c5.8,0.61 40.93,5.74 46.75,6l0.07,0c0.05,0.13 0.1,0.27 0.16,0.4c0.16,0.31 0.32,0.63 0.5,0.93a9.68,9.68 0 0 0 0.52,0.88c0.09,0.14 0.18,0.28 0.28,0.42l0.15,0.21a1.07,1.07 0 0 1 0.15,0.22c-0.01,-0.01 0.19,-0.09 0.12,-0.21z"/>
   <path id="svg_45" fill="#455a64" d="m303.34964,297.50518c-1.86,-3 -3.44,-6.13 -5.14,-9.19s-3.41,-6.14 -5.12,-9.21c-3.41,-6.12 -15.65,-26.7 -16.86,-28.14c-0.08,-0.09 -0.23,0 -0.2,0.12c0.58,1.59 8.22,15.22 10,18.25c3.52,6.08 7.21,12 10.86,18c1,1.71 2.11,3.4 3.17,5.11s2.18,3.37 3.14,5.12c0.04,0.15 0.21,0.05 0.15,-0.06z"/>
   <path id="svg_46" fill="#455a64" d="m275.87964,256.08518c-3.06,-0.74 -6.19,-1.21 -9.28,-1.8s-6.2,-1.17 -9.3,-1.74q-9.3,-1.73 -18.64,-3.31c-12.4,-2.08 -24.86,-3.82 -37.39,-5c-7.07,-0.68 -14.15,-1.12 -21.24,-1.64c-0.15,0 -0.14,0.22 0,0.23c12.61,0.57 25.21,2.28 37.7,4.07s24.72,3.73 37,5.81q5.22,0.88 10.44,1.79c3.53,0.61 7.06,1.36 10.61,1.81c0.18,0 0.24,-0.19 0.1,-0.22z"/>
   <path id="svg_47" fill=" rgb(255, 196, 192)" d="m312.92687,474.33759c-3,-0.3 -77.26,-33.68 -79.29,-36.75c-0.78,-1.15 3.45,-12.26 9,-25.53c1.18,-2.86 2.43,-5.81 3.71,-8.8c8.27,-19.43 17.51,-39.85 17.51,-39.85l49.75,22.19l-18.88,39.23l-4.14,8.62s22.72,25.5 24.59,29.1s0.74,12.09 -2.25,11.79z"/>
   <path id="svg_48" fill="#fff" d="m312.92687,474.33759c-3,-0.3 -77.26,-33.68 -79.29,-36.75c-0.94,-1.41 5.5,-17.51 12.66,-34.33l48.38,21.57l-4.14,8.62s22.72,25.5 24.59,29.1s0.79,12.09 -2.2,11.79z"/>
   <path id="svg_49" fill="#ff7f00" d="m314.7341,471.92795c-3,-0.3 -77.26,-33.68 -79.29,-36.75c-0.78,-1.15 3.45,-12.26 9,-25.53l47.95,21.39s22.72,25.5 24.59,29.1s0.74,12.09 -2.25,11.79z"/>
   <path id="svg_50" fill="#263238" d="m311.40964,470.28518c-12.31,-5.9 -62.54,-28.55 -75.16,-33.44c-0.1,0 -0.13,0 0,0.07c12.08,6.12 62.48,28.36 75.1,33.58c0.22,0.1 0.3,-0.08 0.06,-0.21z"/>
   <path id="svg_51" fill="#263238" d="m309.73964,457.12518a11,11 0 0 0 -8.82,-0.3a10.64,10.64 0 0 0 -5.77,5.39c0,0.08 0.11,0.14 0.15,0.07a12.69,12.69 0 0 1 14.37,-5a0.09,0.09 0 0 0 0.07,-0.16z"/>
   <path id="svg_52" fill="#263238" d="m292.99964,436.25518c-4.95,-2.31 -11.52,-3.15 -16.45,-0.46c-0.19,0.1 0,0.37 0.15,0.36a75.57,75.57 0 0 1 16.11,0.75a0.34,0.34 0 0 0 0.19,-0.65z"/>
   <path id="svg_53" fill="#263238" d="m296.17964,439.48518c-5,-2.31 -11.52,-3.15 -16.45,-0.46c-0.19,0.1 0,0.37 0.14,0.36a75.66,75.66 0 0 1 16.12,0.75a0.34,0.34 0 0 0 0.19,-0.65z"/>
   <path id="svg_54" fill="#263238" d="m299.34964,442.71518c-4.95,-2.31 -11.52,-3.15 -16.45,-0.47c-0.19,0.11 0,0.38 0.14,0.37a75.66,75.66 0 0 1 16.12,0.75a0.34,0.34 0 0 0 0.19,-0.65z"/>
   <path id="svg_55" fill="#263238" d="m302.51964,445.94518c-4.95,-2.31 -11.52,-3.15 -16.45,-0.47c-0.19,0.11 0,0.38 0.15,0.37a75.6,75.6 0 0 1 16.11,0.75a0.34,0.34 0 0 0 0.19,-0.65z"/>
   <path id="svg_56" fill="#263238" d="m244.71964,426.44518c-5.6,-2.5 -9.49,6.2 -3.88,8.7s9.49,-6.2 3.88,-8.7z"/>
   <path id="svg_57" fill="#263238" d="m304.40964,425.37518c-1.59,-3.22 -5.68,-2.61 -8.21,-1.13a28.63,28.63 0 0 0 -10.26,10.7a0.15,0.15 0 0 0 0.09,0.22c-0.05,0.4 0.23,0.89 0.72,0.8c4.65,-0.86 9.73,-1.2 14,-3.46c2.42,-1.32 5.11,-4.08 3.66,-7.13zm-10.88,7.85c-2.28,0.47 -4.56,0.84 -6.82,1.4a84.27,84.27 0 0 1 6.13,-6.12a30.57,30.57 0 0 1 3.33,-2.55c1.82,-1.16 8.58,-3.12 6.64,2.52c-1.11,3.12 -6.6,4.18 -9.32,4.75l0.04,0z"/>
   <path id="svg_58" fill="#263238" d="m272.68964,431.23518c4,2.61 9.07,3.39 13.63,4.64c0.47,0.13 0.8,-0.33 0.78,-0.74a0.14,0.14 0 0 0 0.11,-0.2a28.69,28.69 0 0 0 -9.3,-11.55c-2.4,-1.68 -6.43,-2.65 -8.28,0.43c-1.75,2.91 0.7,5.89 3.06,7.42zm-1.74,-4.19c-1.45,-5.79 5.12,-3.25 6.84,-1.94a30.57,30.57 0 0 1 3.1,2.82a83.82,83.82 0 0 1 5.58,6.62c-2.2,-0.75 -4.45,-1.31 -6.68,-2c-2.65,-0.75 -8.04,-2.31 -8.84,-5.5z"/>
   <path id="svg_59" fill="#263238" d="m245.61964,398.09518l56,25.3s66.61,-127.84 68.35,-167c1.48,-33.3 -21.7,-46.15 -96.65,-24.61l-18.36,0.23l0,12.67c8.06,1.06 29.56,4.44 29.56,4.44c15.64,5.9 20.68,8.34 20.43,8.85c-39.06,78.82 -59.33,140.12 -59.33,140.12z"/>
   <path id="svg_60" fill="#455a64" d="m314.06964,243.95518c-2.26,3 -4.35,6.14 -6.35,9.34c-12,-5.35 -25.11,-8.44 -38.13,-10.05q-5.52,-0.67 -11.09,-1c-0.15,0 -0.14,0.23 0,0.24a167.55,167.55 0 0 1 38.79,7.38c3.49,1.08 6.9,2.32 10.34,3.55c-2.4,3.84 -4.67,7.78 -6.84,11.74a233.3,233.3 0 0 0 -10.94,22.84c-1.8,4.32 -3.55,8.67 -5.1,13.09c0,0.13 0.17,0.21 0.22,0.09q10.26,-22.87 22.39,-44.76c2.28,-4.12 4.66,-8.18 6.89,-12.33c0.08,-0.11 -0.1,-0.29 -0.18,-0.13z"/>
   <path id="svg_61" fill="#455a64" d="m302.79964,409.86518c-3.27,-1.27 -6.43,-2.86 -9.62,-4.3l-9.61,-4.31c-6.4,-2.86 -28.52,-12 -30.35,-12.46c-0.12,0 -0.18,0.15 -0.09,0.21c1.42,0.93 15.69,7.28 18.92,8.66c6.46,2.77 13,5.33 19.49,8c1.86,0.75 3.73,1.46 5.6,2.19s3.76,1.4 5.59,2.23c0.11,0.01 0.18,-0.18 0.07,-0.22z"/>
   <path id="svg_62" fill="#455a64" d="m313.78964,249.72518c-4.41,8.39 -8.17,17.17 -12,25.84s-7.53,17.31 -11.14,26q-10.77,26.06 -20.06,52.7c-3.52,10 -6.81,20.16 -10,30.3c-0.05,0.15 0.18,0.2 0.23,0.06c5.93,-17.94 12.35,-35.72 19.05,-53.38s13.8,-35.08 21.32,-52.37q3.17,-7.28 6.43,-14.51c2.18,-4.83 4.45,-9.63 6.49,-14.51c0.06,-0.16 -0.21,-0.33 -0.32,-0.13z"/>
   <path id="svg_63" fill="#455a64" d="m219.48964,230.98518c1.23,1.3 79,3.08 79.4,2.59c1.06,-1.34 -9,-50.7 -17.11,-69.57c-10.37,-24.21 -16.28,-26.36 -19.77,-27.8c-4.46,-1.84 -12.58,-1.41 -14.54,-0.59c-2.23,0.91 -11.88,11.74 -14.78,20.49c-5.81,17.59 -14.28,73.74 -13.2,74.88z"/>
   <path id="svg_64" fill="#263238" d="m268.34964,140.51518l-26.05,0c0.48,-0.56 1,-1.09 1.4,-1.57l23,0c0.51,0.44 1.06,0.96 1.65,1.57zm3.28,4.1l-32.58,0l-1.11,1.56l34.74,0q-0.54,-0.82 -1.05,-1.56zm3.51,5.66l-39.73,0c-0.3,0.52 -0.58,1 -0.85,1.56l41.47,0l-0.89,-1.56zm2.95,5.67l-45.34,0l-0.06,0.16c-0.15,0.44 -0.29,0.91 -0.44,1.4l46.59,0c-0.25,-0.54 -0.5,-1.05 -0.75,-1.56zm2.64,5.66l-49.63,0c-0.13,0.5 -0.27,1 -0.4,1.56l50.71,0l-0.68,-1.56zm2.36,5.66l-53.38,0c-0.11,0.52 -0.23,1 -0.35,1.57l54.31,0c-0.19,-0.54 -0.39,-1.04 -0.58,-1.57zm2,5.67l-56.6,0q-0.18,0.78 -0.33,1.56l57.44,0l-0.51,-1.56zm1.77,5.66l-59.54,0c-0.1,0.52 -0.21,1 -0.31,1.56l60.31,0c-0.16,-0.53 -0.31,-1.05 -0.47,-1.56l0.01,0zm1.63,5.67l-62.26,0c-0.1,0.52 -0.19,1 -0.29,1.56l63,0c-0.17,-0.52 -0.31,-1.03 -0.46,-1.56l0.01,0zm1.53,5.66l-64.82,0c-0.1,0.52 -0.19,1 -0.28,1.56l65.49,0c-0.13,-0.52 -0.26,-1.04 -0.4,-1.56l0.01,0zm1.45,5.66l-67.26,0l-0.27,1.57l67.9,0c-0.13,-0.52 -0.26,-1.05 -0.38,-1.57l0.01,0zm1.37,5.67l-69.58,0c-0.08,0.52 -0.17,1 -0.25,1.56l70.18,0l-0.35,-1.56zm1.3,5.66l-71.73,0l-0.24,1.56l72.36,0c-0.12,-0.52 -0.28,-1.04 -0.4,-1.56l0.01,0zm1.25,5.66l-73.89,0c-0.08,0.53 -0.15,1.06 -0.23,1.57l74.44,0l-0.32,-1.57zm1.18,5.67l-75.87,0q-0.12,0.81 -0.21,1.56l76.37,0c-0.09,-0.51 -0.2,-1.01 -0.3,-1.56l0.01,0zm1.09,5.66l-77.7,0c-0.06,0.55 -0.12,1.08 -0.17,1.57l78.14,0c-0.09,-0.5 -0.18,-1.03 -0.28,-1.57l0.01,0zm1,5.67l-79.25,0a3.45,3.45 0 0 0 0.07,1.41a1.17,1.17 0 0 0 0.47,0.15l78.86,0c-0.05,-0.46 -0.12,-0.98 -0.2,-1.56l0.05,0z"/>
   <path id="svg_65" fill=" rgb(255, 196, 192)" d="m274.89964,142.79518c33.54,25.2 62.54,60.18 59.76,71.26c-2.95,11.71 -26.13,24.81 -46.61,27.48c-4.19,0.55 -17.16,-30.2 -12.87,-31.61c3.35,-1.1 18.57,-5.43 20.39,-7.51c1.26,-1.45 -22.35,-34.67 -30,-52c-8.08,-18.21 0.35,-14.41 9.33,-7.62z"/>
   <path id="svg_66" fill=" rgb(255, 196, 192)" d="m283.82964,208.95518s-12.8,1.28 -21.13,2.52c-4.65,0.69 -12.51,2.58 -15.69,4.65c-4.76,3.09 -22.7,19.07 -18.92,23.5c3.42,4 8.59,-2.34 8.59,-2.34s-6.3,6.41 -1.68,9.35s10.58,-6 10.58,-6s-7.16,6.34 -1.93,9c4.54,2.31 12.48,-7.23 12.48,-7.23s-8.25,5.84 -3.83,8.66c4.88,3.12 18.58,-9.68 18.58,-9.68c10.95,1.22 17.7,0.47 25.42,-1.69c1.41,-0.36 -12.47,-30.74 -12.47,-30.74z"/>
   <path id="svg_67" fill="#263238" d="m243.65964,242.79518c0.49,-0.68 1,-1.35 1.5,-2a42.22,42.22 0 0 1 3.06,-3.84c1.09,-1.17 2.23,-2.29 3.4,-3.38s2.61,-2.17 3.81,-3.35a0.1,0.1 0 1 1 0.13,0.14a43.79,43.79 0 0 0 -3.42,3.65c-1.09,1.22 -2.16,2.45 -3.24,3.68s-2.17,2.33 -3.26,3.5c-0.54,0.59 -1,1.2 -1.57,1.8a13.6,13.6 0 0 1 -1.5,1.71a0.08,0.08 0 0 1 -0.11,-0.09a10.18,10.18 0 0 1 1.2,-1.82z"/>
   <path id="svg_68" fill="#263238" d="m235.40964,238.64518a66.6,66.6 0 0 1 5.53,-7.25a45.84,45.84 0 0 1 6.75,-6.16c0.09,-0.06 0.2,0.06 0.13,0.14c-2,2.28 -4.11,4.52 -6.18,6.77c-1,1.1 -5.45,6.23 -6,6.71c-0.13,0.12 -0.31,-0.06 -0.23,-0.21z"/>
   <path id="svg_69" fill="#263238" d="m251.31964,246.92518a64.56,64.56 0 0 1 5.32,-6.73a59.67,59.67 0 0 1 6.87,-5.4c0.09,0 0.21,0.06 0.13,0.14c-2.15,2 -4.32,3.92 -6.36,6c-1,1 -4.74,5.3 -5.78,6.19c-0.09,0.04 -0.24,-0.09 -0.18,-0.2z"/>
   <path id="svg_70" fill="#455a64" d="m312.18964,173.79518l-25.54,16.56s-18.95,-29.34 -23.86,-43.24s0.81,-13.93 14.22,-3.86s35.18,30.54 35.18,30.54z"/>
   <path id="svg_71" fill="#263238" d="m273.12964,140.51518l-12,0a7.7,7.7 0 0 1 0,-1.57l9.61,0c0.67,0.46 1.53,0.99 2.39,1.57zm5.62,4.1l-16.78,0c0.14,0.5 0.3,1 0.49,1.56l18.28,0l-1.99,-1.56zm7,5.66l-21.73,0c0.21,0.5 0.44,1 0.68,1.56l22.9,0c-0.62,-0.53 -1.19,-1.04 -1.86,-1.56l0.01,0zm6.65,5.67l-25.75,0l0.78,1.56l26.75,0l-1.78,-1.56zm6.43,5.66l-29.27,0c0.28,0.51 0.56,1 0.85,1.56l30.14,0l-1.72,-1.56zm6.27,5.66l-32.42,0l0.89,1.57l33.23,0l-1.7,-1.57zm6.15,5.67l-35.3,0c0.31,0.53 0.61,1.05 0.92,1.56l34.29,0l1,-0.67l-0.91,-0.89zm-31.92,5.66l0.94,1.56l22.14,0l2.4,-1.56l-25.48,0zm3.47,5.67l1,1.56l9.92,0l2.41,-1.56l-13.33,0zm3.57,5.66l0.29,0.46l0.71,-0.46l-1,0z"/>
   <path id="svg_72" fill="#263238" d="m306.40964,170.16518c-9.74,7.75 -19.36,13 -21.27,14.35c-0.09,0.06 -0.17,-0.09 -0.08,-0.15c1.94,-1.18 12.35,-8.84 21.25,-14.36c0.1,-0.07 0.17,0.09 0.1,0.16z"/>
   <path id="svg_73" fill="#263238" d="m288.28964,189.25518a12.81,12.81 0 0 0 -1.55,0.8c-2.84,-4.9 -5.9,-9.86 -8.79,-14.74l-4.24,-7.16c-1.46,-2.49 -2.8,-5.09 -4.4,-7.49a0.06,0.06 0 0 0 -0.11,0.06a76.2,76.2 0 0 0 3.48,6.94c-0.26,-0.34 -0.51,-0.7 -0.79,-1c-0.63,-0.75 -1.25,-1.5 -1.81,-2.3c-0.09,-0.12 -0.3,0 -0.21,0.12c0.54,0.76 1,1.55 1.51,2.35s1,1.56 1.55,2.33s1.09,1.44 1.66,2.13a2.56,2.56 0 0 0 0.2,0.26c0.78,1.43 1.54,2.86 2.35,4.27c2.84,4.93 9.29,14.86 9.38,14.83a13.18,13.18 0 0 0 1.85,-1.23c0.04,-0.09 0.04,-0.19 -0.08,-0.17z"/>
   <path id="svg_74" fill=" rgb(255, 196, 192)" d="m232.87964,141.79518c-27.22,14.14 -52.78,31.34 -57.58,43.29c-3,7.52 0.71,21.15 3.74,29.34c1.48,4 39.13,-11.54 36,-14.85c-7.74,-8.18 -9,-11.46 -8.15,-13.12c0.53,-1.06 30.32,-26.92 38.68,-38.58c11.66,-16.24 -0.78,-12.27 -12.69,-6.08z"/>
   <path id="svg_75" fill=" rgb(255, 196, 192)" d="m229.26964,236.50518c-3.56,2 -7.74,-7.19 -7.74,-7.19a7.5,7.5 0 0 1 -2.1,4.67c-2.26,2.12 -6.57,-0.5 -6.57,-0.5a9.31,9.31 0 0 1 -3,4.57c-2.37,1.81 -7.1,-0.2 -7.1,-0.2a8.11,8.11 0 0 1 -5.17,2.35c-5.22,0.16 -9.65,-6.47 -12.52,-10.65s-7.06,-18.75 -8.14,-21.44l26.71,-18.61s18.18,15.12 20.85,20.52c2.24,4.55 10.21,23.43 4.78,26.48z"/>
   <path id="svg_76" fill="#263238" d="m221.58964,229.18518c-1.18,-5.39 -3.75,-10.51 -6.18,-15.39c-0.06,-0.11 -0.23,0 -0.17,0.08c2.53,4.85 3.82,10.49 6.16,15.42a0.13,0.13 0 0 0 0.19,-0.11z"/>
   <path id="svg_77" fill="#263238" d="m213.14964,233.15518a14.64,14.64 0 0 0 -1.65,-3.4c-0.67,-1.16 -1.35,-2.31 -2.05,-3.46c-1.41,-2.28 -2.87,-4.53 -4.4,-6.74c-0.07,-0.1 -0.23,0 -0.17,0.09c1.4,2.28 2.77,4.58 4.07,6.91c0.65,1.17 1.29,2.35 1.93,3.52a17.14,17.14 0 0 0 1.94,3.25a0.19,0.19 0 0 0 0.33,-0.17z"/>
   <path id="svg_78" fill="#263238" d="m202.69964,237.79518a10.17,10.17 0 0 0 -1.64,-3c-0.67,-1 -1.32,-2.06 -2,-3.09c-1.31,-2.07 -2.61,-4.14 -3.84,-6.25a0.1,0.1 0 0 0 -0.17,0.09c1.24,2.15 2.45,4.32 3.71,6.46c0.62,1 1.24,2.1 1.87,3.15a9.34,9.34 0 0 0 1.94,2.7c0.08,0 0.15,-0.06 0.13,-0.06z"/>
   <path id="svg_79" fill="#00E77F" d="m193.55964,162.98518l19.93,19.55s26.21,-23.21 33.8,-35.85s2,-13.82 -13.17,-6.62s-40.56,22.92 -40.56,22.92z"/>
   <path id="svg_80" fill="#455a64" d="m193.55964,162.98518l19.93,19.55s26.21,-23.21 33.8,-35.85s2,-13.82 -13.17,-6.62s-40.56,22.92 -40.56,22.92z"/>
   <path id="svg_81" fill="#263238" d="m250.60964,138.94518a8.36,8.36 0 0 1 -0.35,1.57l-17.07,0l0.93,-0.45c0.84,-0.4 1.65,-0.77 2.43,-1.12l14.06,0zm-25.41,5.67l-2.88,1.56l25.27,0c0.32,-0.54 0.62,-1.07 0.89,-1.56l-23.28,0zm-10.2,5.66l-2.73,1.52l31.41,0c0.41,-0.53 0.8,-1 1.18,-1.56l-29.86,0.04zm-9.77,5.67l-2.61,1.56l36.29,0c0.46,-0.52 0.92,-1 1.36,-1.56l-35.04,0zm-9.42,5.66l-2.25,1.38l0.18,0.18l39.92,0l1.48,-1.56l-39.33,0zm2.11,5.66l1.6,1.57l28.55,0l1.57,-1.57l-31.72,0zm5.78,5.67l1.59,1.56l16.92,0l1.65,-1.56l-20.16,0zm5.77,5.66l1.59,1.56l5.07,0l1.7,-1.56l-8.36,0z"/>
   <path id="svg_82" fill="#263238" d="m217.62964,177.42518c-9.2,-7.82 -16,-15.95 -17.58,-17.51c-0.07,-0.08 0.06,-0.19 0.13,-0.11c1.48,1.62 10.71,10.09 17.6,17.5c0.08,0.09 -0.06,0.2 -0.15,0.12z"/>
   <path id="svg_83" fill="#263238" d="m235.25964,151.43518c-1,2.14 -2,4.27 -2.85,6.47c0,-0.15 0,-0.29 0,-0.44a28.33,28.33 0 0 1 0.61,-4c0,-0.15 -0.19,-0.22 -0.23,-0.07c-0.3,1.33 -0.57,2.68 -0.78,4c-0.11,0.65 -0.17,1.3 -0.22,1.95a2.12,2.12 0 0 1 0,0.24a0.19,0.19 0 0 0 0,0.08c-1,2.93 -1.58,5.93 -2.41,8.89a0.11,0.11 0 1 0 0.22,0.06c0.82,-2.9 2,-5.71 3,-8.54s1.86,-5.72 2.84,-8.57c0.03,-0.09 -0.14,-0.17 -0.18,-0.07z"/>
   <path id="svg_84" fill=" rgb(255, 196, 192)" d="m249.27964,149.10518c4.38,1.2 12.21,-5.26 15.4,-10.62c0.22,-0.37 -0.21,-4.34 -0.5,-9.19c-0.17,-3 -0.29,-6.23 -0.18,-9.23c0,-0.62 -19,3.88 -19,3.88a48,48 0 0 1 1.4,11.6a7.61,7.61 0 0 1 -0.18,1.22a1.18,1.18 0 0 0 0,0.21c-0.5,2.32 -1.17,10.96 3.06,12.13z"/>
   <path id="svg_85" fill="#263238" d="m262.83964,120.09518c-1.06,5 -4.67,17.2 -14.73,17a10.31,10.31 0 0 1 -1.92,-0.17a1.05,1.05 0 0 1 0,-0.21a7.61,7.61 0 0 0 0.18,-1.22a48.16,48.16 0 0 0 -1.4,-11.61s13.76,-3.19 17.87,-3.79z"/>
   <path id="svg_86" fill="#ff7f00" d="m243.84964,109.54518c0.09,4.61 -3.12,8.42 -7.17,8.49s-7.4,-3.59 -7.49,-8.21s3.12,-8.42 7.17,-8.5s7.4,3.6 7.49,8.22z"/>
   <ellipse transform="rotate(-1.1 0.309639 3.35518)" stroke="null" id="svg_87" fill="#c7c7c7" ry="9.3" rx="8.16" cy="114.50518" cx="235.97964"/>
   <path id="svg_88" fill=" rgb(255, 196, 192)" d="m262.58911,95.12518c3.11,6.26 2.81,25.88 -1.17,30.91c-5.77,7.29 -16.8,9.73 -23.4,2.44c-6.39,-7.08 -5.54,-32.64 -0.94,-37.37c6.76,-6.97 20.89,-5.22 25.51,4.02z"/>
   <path id="svg_89" fill="#263238" d="m247.56964,112.17518s0.1,0.06 0.1,0.12c-0.06,1.32 0.1,2.84 1.29,3.29c0,0 0,0.08 0,0.08c-1.46,-0.22 -1.65,-2.25 -1.39,-3.49z"/>
   <path id="svg_90" fill="#263238" d="m248.76964,110.79518c2.12,-0.14 2.24,4.13 0.27,4.26s-2.06,-4.13 -0.27,-4.26z"/>
   <path id="svg_91" fill="#263238" d="m240.17964,112.42518s-0.11,0.07 -0.1,0.12c0.08,1.32 -0.06,2.84 -1.24,3.32c0,0 0,0.08 0,0.07c1.47,-0.25 1.62,-2.27 1.34,-3.51z"/>
   <path id="svg_92" fill="#263238" d="m238.95964,111.07518c-2.13,-0.1 -2.18,4.17 -0.21,4.26s1.99,-4.17 0.21,-4.26z"/>
   <path id="svg_93" fill="#263238" d="m250.63964,107.37518a14.54,14.54 0 0 1 -1.74,-0.23a2.86,2.86 0 0 1 -1.73,-0.58a0.89,0.89 0 0 1 -0.08,-1.09a2.24,2.24 0 0 1 2.16,-0.69a3.25,3.25 0 0 1 2.15,1a1,1 0 0 1 -0.76,1.59z"/>
   <path id="svg_94" fill="#263238" d="m236.90964,108.02518c0.59,-0.12 1.11,-0.32 1.68,-0.49a2.85,2.85 0 0 0 1.62,-0.83a0.9,0.9 0 0 0 -0.08,-1.1a2.22,2.22 0 0 0 -2.24,-0.35a3.27,3.27 0 0 0 -2,1.31a1,1 0 0 0 1.02,1.46z"/>
   <path id="svg_95" fill="#263238" d="m250.12964,124.39518c-0.31,0.31 -0.62,0.75 -1.09,0.8a3.52,3.52 0 0 1 -1.43,-0.29s-0.09,0 -0.06,0.07a1.79,1.79 0 0 0 1.7,0.67a1.41,1.41 0 0 0 1,-1.2c0.02,-0.08 -0.08,-0.1 -0.12,-0.05z"/>
   <path id="svg_96" fill="#263238" d="m248.61964,120.47518a4.5,4.5 0 0 1 -2.94,2.09a5.85,5.85 0 0 1 -1.62,0.12a1.55,1.55 0 0 1 -0.31,0l-0.29,0a0.32,0.32 0 0 1 -0.27,-0.29l0,0a0.66,0.66 0 0 1 0,-0.14l0,0l0,-0.12c-0.05,-1 0,-2.56 0,-2.56c-0.36,0.19 -2.23,1.1 -2.22,0.57c0.14,-4.41 0.29,-9.31 1.36,-13.67a0.12,0.12 0 0 1 0.24,0c0,4.24 -0.67,8.46 -0.71,12.72a7.68,7.68 0 0 1 2.11,-0.7c0.14,0 -0.16,3 -0.1,3.44a0.18,0.18 0 0 0 0,0a6.23,6.23 0 0 0 4.62,-1.58c0.1,-0.07 0.21,0.01 0.13,0.12z"/>
   <path id="svg_97" fill="#263238" d="m244.64964,122.14518a5.34,5.34 0 0 0 2.18,1.6a2.41,2.41 0 0 0 1.46,0c1.05,-0.31 1.05,-1.28 0.83,-2.1a6,6 0 0 0 -0.51,-1.26a6.89,6.89 0 0 1 -3.96,1.76z"/>
   <path id="svg_98" fill="#ff98b9" d="m246.82964,123.79518a2.41,2.41 0 0 0 1.46,0c1.05,-0.31 1.05,-1.28 0.83,-2.1a2.49,2.49 0 0 0 -2.29,2.1z"/>
   <path id="svg_99" opacity="0.2" fill="#263238" d="m265.11964,109.04518c-1.28,-0.24 -4.24,-4.67 -5.51,-6.43s-1.77,-11.06 -1.84,-13.16a13.92,13.92 0 0 1 5.26,5.67c1.38,2.8 2.09,8.27 2.09,13.92z"/>
   <path id="svg_100" fill="#263238" d="m241.61964,96.68518a6.66,6.66 0 0 0 6.08,2.22a6.77,6.77 0 0 0 5.19,-4.11c0,-0.06 0.12,0 0.1,0a6.7,6.7 0 0 1 -5.2,4.57a6.84,6.84 0 0 1 -6.3,-2.64c-0.08,-0.02 0.06,-0.12 0.13,-0.04z"/>
   <path id="svg_101" fill="#263238" d="m248.40964,80.24518c3.85,0.07 7.39,2.18 8.82,4.79a7.47,7.47 0 0 1 0.75,4.85c0,0.07 -0.15,0.06 -0.14,0a8.19,8.19 0 0 0 -3.9,-7.37a10.53,10.53 0 0 0 -9.34,-1.07a6.74,6.74 0 0 0 -3.57,2.9c-0.07,0.14 -0.36,0 -0.3,-0.1c1.02,-2.45 4.18,-4.05 7.68,-4z"/>
   <path id="svg_102" fill="#263238" d="m226.08964,88.72518a8.45,8.45 0 0 1 3.59,-4.59c2.35,-1.47 5,-1.27 7.67,-1c0.08,0 0.07,0.12 0,0.11c-2.26,-0.21 -4.56,-0.29 -6.63,0.79a8.28,8.28 0 0 0 -3.84,4.08a8.13,8.13 0 0 0 3.43,10.08a8.25,8.25 0 0 0 6.52,0.63c0.08,0 0.14,0.09 0.06,0.13a8.3,8.3 0 0 1 -10.8,-10.21l0,-0.02z"/>
   <path id="svg_103" fill="#263238" d="m264.32964,98.94518s3.58,-6.92 0.49,-10.88c-1.76,-2.24 -7.5,-1.88 -7.5,-1.88a10.38,10.38 0 0 0 -6.66,-4.33c-4.82,-1 -10.51,1.82 -10.51,1.82s-4.59,-2.57 -8.84,-0.08c-5.93,3.47 -5.09,12.55 0.94,15.41c4.24,2 9.93,-1.79 9.93,-1.79c0.55,0.07 6.22,3.41 10.43,-1.66c0,0 3.49,3 6.58,0.85a5,5 0 0 0 5.14,2.54z"/>
   <path id="svg_104" fill=" rgb(255, 196, 192)" d="m261.54964,111.32518s3.41,-6.81 6.44,-5.68s1.09,10.56 -2,12.27a3.38,3.38 0 0 1 -4.75,-1.14l0.31,-5.45z"/>
   <path id="svg_105" fill="#263238" d="m267.40964,108.33518c0.05,0 0.07,0.06 0,0.09c-2.17,1.27 -3.07,3.59 -3.6,5.93a1.87,1.87 0 0 1 2.69,-0.91c0.07,0 0,0.14 0,0.13a2.08,2.08 0 0 0 -2.16,1a9.82,9.82 0 0 0 -0.82,2c-0.08,0.23 -0.47,0.17 -0.42,-0.08l0,0c-0.53,-2.95 1.15,-7.4 4.31,-8.16z"/>
   <polygon id="svg_106" fill="#c7c7c7" points="254.11964535713196,124.9751809835434 260.339631319046,122.48518311977386 265.44964718818665,116.45518434047699 264.51962399482727,115.66518342494965 259.609650850296,121.46517884731293 253.6696331501007,123.84518373012543 254.11964535713196,124.9751809835434 "/>
   <path id="svg_107" fill="#37474f" d="m254.79964,124.01518c-0.55,-1.81 -5.59,-1.28 -4.75,1.46s5.36,0.32 4.75,-1.46z"/>
   <path id="svg_108" fill="#c7c7c7" d="m268.08964,105.46518s0.93,-10.06 -1.87,-15.69c-3.13,-6.27 -16.59,-12.51 -26.07,-6.1c0,0 15.24,-2.32 22.07,6.44c2.88,3.69 2.5,15.53 2.5,15.53l3.37,-0.18z"/>
   <ellipse transform="rotate(-87.94 145.45 370.675)" id="svg_109" fill="#c7c7c7" ry="8.16" rx="9.3" cy="482.48519" cx="409.70963"/>
   <path id="svg_110" fill="#ff7f00" d="m260.90964,110.10518c-0.17,4.61 3,8.47 7,8.61s7.47,-3.47 7.63,-8.08s-3,-8.47 -7,-8.62s-7.47,3.48 -7.63,8.09z"/>
   <path id="svg_111" fill="#263238" d="m266.95964,139.87518a87.88,87.88 0 0 1 -6.58,7.31c-2.25,2.1 -5,4 -8,4.3s-6,-0.28 -7.11,-3.92c-0.9,-2.89 -0.78,-5.87 -0.3,-9.59a0.11,0.11 0 1 0 -0.22,0c-0.64,4.78 -1.28,12.19 3.07,13.8c4.88,1.81 9.62,-0.74 13,-4.12a45.8,45.8 0 0 0 6.26,-7.67c0,-0.09 -0.08,-0.19 -0.12,-0.11z"/>
  </g>
  <g id="freepik--Device--inject-45">
   <rect id="svg_112" fill="#c7c7c7" height="3.99" width="88.93" y="250.56" x="200.68"/>
   <polygon id="svg_113" fill="#a6a6a6" points="270.57 250.56 273.62 254.55 200.68 254.55 200.68 250.56 270.57 250.56"/>
   <polygon id="svg_114" fill="#c7c7c7" points="266.77 254.55 180.1 254.55 172.89 195.69 259.56 195.69 266.77 254.55"/>
   <path id="svg_115" fill="#fff" d="m225.11,225.12a5.17,5.17 0 0 1 -5.19,5.27a5.38,5.38 0 0 1 -5.36,-5.27a5.15,5.15 0 0 1 5.18,-5.28a5.4,5.4 0 0 1 5.37,5.28z"/>
  </g>
  <g id="freepik--Table--inject-45">
   <rect id="svg_116" fill="#455a64" height="11.88" width="92.72" y="262.33" x="373.51"/>
   <rect id="svg_117" fill="#37474f" height="3.71" width="87.49" y="274.21" x="376.12"/>
   <rect id="svg_118" fill="#455a64" height="3.71" width="62.5" y="364.54" x="388.62"/>
   <polygon id="svg_119" fill="#455a64" points="386.59 419.08 381.96 419.08 381.96 277.92 394.59 277.92 386.59 419.08"/>
   <polygon id="svg_120" fill="#263238" points="394.59 277.92 394.12 286.27 381.96 286.27 381.96 277.92 394.59 277.92"/>
   <polygon id="svg_121" fill="#455a64" points="453.14 419.08 457.78 419.08 457.78 277.92 445.14 277.92 453.14 419.08"/>
   <polygon id="svg_122" fill="#263238" points="445.14 277.92 445.62 286.27 457.77 286.27 457.77 277.92 445.14 277.92"/>
  </g>
 </g>
</svg>