<svg width="500" height="500" xmlns="http://www.w3.org/2000/svg">
 <g>
  <title>Layer 1</title>
  <g id="freepik--character-2--inject-161">
   <path d="m350.23,112.57c2.79,0.3 14.87,-1.36 23.18,9.48c7.86,10.26 11.21,41.89 13,48.75s10.86,7.72 13.16,15.69c2,6.86 -3,9.5 -3.39,14.57c-0.32,3.93 3.75,9.73 0.29,15.61c-3.14,5.34 -8.89,4.35 -12.31,6.07s-5.41,9.78 -11.77,12.07s-12.13,-3.42 -15.53,-3.32s-7.2,10.61 -18.3,9.93s-14.5,-10 -19.11,-11.74s-16,1.68 -21.4,-3.93s-6.43,-13.22 -8.85,-16s-7.34,-2.21 -10.42,-8.65s2.89,-10.69 3.62,-16.35c0.51,-3.94 -3.05,-7.48 -0.73,-13.53c3.21,-8.33 13.34,-6.78 17,-15.33c2.88,-6.71 8.52,-35.74 25.83,-43.22c11.96,-5.15 25.73,-0.1 25.73,-0.1z" fill="#263238" id="svg_1"/>
   <path d="m386,169.15a9.93,9.93 0 0 0 3,3.65l3.68,3a30.24,30.24 0 0 1 6.52,6.61a9.58,9.58 0 0 1 1.24,8.39a14.59,14.59 0 0 1 -2.23,3.9a16.78,16.78 0 0 0 -2.65,4.26a8.12,8.12 0 0 0 0.56,5.2c0.54,1.53 1.15,3 1.61,4.45c1,2.91 1.24,6 -0.11,8.69a6.44,6.44 0 0 1 -3,3a11.65,11.65 0 0 1 -4.4,1.05c-1.55,0.15 -3.14,0.13 -4.73,0.19s-3.31,0.16 -4.6,1.14a8.47,8.47 0 0 1 4.59,-0.66c1.58,0.08 3.17,0.23 4.78,0.22a12.67,12.67 0 0 0 4.85,-0.9a7.81,7.81 0 0 0 3.72,-3.44c1.8,-3 1.39,-6.77 0.45,-9.81c-0.46,-1.57 -1.06,-3.07 -1.55,-4.53s-0.89,-2.91 -0.48,-4.08c0.9,-2.55 3.71,-4.87 4.72,-8.18a10.67,10.67 0 0 0 -1.65,-9.71a30.25,30.25 0 0 0 -7.14,-6.53l-3.91,-2.71a10.78,10.78 0 0 1 -3.27,-3.2z" fill="#263238" id="svg_2"/>
   <path d="m308.69,129.32c-2.92,4.93 -4.68,10.4 -6.95,15.57c-1.14,2.59 -2.18,5.22 -3.5,7.68a18.46,18.46 0 0 1 -2.24,3.43a2.72,2.72 0 0 1 -0.64,0.63a3,3 0 0 1 -0.75,0.52c-0.59,0.33 -1.22,0.62 -1.85,0.91a79.72,79.72 0 0 0 -7.72,3.79a14.5,14.5 0 0 0 -6.11,6.38a9.09,9.09 0 0 0 -0.8,4.46a11.57,11.57 0 0 0 1.39,4.2c1.38,2.5 2.68,5 2.82,7.9c0.29,-2.89 -0.92,-5.7 -2,-8.27a10.8,10.8 0 0 1 -1.05,-3.91a7.69,7.69 0 0 1 0.91,-3.79a14.15,14.15 0 0 1 5.69,-5.55a80.06,80.06 0 0 1 7.64,-3.56c0.66,-0.32 1.31,-0.64 2,-1a6.39,6.39 0 0 0 1.83,-1.57a20.26,20.26 0 0 0 2.36,-3.78a69.32,69.32 0 0 0 3.28,-7.96l2.77,-8.07a72.74,72.74 0 0 1 2.92,-8.01z" fill="#263238" id="svg_3"/>
   <path d="m286.43,207.9c1.25,1.61 1.45,3.73 1.95,5.67s0.94,4 1.51,6a30.12,30.12 0 0 0 2.26,5.81a13.41,13.41 0 0 0 4.16,4.95c3.93,2.4 8.52,2 12.48,1.2c2,-0.42 4,-0.94 6,-1.3a12.51,12.51 0 0 1 6,-0.1a11.76,11.76 0 0 0 -6.08,-0.79c-2.06,0.2 -4.07,0.57 -6.07,0.81c-3.92,0.5 -8.11,0.65 -11.25,-1.34a12.15,12.15 0 0 1 -3.66,-4.25a38,38 0 0 1 -2.44,-5.43c-0.71,-1.88 -1.33,-3.82 -2,-5.75c-0.34,-1 -0.7,-1.93 -1.1,-2.88a5.92,5.92 0 0 0 -1.76,-2.6z" fill="#263238" id="svg_4"/>
   <path d="m407.36,346.74s-24,88.15 -29.77,101.16l-93,0c16.07,-42 33.06,-97.07 33.55,-100.89c0,-0.18 0,-0.27 0,-0.27l89.22,0z" fill="#37474f" id="svg_5"/>
   <path d="m394.32,358.47c-0.58,7.15 -26.61,83.28 -28.8,89.43l-1.34,0s28.27,-84.21 29.79,-89.43c0.03,-0.22 0.38,-0.22 0.35,0z" fill="#263238" id="svg_6"/>
   <path d="m331,346.73l12,79.14l0.43,2.69l0,0l1.06,7.15l0.08,0.51l0.29,1.91l0,0l1.47,9.74l31.24,0c5.78,-13 29.77,-101.17 29.77,-101.17l-76.34,0.03z" fill="#263238" id="svg_7"/>
   <path d="m454,447.9l-88,0c0,-0.38 -0.05,-0.67 -0.06,-0.92s-0.06,-0.6 -0.06,-0.6c-0.49,-0.27 -1,-0.54 -1.48,-0.8c-5.18,-2.82 -9.72,-5 -13.46,-6.68c-0.64,-0.28 -1.25,-0.55 -1.84,-0.83c-1.7,-0.73 -3.22,-1.35 -4.48,-1.84c-3.24,-1.29 -5,-1.86 -5,-1.86c-0.11,-0.27 -0.2,-0.53 -0.3,-0.8c-12.76,-32.47 -20.44,-81.95 -21.16,-86.56c0,-0.25 0,-0.35 0,-0.35l125.65,0c7.48,23.41 22.49,66.45 10.19,101.24z" fill="#37474f" id="svg_8"/>
   <path d="m335.06,432.05c10.66,3.67 20.95,8.88 30.79,14.34a0.34,0.34 0 0 1 -0.28,0.63c-10.38,-4.45 -21,-8.71 -31.07,-13.73a0.68,0.68 0 0 1 0.56,-1.24z" fill="#263238" id="svg_9"/>
   <path d="m331.76,360.86c0,-0.36 0.66,-0.44 0.66,-0.05a343.63,343.63 0 0 0 1.74,34.66c0.48,5.35 4.78,34.88 14,32.73c1.55,-0.37 2.35,-1.89 2.59,-4.23c0.29,-2.81 -0.77,-6.26 -1.23,-9.06c-1,-6.18 -1.86,-12.38 -2.39,-18.63a169.21,169.21 0 0 1 0.38,-34.93a0.3,0.3 0 0 1 0.6,0c0,16.14 0.41,32.24 2.82,48.23c1.16,7.68 5,19.24 -3,20.43s-13.47,-18.17 -14.47,-23.47c-2.76,-14.76 -2.87,-30.72 -1.7,-45.68z" fill="#263238" id="svg_10"/>
   <path d="m348,429a50.67,50.67 0 0 1 2.08,6.12a13.85,13.85 0 0 1 0.87,5a0.36,0.36 0 0 1 -0.64,0.14c-1.09,-1.38 -1.55,-3.26 -2.16,-4.9c-0.7,-1.89 -1.45,-3.77 -2.1,-5.68a1,1 0 0 1 1.95,-0.68z" fill="#263238" id="svg_11"/>
   <path d="m389.89,370.52a16.33,16.33 0 0 1 0.39,-3.83a0.2,0.2 0 0 1 0.38,0a15.24,15.24 0 0 1 0.43,3.31c0.13,1.27 0.3,2.54 0.43,3.81a57.32,57.32 0 0 0 1.36,7.71a27.42,27.42 0 0 0 7.12,12.73a37,37 0 0 0 12,7.88c5,2.11 10.22,2.89 15.36,4.4a0.2,0.2 0 0 1 -0.06,0.38a44.2,44.2 0 0 1 -16.63,-3.27a35.45,35.45 0 0 1 -12.48,-8a27.91,27.91 0 0 1 -7.28,-13.08a39.54,39.54 0 0 1 -1,-7.74a34.9,34.9 0 0 1 -0.02,-4.3z" fill="#263238" id="svg_12"/>
   <path d="m441.67,447.9c5.86,-24.89 3.79,-52.31 -1.36,-77.18c-1.12,-5.7 -2.77,-11.9 -4.13,-17.53c1.31,3.79 2.65,7.58 3.82,11.42c7.52,26 10.5,57.3 1.67,83.29z" fill="#263238" id="svg_13"/>
   <path d="m354.46,230.59c-15.76,28.36 -45.88,80.18 -67,85.63c-20.25,5.24 -61.3,-28 -95.24,-48.6c-6.75,-4.1 37.21,-46.7 44.19,-42c18.24,12.4 39.84,32.33 44.66,31.11c3.94,-1 32.72,-25.73 51.12,-40c29.32,-22.64 33.37,-6.09 22.27,13.86z" fill=" rgb(255, 196, 192)" id="svg_14"/>
   <path d="m192.23,267.62c-5.83,-3.6 -31.1,-22.43 -37,-29.24s-21.23,-27.65 -16.5,-32.67s9.77,0.72 9.77,0.72s-5.13,-9.82 0.12,-14.44s12.76,4.57 12.76,4.57s-4.53,-10.48 1,-14.71s11.62,6.27 11.62,6.27s-4.59,-9.39 1.47,-10.94c7.28,-1.87 13.78,16.4 20.82,23.43c1.6,1.6 34.68,30.09 34.68,30.09l-38.74,36.92z" fill=" rgb(255, 196, 192)" id="svg_15"/>
   <path d="m173.45,187.23c4.81,13.42 9.24,18.46 20.3,27.1a0.22,0.22 0 0 1 -0.23,0.37c-11.6,-7.48 -18.06,-13 -20.73,-27.27c-0.13,-0.7 0.43,-0.84 0.66,-0.2z" fill="#263238" id="svg_16"/>
   <path d="m161,195.49c6.22,13.5 11,19 21.89,28.9c0.16,0.14 -0.06,0.42 -0.23,0.29c-11.52,-8.82 -17.85,-14.47 -22.29,-28.77c-0.19,-0.65 0.36,-1.04 0.63,-0.42z" fill="#263238" id="svg_17"/>
   <path d="m149.07,206.92c7,12.64 11.92,18.9 23.75,27.15a0.27,0.27 0 0 1 -0.28,0.45c-12.88,-7.24 -19.12,-15 -23.83,-27.35c-0.32,-0.84 -0.08,-1.04 0.36,-0.25z" fill="#263238" id="svg_18"/>
   <polygon points="108.28 150.46 167.31 154.38 214.36 131.61 255.08 199.38 207.44 216.88 208.14 218.71 198.19 221.12 197.33 219.53 144.75 216.86 108.28 150.46" fill="#455a64" id="svg_19"/>
   <path d="m200.49,217.61s17.32,-8.43 32.18,-13c7,-2.16 15.61,-5.81 15.61,-5.81l0.06,-4.58s-34.34,6.45 -47.85,23.39z" fill="#ebebeb" id="svg_20"/>
   <path d="m166.42,152.68s6.2,-8.63 20.58,-12.88c6.54,-1.94 16.79,-2.25 24.93,-8.54l36.41,63s-30.9,7.24 -47.85,23.39l-34.07,-64.97z" fill="#fff" id="svg_21"/>
   <path d="m166.42,152.68c5.42,-6.65 13.34,-10.91 21.5,-13.23c4.15,-1.08 8.39,-1.66 12.48,-2.84a33.27,33.27 0 0 0 11.6,-5.61c0.1,0 36.49,63 36.59,63.05l0.16,0.29l-0.32,0.08c-4.33,1.08 -8.61,2.41 -12.84,3.88c-12.57,4.49 -25,10.29 -34.94,19.4l-0.18,0.17c-0.14,0 -33.88,-65.13 -34,-65.23l-0.05,0.04zm0,0c-0.12,0 34.93,65.41 34,64.8a75.1,75.1 0 0 1 10.7,-8.17a126.77,126.77 0 0 1 24.34,-11.41c4.23,-1.49 8.51,-2.84 12.88,-3.92l-0.16,0.36c0.08,0 -36.88,-63.43 -36.11,-63c-6.89,5.4 -15.8,6.38 -24.05,8.26c-8.16,2.25 -16.09,6.44 -21.55,13l-0.05,0.08z" fill="#ebebeb" id="svg_22"/>
   <path d="m200.49,217.61l-34.07,-64.93s-33.18,-10 -45,-7.91l-11.42,4.44l36.42,65.52l54.07,2.88z" fill="#fff" id="svg_23"/>
   <path d="m200.49,217.61s-34.49,-65.19 -34.12,-64.76a237.67,237.67 0 0 0 -33.53,-7.58a44.19,44.19 0 0 0 -11.37,-0.27c0.19,-0.1 -11.43,4.48 -11.4,4.44l0.12,-0.35l36.34,65.57c-0.66,-0.14 54.09,3 54,3l-0.04,-0.05zm0,0l-54.18,-2.73c-0.2,-0.46 -36.5,-65.39 -36.69,-65.8l0.27,-0.1l11.48,-4.44a45,45 0 0 1 11.53,0.29a240.06,240.06 0 0 1 33.58,7.68c0.24,0 33.86,65 34,65.1l0.01,0z" fill="#ebebeb" id="svg_24"/>
   <path d="m121.43,144.77l33.21,64.71s31.16,3.12 45.85,8.13l-54.09,-2.88l-36.4,-65.52l11.43,-4.44z" fill="#ebebeb" id="svg_25"/>
   <path d="m166.42,152.68q4.46,8 8.8,16.09l8.6,16.19l8.43,16.28q4.19,8.14 8.24,16.37q-4.45,-8 -8.79,-16.09l-8.6,-16.19l-8.43,-16.27q-4.18,-8.16 -8.25,-16.38z" fill="#dbdbdb" id="svg_26"/>
   <path d="m173.85,156.24a44.27,44.27 0 0 1 8.19,-5.7a51,51 0 0 1 9.18,-3.95c3.19,-1 6.42,-1.79 9.65,-2.61c1.61,-0.41 3.22,-0.82 4.82,-1.27a35.39,35.39 0 0 0 4.74,-1.53a62.62,62.62 0 0 1 -9.5,3.06c-3.21,0.86 -6.43,1.71 -9.58,2.74a51.1,51.1 0 0 0 -9.19,3.79a54.43,54.43 0 0 0 -8.31,5.47z" fill="#263238" id="svg_27"/>
   <path d="m202.75,146.39c2.94,-1.08 6,-1.79 8.91,-2.77a19.94,19.94 0 0 1 -4.35,1.73a41.26,41.26 0 0 1 -4.56,1.04z" fill="#263238" id="svg_28"/>
   <path d="m175.08,158.68a37.62,37.62 0 0 1 5.34,-4a51.56,51.56 0 0 1 5.87,-3.25a67.58,67.58 0 0 1 12.76,-4c-2.13,0.65 -4.27,1.29 -6.39,2a60.54,60.54 0 0 0 -12.1,5.55a57.59,57.59 0 0 0 -5.48,3.7z" fill="#263238" id="svg_29"/>
   <path d="m176.31,161.12a44.27,44.27 0 0 1 8.19,-5.7a51,51 0 0 1 9.18,-3.95c3.19,-1 6.42,-1.79 9.65,-2.61c1.61,-0.41 3.22,-0.82 4.82,-1.27a35.39,35.39 0 0 0 4.74,-1.53a62.62,62.62 0 0 1 -9.5,3.06c-3.21,0.86 -6.43,1.71 -9.58,2.74a51.1,51.1 0 0 0 -9.19,3.79a54.43,54.43 0 0 0 -8.31,5.47z" fill="#263238" id="svg_30"/>
   <path d="m177.54,163.56a44.27,44.27 0 0 1 8.19,-5.7a51,51 0 0 1 9.18,-4c3.19,-1 6.42,-1.79 9.65,-2.61c1.61,-0.41 3.22,-0.82 4.82,-1.27a35.39,35.39 0 0 0 4.74,-1.53a62.86,62.86 0 0 1 -9.49,3.06c-3.22,0.86 -6.44,1.71 -9.59,2.74a51.1,51.1 0 0 0 -9.19,3.79a54.43,54.43 0 0 0 -8.31,5.52z" fill="#263238" id="svg_31"/>
   <path d="m192.71,157.77q2.78,-1 5.58,-2c1.86,-0.67 3.79,-1.11 5.69,-1.65l5.73,-1.47a50.29,50.29 0 0 0 5.64,-1.73a35.2,35.2 0 0 1 -5.56,2c-1.89,0.56 -3.81,1.05 -5.71,1.56s-3.83,1 -5.7,1.56s-3.77,1.19 -5.67,1.73z" fill="#263238" id="svg_32"/>
   <path d="m178.77,166a32,32 0 0 1 5.52,-4.24c1,-0.6 2,-1.19 3.05,-1.7a34.57,34.57 0 0 1 3.19,-1.39a87.53,87.53 0 0 0 -11.76,7.33z" fill="#263238" id="svg_33"/>
   <path d="m180,168.45a43.85,43.85 0 0 1 8.19,-5.71a51,51 0 0 1 9.18,-4c3.19,-1 6.42,-1.79 9.65,-2.61c1.61,-0.41 3.22,-0.82 4.82,-1.27a36,36 0 0 0 4.75,-1.53a63.35,63.35 0 0 1 -9.5,3.06c-3.22,0.86 -6.44,1.71 -9.59,2.74a51.1,51.1 0 0 0 -9.19,3.79a53.75,53.75 0 0 0 -8.31,5.53z" fill="#263238" id="svg_34"/>
   <path d="m182.46,173.33a43.85,43.85 0 0 1 8.19,-5.71a50.09,50.09 0 0 1 9.19,-3.94c3.18,-1 6.41,-1.8 9.64,-2.62c1.61,-0.41 3.22,-0.82 4.82,-1.27a36,36 0 0 0 4.75,-1.53a63.35,63.35 0 0 1 -9.5,3.06c-3.22,0.86 -6.44,1.71 -9.59,2.74a50.7,50.7 0 0 0 -9.18,3.79a53.37,53.37 0 0 0 -8.32,5.48z" fill="#263238" id="svg_35"/>
   <path d="m201.75,166.11c1.68,-0.63 3.4,-1.12 5.11,-1.61s3.46,-0.91 5.22,-1.22c-1.68,0.63 -3.39,1.11 -5.11,1.61s-3.45,0.9 -5.22,1.22z" fill="#263238" id="svg_36"/>
   <path d="m183.69,175.77a35.31,35.31 0 0 1 6.54,-4.85c1.18,-0.67 2.37,-1.33 3.61,-1.89a36.4,36.4 0 0 1 3.79,-1.5a79,79 0 0 0 -7.2,3.73c-1.17,0.67 -2.31,1.41 -3.43,2.15s-2.24,1.52 -3.31,2.36z" fill="#263238" id="svg_37"/>
   <path d="m184.92,178.21a43.85,43.85 0 0 1 8.19,-5.71a50.09,50.09 0 0 1 9.19,-3.94c3.18,-1 6.41,-1.8 9.64,-2.62c1.61,-0.41 3.22,-0.82 4.82,-1.27a36,36 0 0 0 4.75,-1.53a63.35,63.35 0 0 1 -9.5,3.06c-3.22,0.86 -6.44,1.71 -9.59,2.74a50.7,50.7 0 0 0 -9.18,3.79a53.37,53.37 0 0 0 -8.32,5.48z" fill="#263238" id="svg_38"/>
   <path d="m187.38,183.09a43.85,43.85 0 0 1 8.19,-5.71a50.09,50.09 0 0 1 9.19,-3.94c3.18,-1 6.42,-1.8 9.64,-2.62c1.61,-0.41 3.22,-0.82 4.82,-1.27a36,36 0 0 0 4.78,-1.55a63.35,63.35 0 0 1 -9.5,3.06c-3.22,0.87 -6.44,1.71 -9.59,2.74a50,50 0 0 0 -9.18,3.8a52.6,52.6 0 0 0 -8.35,5.49z" fill="#263238" id="svg_39"/>
   <path d="m188.61,185.53a43.85,43.85 0 0 1 8.19,-5.71a51.09,51.09 0 0 1 9.19,-3.94c3.18,-1 6.42,-1.8 9.64,-2.62c1.61,-0.41 3.22,-0.82 4.82,-1.27a36,36 0 0 0 4.75,-1.53a62.22,62.22 0 0 1 -9.5,3.06c-3.22,0.87 -6.44,1.71 -9.59,2.74a50,50 0 0 0 -9.18,3.8a52.6,52.6 0 0 0 -8.32,5.47z" fill="#263238" id="svg_40"/>
   <path d="m215.15,179.05c2.06,-0.72 4.17,-1.27 6.26,-1.86l3.14,-0.86c1,-0.31 2.08,-0.61 3.11,-1a31.21,31.21 0 0 1 -6.15,2.24c-2.1,0.56 -4.22,1.08 -6.36,1.48z" fill="#263238" id="svg_41"/>
   <path d="m202,183.47c0.87,-0.45 1.74,-0.89 2.63,-1.3s1.81,-0.73 2.73,-1.06a46,46 0 0 1 5.65,-1.48c-1.83,0.68 -3.69,1.23 -5.52,1.86s-3.65,1.36 -5.49,1.98z" fill="#263238" id="svg_42"/>
   <path d="m191.07,190.41a23.49,23.49 0 0 1 3.6,-3c0.66,-0.42 1.31,-0.85 2,-1.23a22.67,22.67 0 0 1 2.09,-1.05c-2.58,1.77 -5.15,3.46 -7.69,5.28z" fill="#263238" id="svg_43"/>
   <path d="m218,181.07c1.8,-0.64 3.64,-1.13 5.46,-1.66l2.73,-0.77c0.91,-0.27 1.82,-0.53 2.72,-0.86a27,27 0 0 1 -5.35,2c-1.85,0.51 -3.7,0.97 -5.56,1.29z" fill="#263238" id="svg_44"/>
   <path d="m192.3,192.85a35.78,35.78 0 0 1 5.1,-3.89a52.83,52.83 0 0 1 5.6,-3.16a61.48,61.48 0 0 1 12.17,-4c-2,0.64 -4.08,1.26 -6.1,1.93a49.7,49.7 0 0 0 -5.9,2.42a54.19,54.19 0 0 0 -5.62,3a59.3,59.3 0 0 0 -5.25,3.7z" fill="#263238" id="svg_45"/>
   <path d="m193.53,195.29a43.85,43.85 0 0 1 8.19,-5.71a51.09,51.09 0 0 1 9.19,-3.94c3.18,-1 6.42,-1.8 9.64,-2.62c1.61,-0.41 3.22,-0.82 4.82,-1.27a36,36 0 0 0 4.75,-1.53a62.22,62.22 0 0 1 -9.5,3.06c-3.22,0.87 -6.43,1.71 -9.59,2.74a50.74,50.74 0 0 0 -9.18,3.8a53.78,53.78 0 0 0 -8.32,5.47z" fill="#263238" id="svg_46"/>
   <path d="m208.7,189.49a82.65,82.65 0 0 1 11.3,-3.63l5.73,-1.47a51.11,51.11 0 0 0 5.65,-1.73c-3.59,1.69 -7.49,2.53 -11.28,3.59l-5.71,1.52c-1.93,0.53 -3.83,1.07 -5.69,1.72z" fill="#263238" id="svg_47"/>
   <path d="m194.76,197.73a32.06,32.06 0 0 1 5.31,-4.11c1,-0.57 1.92,-1.15 2.93,-1.65a32.49,32.49 0 0 1 3.07,-1.36a92.65,92.65 0 0 0 -11.31,7.12z" fill="#263238" id="svg_48"/>
   <path d="m196,200.17a43.85,43.85 0 0 1 8.19,-5.71a51.09,51.09 0 0 1 9.19,-3.94c3.18,-1 6.42,-1.8 9.64,-2.62c1.61,-0.41 3.22,-0.82 4.83,-1.27a36.35,36.35 0 0 0 4.74,-1.53a62.22,62.22 0 0 1 -9.5,3.06c-3.21,0.87 -6.43,1.71 -9.59,2.74a50.74,50.74 0 0 0 -9.18,3.8a53.78,53.78 0 0 0 -8.32,5.47z" fill="#263238" id="svg_49"/>
   <path d="m197.22,202.61a36.62,36.62 0 0 1 4.85,-3.74a53.88,53.88 0 0 1 5.32,-3.06a35.37,35.37 0 0 1 5.72,-2.2c1.94,-0.62 3.9,-1.19 5.87,-1.73q-2.88,1 -5.78,2a35.52,35.52 0 0 0 -5.64,2.31a52.22,52.22 0 0 0 -5.34,2.93a57.56,57.56 0 0 0 -5,3.49z" fill="#263238" id="svg_50"/>
   <path d="m130.89,150.94c5.6,0.38 11.16,1.21 16.7,2.09q4.14,0.75 8.25,1.66c2.75,0.57 5.46,1.29 8.16,2.05c-2.74,-0.61 -5.47,-1.23 -8.22,-1.79s-5.5,-1.07 -8.26,-1.52s-5.52,-1 -8.3,-1.36s-5.55,-0.79 -8.33,-1.13z" fill="#263238" id="svg_51"/>
   <path d="m150.73,155.74c1.22,0.15 2.44,0.31 3.64,0.57l3.61,0.77c2.39,0.56 4.79,1.11 7.15,1.81c-2.44,-0.37 -4.84,-0.9 -7.24,-1.42s-4.77,-1.16 -7.16,-1.73z" fill="#263238" id="svg_52"/>
   <path d="m132,153.08c2.6,0.09 5.18,0.39 7.75,0.71s5.13,0.78 7.66,1.37c-2.59,-0.26 -5.15,-0.64 -7.72,-1s-5.11,-0.66 -7.69,-1.08z" fill="#263238" id="svg_53"/>
   <path d="m133.15,155.23c4.23,0.24 8.42,0.84 12.6,1.42s8.34,1.44 12.45,2.48c-4.18,-0.7 -8.32,-1.5 -12.51,-2.08s-8.35,-1.24 -12.54,-1.82z" fill="#263238" id="svg_54"/>
   <path d="m134.28,157.38c5.6,0.38 11.15,1.21 16.69,2.09q4.16,0.75 8.26,1.66c2.74,0.58 5.46,1.29 8.15,2.06c-2.73,-0.62 -5.46,-1.24 -8.21,-1.8s-5.5,-1.07 -8.27,-1.52s-5.52,-1 -8.29,-1.36s-5.55,-0.78 -8.33,-1.13z" fill="#263238" id="svg_55"/>
   <path d="m159.17,163.16c1.59,0.2 3.15,0.55 4.72,0.89s3.11,0.76 4.62,1.29c-1.6,-0.2 -3.15,-0.56 -4.72,-0.9s-3.1,-0.75 -4.62,-1.28z" fill="#263238" id="svg_56"/>
   <path d="m135.41,159.53c3.47,0.17 6.92,0.6 10.35,1.08s6.86,1.11 10.24,1.92c-6.87,-1.02 -13.72,-2.04 -20.59,-3z" fill="#263238" id="svg_57"/>
   <path d="m161.62,167.5c1.56,0.19 3.09,0.53 4.62,0.87s3,0.74 4.53,1.26c-1.57,-0.19 -3.09,-0.54 -4.62,-0.87s-3.04,-0.76 -4.53,-1.26z" fill="#263238" id="svg_58"/>
   <path d="m152.5,165.8a32.64,32.64 0 0 1 3.69,0.47a29.77,29.77 0 0 1 3.62,0.86a32.36,32.36 0 0 1 -3.69,-0.47a30.22,30.22 0 0 1 -3.62,-0.86z" fill="#263238" id="svg_59"/>
   <path d="m137.66,163.82c1.81,0.06 3.6,0.27 5.39,0.47s3.57,0.48 5.33,0.87c-1.81,-0.06 -3.6,-0.27 -5.38,-0.47s-3.56,-0.48 -5.34,-0.87z" fill="#263238" id="svg_60"/>
   <path d="m138.79,166c5.6,0.38 11.16,1.21 16.7,2.1q4.14,0.74 8.25,1.65c2.75,0.58 5.46,1.29 8.16,2.06c-2.74,-0.61 -5.47,-1.24 -8.21,-1.8s-5.51,-1.07 -8.27,-1.52s-5.52,-1 -8.29,-1.36s-5.55,-0.81 -8.34,-1.13z" fill="#263238" id="svg_61"/>
   <path d="m139.92,168.12c5.6,0.38 11.16,1.21 16.7,2.09q4.14,0.75 8.25,1.66c2.75,0.57 5.46,1.29 8.16,2.06c-2.74,-0.62 -5.47,-1.24 -8.22,-1.8s-5.5,-1.07 -8.26,-1.52s-5.52,-1 -8.3,-1.36s-5.54,-0.78 -8.33,-1.13z" fill="#263238" id="svg_62"/>
   <path d="m141.05,170.27c3.85,0.2 7.67,0.69 11.48,1.24s7.59,1.28 11.33,2.2c-3.8,-0.59 -7.59,-1.25 -11.39,-1.8s-7.61,-1.11 -11.42,-1.64z" fill="#263238" id="svg_63"/>
   <path d="m145.58,175.35l12.62,25.25a252.41,252.41 0 0 1 29.8,5.23l-13.57,-25.13s-21.3,-5.27 -28.85,-5.35z" fill="#455a64" id="svg_64"/>
   <path d="m240.56,232.47s-4.56,-17.28 -8.18,-24.47s-27.12,-28.8 -32.08,-24c-6.4,6.2 4.68,21.36 11.07,28.08c0,0 -14.83,14.32 -9.23,26.92s38.42,-6.53 38.42,-6.53z" fill=" rgb(255, 196, 192)" id="svg_65"/>
   <path d="m199.1,186.32c-1.76,9.87 7.2,18.14 12.92,25.12a0.83,0.83 0 0 1 -0.31,1.32c-5.82,6.42 -12.15,17.17 -10.1,26.07a0.21,0.21 0 0 1 -0.4,0.13c-3.5,-9.25 1.87,-20.32 8.69,-26.94c-6,-7.07 -14.61,-15.76 -10.89,-25.72a0,0 0 1 1 0.09,0.02z" fill="#263238" id="svg_66"/>
   <path d="m243,227l-35.54,59.11s63.54,37.99 82.54,32.31s53.63,-63.83 64.75,-86.56s5,-35 -17.64,-19.16s-53.39,40.98 -57.11,41.3s-37,-27 -37,-27z" fill="#ff7f00" id="svg_67"/>
   <path d="m333.81,268.75c-0.13,0.2 -0.27,0.41 -0.4,0.63l-0.72,0a3.25,3.25 0 0 1 -3.24,-3.24a2.62,2.62 0 0 0 -2.61,-2.61l-2,0l0,-0.63l2,0a3.24,3.24 0 0 1 3.24,3.24a2.62,2.62 0 0 0 2.61,2.61l1.12,0zm3.61,-31.45l-1.35,-1.3a2.61,2.61 0 0 1 0,-3.69a3.24,3.24 0 0 0 0,-4.58l-1.43,-1.43l-0.45,0.44l1.43,1.43a2.61,2.61 0 0 1 0,3.69a3.24,3.24 0 0 0 0,4.59l1.35,1.35l0.45,-0.5zm12.3,-24.15a2.61,2.61 0 0 1 3.69,0a3.21,3.21 0 0 0 2.29,0.95l0,0a3.21,3.21 0 0 0 2.29,-0.95l1.43,-1.43l-0.45,-0.45l-1.43,1.43a2.59,2.59 0 0 1 -1.84,0.77l0,0a2.59,2.59 0 0 1 -1.84,-0.77a3.26,3.26 0 0 0 -4.59,0l-1.35,1.36l0.45,0.44l1.35,-1.35zm-36.84,71.13l-1.88,0a2.61,2.61 0 0 1 -2.61,-2.61a3.25,3.25 0 0 0 -3.24,-3.24l-2,0l0,0.63l2,0a2.61,2.61 0 0 1 2.6,2.61a3.25,3.25 0 0 0 3.25,3.24l1.91,0l-0.03,-0.63zm-65.88,-3.12l-1.91,0a2.61,2.61 0 0 1 -2.61,-2.6a3.25,3.25 0 0 0 -3.24,-3.25l-2,0l0,0.69l2,0a2.61,2.61 0 0 1 2.6,2.61a3.25,3.25 0 0 0 3.25,3.24l1.91,0l0,-0.69zm63.44,-30.26l-1.36,-1.35a2.63,2.63 0 0 1 0,-3.69a3.25,3.25 0 0 0 0,-4.59l-1.42,-1.42l-0.45,0.44l1.43,1.43a2.63,2.63 0 0 1 0,3.69a3.23,3.23 0 0 0 0,4.58l1.35,1.36l0.45,-0.45zm-20.69,58.65l-1.35,-1.36a2.61,2.61 0 0 1 0,-3.69a3.24,3.24 0 0 0 0,-4.58l-1.4,-1.43l-0.45,0.45l1.43,1.43a2.61,2.61 0 0 1 0,3.69a3.25,3.25 0 0 0 0,4.58l1.35,1.35l0.42,-0.44zm-54,-9.63l-1.44,-1.43l-0.44,0.45l1.43,1.42a2.8,2.8 0 0 1 0.7,1.25l0.68,0.34a3.25,3.25 0 0 0 -0.95,-2.03l0.02,0zm24.59,-40.5l-1.34,-1.35a2.61,2.61 0 0 1 0,-3.69a3.24,3.24 0 0 0 0,-4.58l-1.43,-1.43l-0.45,0.45l1.43,1.43a2.6,2.6 0 0 1 0,3.68a3.26,3.26 0 0 0 0,4.59l1.35,1.35l0.44,-0.45zm6.54,23.7a2.67,2.67 0 0 1 3.69,0a3.25,3.25 0 0 0 4.59,0l1.42,-1.43l-0.44,-0.45l-1.43,1.43a2.61,2.61 0 0 1 -3.69,0a3.24,3.24 0 0 0 -4.58,0l-1.38,1.33l0.45,0.44l1.37,-1.32zm-46.41,3.71l-1.47,1.43a2.6,2.6 0 0 1 -3.68,0a3.25,3.25 0 0 0 -2.3,-0.95a3.32,3.32 0 0 0 -2.13,0.79l0.6,0.34a2.68,2.68 0 0 1 3.38,0.27a3.24,3.24 0 0 0 4.58,0l1.43,-1.43l-0.41,-0.45zm63.91,-19.63a2.61,2.61 0 0 1 2.61,-2.61a3.25,3.25 0 0 0 3.24,-3.24l0,-1.91l-0.64,0l0,1.91a2.61,2.61 0 0 1 -2.59,2.65a3.25,3.25 0 0 0 -3.25,3.24l0,2l0.64,0l-0.01,-2.04zm-20.84,39.64l0,1.91a2.61,2.61 0 0 1 -2.61,2.61a3.23,3.23 0 0 0 -2,0.7l0.71,0.29a2.51,2.51 0 0 1 1.3,-0.35a3.25,3.25 0 0 0 3.24,-3.25l0,-1.91l-0.64,0zm-23.74,-71.84l0,1.92a2.61,2.61 0 0 1 -2.61,2.61a3.21,3.21 0 0 0 -2.29,1l-0.8,1.33l0,0a3.24,3.24 0 0 0 -0.15,0.94l0,2l0.63,0l0,-2a2.62,2.62 0 0 1 2.61,-2.61a3.25,3.25 0 0 0 3.25,-3.24l0,-1.95l-0.64,0z" fill="#fff" id="svg_68"/>
   <path d="m224.81,290.86c11.35,-23.39 26.83,-46.29 29.25,-50.47c0.11,-0.19 0.42,0 0.29,0.2c-2.58,4 -17.43,32 -29.21,50.49c-0.14,0.22 -0.43,0.01 -0.33,-0.22z" fill="#263238" id="svg_69"/>
   <path d="m354.8,231.86c-11.13,22.73 -45.7,80.87 -64.77,86.55c-5.84,1.75 -15.85,-0.61 -26.93,-4.73c22.92,-28.08 65.5,-77.17 90.41,-108.14c8.49,-0.02 8.94,10.69 1.29,26.32z" opacity="0.1" id="svg_70"/>
   <path d="m318.05,346.66l1.82,-35.28s-11,-8.43 -10.25,-27.68c0.57,-14 30.45,-71.28 32.92,-73.78c9.93,-10 29,-9.51 35.6,-3.42c33.46,31.06 49.79,77.64 65.67,140.16l-125.76,0z" fill="#ff7f00" id="svg_71"/>
   <path d="m410.62,302.09l-1.91,0a3.24,3.24 0 0 1 -3.24,-3.24a2.61,2.61 0 0 0 -2.61,-2.61l-2,0l0,-0.63l2,0a3.24,3.24 0 0 1 3.24,3.24a2.61,2.61 0 0 0 2.61,2.61l1.91,0l0,0.63zm-76,-33.35l-1.91,0a2.61,2.61 0 0 1 -2.61,-2.6a3.25,3.25 0 0 0 -3.24,-3.25l-2,0l0,0.64l2,0a2.61,2.61 0 0 1 2.61,2.61a3.25,3.25 0 0 0 3.24,3.24l1.91,0l0,-0.64zm48.3,-8.74l-1.92,0a2.61,2.61 0 0 1 -2.61,-2.61a3.25,3.25 0 0 0 -3.24,-3.24l-2,0l0,0.63l2,0a2.61,2.61 0 0 1 2.6,2.61a3.25,3.25 0 0 0 3.25,3.21l1.91,0l0.01,-0.6zm-24.36,51l-1.91,0a2.61,2.61 0 0 1 -2.61,-2.61a3.25,3.25 0 0 0 -3.24,-3.24l-2,0l0,0.64l2,0a2.61,2.61 0 0 1 2.61,2.6a3.25,3.25 0 0 0 3.24,3.25l1.91,0l0,-0.64zm-40.56,35.63l0,0l0,0s0.05,0.01 0,0zm68.39,-26.05l-1.35,-1.36a2.6,2.6 0 0 1 0,-3.68a3.25,3.25 0 0 0 0,-4.59l-1.43,-1.43l-0.45,0.45l1.43,1.43a2.61,2.61 0 0 1 0,3.69a3.25,3.25 0 0 0 0,4.58l1.41,1.33l0.39,-0.42zm36.79,22.11l-1.42,-1.43l-0.45,0.45l1.43,1.42a2.63,2.63 0 0 1 0.15,3.53l0.78,0a3.23,3.23 0 0 0 -0.45,-3.97l-0.04,0zm-18,-68.33l-1.27,-1.36a2.61,2.61 0 0 1 0,-3.69a3.25,3.25 0 0 0 0,-4.58l-1.43,-1.43l-0.45,0.45l1.43,1.43a2.6,2.6 0 0 1 0,3.68a3.26,3.26 0 0 0 0,4.59l1.36,1.35l0.36,-0.44zm-67.76,-37.06l-1.35,-1.3a2.61,2.61 0 0 1 0,-3.69a3.24,3.24 0 0 0 0,-4.58l-1.43,-1.43l-0.45,0.44l1.43,1.43a2.61,2.61 0 0 1 0,3.69a3.24,3.24 0 0 0 0,4.59l1.35,1.35l0.45,-0.5zm41.19,-6.25l-1.35,-1.36a2.6,2.6 0 0 1 0,-3.68a3.25,3.25 0 0 0 0,-4.59l-1.43,-1.42l-0.45,0.45l1.43,1.43a2.61,2.61 0 0 1 0,3.69a3.25,3.25 0 0 0 0,4.58l1.36,1.36l0.44,-0.46zm-45,69.14l-1.35,-1.36a2.6,2.6 0 0 1 0,-3.68a3.25,3.25 0 0 0 0,-4.59l-1.43,-1.43l-0.45,0.45l1.43,1.43a2.61,2.61 0 0 1 0,3.69a3.25,3.25 0 0 0 0,4.58l1.35,1.36l0.45,-0.45zm64.39,31.35a2.61,2.61 0 0 1 3.68,0a3.25,3.25 0 0 0 4.59,0l1.43,-1.43l-0.45,-0.44l-1.43,1.43a2.63,2.63 0 0 1 -3.69,0a3.23,3.23 0 0 0 -4.58,0l-1.36,1.35l0.45,0.45l1.36,-1.36zm43.77,7.15l0,0l-1.35,1.36l0.44,0.44l1.11,-1.11l-0.2,-0.69zm-110.9,-13.22a2.61,2.61 0 0 1 3.69,0a3.24,3.24 0 0 0 4.58,0l1.43,-1.43l-0.45,-0.45l-1.43,1.41a2.61,2.61 0 0 1 -3.68,0a3.24,3.24 0 0 0 -4.59,0l-1.35,1.35l0.45,0.45l1.35,-1.33zm19.91,-46.47a2.61,2.61 0 0 1 3.69,0a3.26,3.26 0 0 0 4.59,0l1.43,-1.43l-0.45,-0.45l-1.43,1.43a2.62,2.62 0 0 1 -3.69,0a3.23,3.23 0 0 0 -4.58,0l-1.34,1.34l0.45,0.45l1.33,-1.34zm73.79,3.19a3.27,3.27 0 0 0 -3.86,0.56l-1.33,1.35l0.44,0.44l1.35,-1.33a2.56,2.56 0 0 1 3.68,0l0.13,0.11c-0.15,-0.39 -0.28,-0.77 -0.41,-1.14l0,0.01zm-74.85,-69a2.61,2.61 0 0 1 3.69,0a3.21,3.21 0 0 0 2.29,0.95l0,0a3.21,3.21 0 0 0 2.29,-0.95l1.43,-1.43l-0.45,-0.45l-1.43,1.43a2.59,2.59 0 0 1 -1.84,0.77l0,0a2.59,2.59 0 0 1 -1.84,-0.77a3.26,3.26 0 0 0 -4.59,0l-1.35,1.36l0.45,0.44l1.35,-1.35zm72.21,106.93a2.61,2.61 0 0 1 2.6,-2.6a3.26,3.26 0 0 0 3.25,-3.25l0,-1.91l-0.64,0l0,1.91a2.61,2.61 0 0 1 -2.61,2.61a3.25,3.25 0 0 0 -3.24,3.24l0,2l0.64,0l0,-2zm-61.56,16.8a2.61,2.61 0 0 1 2.61,-2.61a3.24,3.24 0 0 0 3.24,-3.24l0,-1.92l-0.63,0l0,1.85a2.61,2.61 0 0 1 -2.61,2.61a3.24,3.24 0 0 0 -3.24,3.24l0,2l0.63,0l0,-1.93zm15.05,-46.19a2.61,2.61 0 0 1 2.61,-2.6a3.25,3.25 0 0 0 3.24,-3.25l0,-1.91l-0.63,0l0,1.91a2.61,2.61 0 0 1 -2.61,2.61a3.25,3.25 0 0 0 -3.24,3.24l0,2l0.63,0l0,-2zm-59.6,13.94l0,1.91a3,3 0 0 1 0,0.31c0.17,0.25 0.34,0.48 0.5,0.69a3.32,3.32 0 0 0 0.16,-1l0,-1.91l-0.66,0zm36.3,-53.57a2.62,2.62 0 0 1 2.61,-2.6a3.25,3.25 0 0 0 3.24,-3.25l0,-1.95l-0.63,0l0,1.91a2.61,2.61 0 0 1 -2.61,2.61a3.25,3.25 0 0 0 -3.24,3.24l0,2l0.63,0l0,-1.96zm-41.12,33.18a2.57,2.57 0 0 1 -1.36,-0.38c0,0.23 0,0.47 0,0.7a3.32,3.32 0 0 0 1.38,0.31l1.91,0l0,-0.63l-1.93,0zm91,-49l0,1.28a2.61,2.61 0 0 1 -2.61,2.61a3.25,3.25 0 0 0 -3.24,3.25l0,2l0.63,0l0,-2a2.61,2.61 0 0 1 2.61,-2.61a3.26,3.26 0 0 0 3.25,-3.25l0,-0.29c-0.28,-0.37 -0.48,-0.7 -0.7,-1.03l0.06,0.04z" fill="#fff" id="svg_72"/>
   <path d="m357.18,304.7a114.78,114.78 0 0 0 -17.08,0.93c-2.81,0.41 -5.58,0.94 -8.35,1.53c-1.39,0.3 -2.77,0.54 -4.16,0.78a18.21,18.21 0 0 1 -4.42,0.35a0.1,0.1 0 0 0 0,0.2a32.31,32.31 0 0 0 4.17,0.38a30.56,30.56 0 0 0 4.05,-0.32c2.85,-0.38 5.69,-0.9 8.54,-1.31c5.74,-0.83 11.49,-1.66 17.28,-2.07c0.26,-0.02 0.24,-0.47 -0.03,-0.47z" fill="#263238" id="svg_73"/>
   <path d="m370.61,311.22a123.77,123.77 0 0 0 -13.95,-2.2c-2.34,-0.22 -4.68,-0.31 -7,-0.34c-1.13,0 -2.25,0 -3.38,0s-2.47,0.21 -3.71,0.21c-0.13,0 -0.15,0.2 0,0.21c1.17,0 2.34,0.25 3.5,0.35l3.51,0.29c2.34,0.19 4.68,0.41 7,0.59c4.69,0.35 9.36,0.74 14,1.25c0.25,0.05 0.27,-0.31 0.03,-0.36z" fill="#263238" id="svg_74"/>
   <path d="m368.46,209.5c-0.15,2.6 -8,19.41 -19.54,20.87c-3.75,0.47 -8.43,-18.4 -8.43,-18.4l-0.6,-1.44l-8.37,-20.22l21.94,-20.17l3.21,-2.72s1.93,5.68 4.25,12.78l0.34,1c0.14,0.4 0.28,0.77 0.39,1.15c0.36,1.06 0.73,2.14 1.07,3.22c0.26,0.82 0.52,1.62 0.77,2.5l0.77,2.59c2.46,8.66 4.25,17.74 4.2,18.84z" fill=" rgb(255, 196, 192)" id="svg_75"/>
   <path d="m360.92,180.2a43.88,43.88 0 0 1 -21,30.33l-8.37,-20.22l21.94,-20.17l3.21,-2.72s1.9,5.68 4.22,12.78z" fill="#263238" id="svg_76"/>
   <path d="m295.63,159.37c0.33,38.4 23.37,42.54 31.65,42.46c7.52,-0.07 33.11,-1.27 36.75,-39.51s-14.32,-50.22 -31.52,-51s-37.21,9.68 -36.88,48.05z" fill=" rgb(255, 196, 192)" id="svg_77"/>
   <path d="m302.64,155.34c0.89,-0.18 1.69,-0.49 2.55,-0.75a4.33,4.33 0 0 0 2.45,-1.26a1.37,1.37 0 0 0 -0.13,-1.66a3.4,3.4 0 0 0 -3.4,-0.53a5,5 0 0 0 -3,2a1.46,1.46 0 0 0 1.53,2.2z" fill="#263238" id="svg_78"/>
   <path d="m330.17,157.4a23.06,23.06 0 0 1 -2.63,-0.34a4.27,4.27 0 0 1 -2.62,-0.86a1.37,1.37 0 0 1 -0.12,-1.67a3.37,3.37 0 0 1 3.26,-1.05a5.07,5.07 0 0 1 3.26,1.51a1.46,1.46 0 0 1 -1.15,2.41z" fill="#263238" id="svg_79"/>
   <path d="m324.91,163.38c0,-0.1 0.21,0.11 0.22,0.22c0.06,2.62 0.57,5.6 3,6.34c0.07,0 0.07,0.15 0,0.15c-2.94,-0.25 -3.58,-4.22 -3.22,-6.71z" fill="#263238" id="svg_80"/>
   <path d="m327.09,160.53c4.19,-0.56 5,7.85 1.1,8.36s-4.6,-7.89 -1.1,-8.36z" fill="#263238" id="svg_81"/>
   <path d="m328.79,160.81c0.77,0.41 1.57,1.18 2.47,1.19s1.72,-0.95 2.31,-1.86c0.06,-0.1 0.14,0 0.15,0.08c0.18,1.61 -0.29,3.32 -2,3.72s-2.82,-0.95 -3.37,-2.53c-0.1,-0.29 0.12,-0.76 0.44,-0.6z" fill="#263238" id="svg_82"/>
   <path d="m309.3,165.21c0,-0.1 -0.18,0.15 -0.16,0.26c0.48,2.57 0.59,5.6 -1.61,6.81c-0.07,0 0,0.17 0,0.14c2.83,-0.84 2.64,-4.85 1.77,-7.21z" fill="#263238" id="svg_83"/>
   <path d="m306.58,162.86c-4.2,0.32 -3.25,8.71 0.65,8.41s2.88,-8.68 -0.65,-8.41z" fill="#263238" id="svg_84"/>
   <path d="m305,163.49c-0.68,0.56 -1.31,1.48 -2.18,1.67s-1.88,-0.58 -2.64,-1.35c-0.08,-0.08 -0.15,0 -0.14,0.12c0.16,1.61 1,3.19 2.72,3.23c1.59,0 2.56,-1.51 2.78,-3.17c0.03,-0.31 -0.28,-0.72 -0.54,-0.5z" fill="#263238" id="svg_85"/>
   <path d="m328.06,183.56c-0.45,0.75 -0.85,1.72 -1.75,2a6.66,6.66 0 0 1 -2.88,0.07a0.09,0.09 0 0 0 -0.08,0.16a3.52,3.52 0 0 0 3.57,0.54a2.76,2.76 0 0 0 1.41,-2.75c0,-0.13 -0.2,-0.13 -0.27,-0.02z" fill="#263238" id="svg_86"/>
   <path d="m314.82,175.87s0.24,3.94 0.6,5.74c0,0.17 0.48,0.17 1.1,0.08c0,0 0.05,0 0.08,0a8.77,8.77 0 0 0 7.7,-4.87c0.09,-0.2 -0.18,-0.34 -0.32,-0.2a13.15,13.15 0 0 1 -7.4,3.81c-0.22,-0.47 -0.17,-6.75 -0.46,-6.72a16.06,16.06 0 0 0 -3.92,1.75c-0.72,-8.19 -0.13,-16.42 -1,-24.56a0.25,0.25 0 0 0 -0.5,0c-1.23,8.58 -0.6,18 -0.07,26.49c0.08,1.03 3.53,-1.07 4.19,-1.52z" fill="#263238" id="svg_87"/>
   <path d="m317.13,180.78a10.12,10.12 0 0 0 4.47,2.46a4.56,4.56 0 0 0 2.74,-0.25c1.89,-0.83 1.65,-2.64 1.05,-4.13a10.71,10.71 0 0 0 -1.25,-2.23a13.05,13.05 0 0 1 -7.01,4.15z" fill="#263238" id="svg_88"/>
   <path d="m321.6,183.24a4.56,4.56 0 0 0 2.74,-0.25c1.89,-0.83 1.65,-2.64 1.05,-4.13c-2.07,0.55 -3.94,2.31 -3.79,4.38z" fill="#ff98b9" id="svg_89"/>
   <path d="m365.92,160.92c-6.26,1.92 -10.72,-11.1 -10.72,-11.1s-12.93,2.94 -21.38,-14.71c0,0 2.22,8.6 9.18,14.1c0,0 -23.36,2.71 -37.25,-14.23c0,0 6,8.87 10.39,11.52c0,0 -10.18,-0.52 -16.59,-7.24c0,0 -1.52,11.92 -3.91,15.65c0,0 -8,-40.14 29.92,-44.2c0,0 23.5,-3.66 35.93,12.8s4.43,37.41 4.43,37.41z" fill="#263238" id="svg_90"/>
   <path d="m358,165.33s7.21,-12.73 12.91,-10.28s1.07,20.36 -5.06,23.34a6.49,6.49 0 0 1 -9,-2.65l1.15,-10.41z" fill=" rgb(255, 196, 192)" id="svg_91"/>
   <path d="m369.41,160.15c0.1,0 0.13,0.12 0,0.17c-4.29,2.23 -6.24,6.59 -7.48,11c1.17,-1.78 2.89,-2.85 5.25,-1.49a0.14,0.14 0 0 1 -0.1,0.25a4,4 0 0 0 -4.24,1.81a18.8,18.8 0 0 0 -1.76,3.74c-0.17,0.42 -0.91,0.27 -0.8,-0.2a0.52,0.52 0 0 1 0,-0.11c-0.58,-5.64 3.08,-14.01 9.13,-15.17z" fill="#263238" id="svg_92"/>
   <path d="m364.93,178.84a2.1,2.1 0 1 1 -2.51,-1.59a2.1,2.1 0 0 1 2.51,1.59z" fill="#fff" id="svg_93"/>
   <path d="m367.43,231.65c-14.79,25.74 -37.67,71.72 -43.51,76c-21.15,15.47 -55.18,45.52 -61.4,52.88c-8,9.46 38.78,47.54 44.74,41.46c4.27,-4.35 51.87,-45.64 64.29,-70.68c8.05,-16.23 15.82,-60.9 20.07,-89.93c4.32,-29.6 -12.97,-29.25 -24.19,-9.73z" fill=" rgb(255, 196, 192)" id="svg_94"/>
   <path d="m202.1,417.85c5,5.52 17.56,-8 17.56,-8a13.77,13.77 0 0 0 0.93,9.3c2.68,5 11.68,3 11.68,3a16.88,16.88 0 0 0 2.54,9.65c3.05,4.51 12.41,3.77 12.41,3.77a14.84,14.84 0 0 0 7.59,7.07c8.95,3.31 20.48,-5.6 27.87,-11.19s23.1,-28.37 26.54,-32.41l-35.48,-47.72s-40.26,15.65 -48,23.45c-6.54,6.57 -31.29,34.65 -23.64,43.08z" fill=" rgb(255, 196, 192)" id="svg_95"/>
   <path d="m219.63,409.62c5.26,-8.65 12.59,-16 19.74,-23.08c0.16,-0.16 0.4,0.1 0.24,0.25c-7.19,6.92 -12.7,15.94 -19.6,23.13a0.25,0.25 0 0 1 -0.38,-0.3z" fill="#263238" id="svg_96"/>
   <path d="m232,421.4a26.57,26.57 0 0 1 4.83,-4.94c1.83,-1.63 3.69,-3.22 5.57,-4.79q5.64,-4.71 11.52,-9.13c0.17,-0.13 0.42,0.1 0.24,0.25c-3.75,3.13 -7.44,6.32 -11.06,9.61c-1.8,1.65 -3.6,3.31 -5.38,5a31.29,31.29 0 0 1 -5.25,4.5a0.36,0.36 0 0 1 -0.47,-0.5z" fill="#263238" id="svg_97"/>
   <path d="m247.38,435.42c1,-1.72 3.05,-3 4.58,-4.22c1.75,-1.39 3.48,-2.8 5.21,-4.21c3.46,-2.83 6.92,-5.66 10.27,-8.6c0.17,-0.15 0.41,0.1 0.25,0.25c-3.4,3 -6.75,6.06 -10.18,9.05q-2.52,2.19 -5.06,4.36c-1.44,1.23 -3.11,2.93 -4.94,3.55a0.12,0.12 0 0 1 -0.13,-0.18z" fill="#263238" id="svg_98"/>
   <path d="m264,354.23l55.67,44.61s41.77,-46.76 54,-66.81c5.11,-8.37 15.53,-68.71 19.23,-88.76c4.63,-25 -10.54,-42 -25.64,-14.35c-10.62,19.43 -42.1,73.89 -43.93,75.33s-59.33,49.98 -59.33,49.98z" fill="#ff7f00" id="svg_99"/>
   <path d="m382.92,260.6l-1.92,0a3.25,3.25 0 0 1 -3.25,-3.24a2.61,2.61 0 0 0 -2.6,-2.61l-2,0l0,-0.63l2,0a3.25,3.25 0 0 1 3.24,3.24a2.61,2.61 0 0 0 2.61,2.64l1.91,0l0.01,0.6zm-24.36,50.33l-1.91,0a2.61,2.61 0 0 1 -2.61,-2.61a3.25,3.25 0 0 0 -3.24,-3.24l-2,0l0,0.64l2,0a2.61,2.61 0 0 1 2.61,2.6a3.25,3.25 0 0 0 3.24,3.25l1.91,0l0,-0.64zm-35.56,39.91l-1.92,0a2.61,2.61 0 0 1 -2.61,-2.61a3.25,3.25 0 0 0 -3.24,-3.24l-2,0l0,0.63l2,0a2.61,2.61 0 0 1 2.61,2.61a3.24,3.24 0 0 0 3.24,3.24l1.92,0l0,-0.63zm-10.92,38.51l-1.91,0a2.61,2.61 0 0 1 -2.61,-2.61a3.25,3.25 0 0 0 -3.24,-3.24l-2,0l0,0.63l2,0a2.62,2.62 0 0 1 2.61,2.61a3.24,3.24 0 0 0 3.24,3.24l1.91,0l0,-0.63zm66.53,-158.3l-1.35,-1.36a2.6,2.6 0 0 1 0,-3.68a3.25,3.25 0 0 0 0,-4.59l-1.43,-1.42l-0.45,0.45l1.43,1.43a2.61,2.61 0 0 1 0,3.69a3.25,3.25 0 0 0 0,4.58l1.36,1.36l0.44,-0.46zm-46.31,67.79a2.61,2.61 0 0 1 0,-3.69a3.25,3.25 0 0 0 0,-4.59l-0.24,-0.24c-0.1,0.19 -0.22,0.38 -0.33,0.57l0.12,0.12a2.63,2.63 0 0 1 0,3.69a3.23,3.23 0 0 0 0,4.58l1.35,1.35l0.45,-0.44l-1.35,-1.35zm-1.43,26.63a2.61,2.61 0 0 1 3.69,0a3.24,3.24 0 0 0 4.58,0l1.43,-1.43l-0.45,-0.45l-1.43,1.41a2.61,2.61 0 0 1 -3.68,0a3.24,3.24 0 0 0 -4.59,0l-1.35,1.35l0.45,0.45l1.35,-1.33zm19.91,-46.47a2.61,2.61 0 0 1 3.69,0a3.26,3.26 0 0 0 4.59,0l1.43,-1.43l-0.45,-0.45l-1.43,1.43a2.62,2.62 0 0 1 -3.69,0a3.23,3.23 0 0 0 -4.58,0l-1.34,1.34l0.45,0.45l1.33,-1.34zm-6.06,75.2a2.68,2.68 0 0 1 3.69,0a3.25,3.25 0 0 0 4.59,0l1.42,-1.42l-0.44,-0.45l-1.43,1.43a2.63,2.63 0 0 1 -3.69,0a3.24,3.24 0 0 0 -4.58,0l-1.36,1.35l0.45,0.45l1.35,-1.36zm15.65,-17.31a2.61,2.61 0 0 1 2.61,-2.61a3.24,3.24 0 0 0 3.24,-3.24l0,-1.92l-0.63,0l0,1.88a2.61,2.61 0 0 1 -2.61,2.61a3.24,3.24 0 0 0 -3.24,3.24l0,2l0.63,0l0,-1.96zm-35.29,40.11a2.61,2.61 0 0 1 2.61,-2.61a3.24,3.24 0 0 0 3.24,-3.24l0,-1.92l-0.63,0l0,1.92a2.61,2.61 0 0 1 -2.61,2.61a3.24,3.24 0 0 0 -3.24,3.24l0,2l0.63,0l0,-2zm50.34,-86.32a2.61,2.61 0 0 1 2.61,-2.6a3.25,3.25 0 0 0 3.24,-3.25l0,-1.91l-0.63,0l0,1.91a2.61,2.61 0 0 1 -2.61,2.61a3.25,3.25 0 0 0 -3.24,3.24l0,2l0.63,0l0,-2zm-18.7,-42.91a3.23,3.23 0 0 0 1.22,-2.14l-1.22,2.14zm-66,88.84a2.61,2.61 0 0 1 -2.61,-2.6a0.37,0.37 0 0 0 0,-0.11c-0.2,0.16 -0.4,0.32 -0.59,0.5a3.23,3.23 0 0 0 3.21,2.84l1.91,0l0,-0.63l-1.92,0zm-0.19,29.1a2.61,2.61 0 0 1 3.69,0a3.26,3.26 0 0 0 4.58,0l1.43,-1.43l-0.45,-0.45l-1.43,1.43a2.63,2.63 0 0 1 -3.69,0a3.23,3.23 0 0 0 -4.58,0l-1.35,1.35l0.44,0.45l1.36,-1.35zm-17.12,-17.85l0,1.91a2.61,2.61 0 0 1 -2.61,2.61a3.25,3.25 0 0 0 -3.24,3.24l0,1.45l0.63,0.5l0,-1.95a2.62,2.62 0 0 1 2.61,-2.61a3.24,3.24 0 0 0 3.24,-3.24l0,-1.91l-0.63,0z" fill="#fff" id="svg_100"/>
   <path d="m350.44,362.83c7.3,-9.8 15,-19.38 21.58,-29.66c3.57,-6.29 4.93,-13.64 6.78,-20.61c4.05,-16.56 8.71,-40.59 12.25,-57.51a552.68,552.68 0 0 1 -10.3,58c-1.71,6.55 -3.23,13.31 -6.27,19.43c-6.86,11 -15.6,20.64 -24,30.37l-0.04,-0.02z" fill="#263238" id="svg_101"/>
   <path d="m388.1,271.74c1.45,-3.94 3.44,-7.67 4.44,-11.76c-0.32,4.22 -2.38,8.14 -4.44,11.76z" fill="#263238" id="svg_102"/>
   <path d="m283.42,345.4c21.23,15 41.31,34 45,37.06c0.18,0.14 -0.08,0.41 -0.25,0.25c-3.5,-3.19 -28.77,-22.41 -45.06,-37c-0.11,-0.2 0.1,-0.46 0.31,-0.31z" fill="#263238" id="svg_103"/>
   <path d="m318.37,308.42c2.33,-2.09 5.23,-3.72 6.24,-6.85q2.13,-4.23 4.33,-8.42c8.91,-16.69 18.23,-33.17 28.58,-49a603.54,603.54 0 0 1 -32.44,57.71c-0.19,0.27 -1.45,2.23 -1.64,2.48c-1.59,1.47 -3.38,2.76 -5.07,4.1l0,-0.02z" fill="#263238" id="svg_104"/>
   <path d="m354.22,246.31c-1.14,3.62 -2.76,7.09 -3.32,10.85c-0.14,-3.83 1.56,-7.53 3.32,-10.85z" fill="#263238" id="svg_105"/>
  </g>
  <g id="freepik--speech-bubble--inject-161">
   <path d="m283.43,115.21a26.77,26.77 0 0 0 4.57,-14.79c0,-18.74 -20.58,-33.94 -45.95,-33.94s-45.92,15.2 -45.92,33.94s20.56,33.93 45.92,33.93c12.31,0 23.46,-3.56 31.7,-9.39l15.82,4l-6.14,-13.75z" fill="#fffefd" id="svg_106"/>
   <path d="m283.43,115.21c9.06,-13.82 3.5,-29.84 -9.42,-38.83c-16.21,-11.38 -38.76,-12.38 -56.54,-4.15c-8.77,4.17 -16.78,11.26 -19.69,20.77c-3.13,9.48 0.32,20 7.27,26.91c17.6,17.4 48.42,18.55 68.57,4.9l0.09,-0.06l15.9,4.16l-0.13,0.15l-6.05,-13.82l0,-0.03zm0,0l6.25,13.73l0.1,0.21l-0.22,-0.06l-15.86,-3.91c-7.17,5.51 -18.22,8.82 -27.87,9.37c-14.82,0.89 -30.72,-3.31 -41.4,-14.07c-11.78,-11.8 -11.62,-28.89 0.34,-40.52c18,-17.26 49.49,-18.23 69.57,-4c13,9.1 18.41,25.5 9.09,39.27l0,-0.02z" fill="#263238" id="svg_107"/>
   <path d="m225.54,100.42a4.76,4.76 0 1 1 -4.76,-4.77a4.76,4.76 0 0 1 4.76,4.77z" fill="#263238" id="svg_108"/>
   <path d="m246.83,100.42a4.76,4.76 0 1 1 -4.76,-4.77a4.76,4.76 0 0 1 4.76,4.77z" fill="#263238" id="svg_109"/>
   <path d="m268.12,100.42a4.76,4.76 0 1 1 -4.76,-4.77a4.76,4.76 0 0 1 4.76,4.77z" fill="#263238" id="svg_110"/>
  </g>
  <g id="freepik--Table--inject-161">
   <path d="m458.68,447.9c-133.69,0.62 -283.67,0.62 -417.36,0c133.69,-0.61 283.67,-0.61 417.36,0z" fill="#263238" id="svg_111"/>
  </g>
  <g id="freepik--character-1--inject-161">
   <path d="m138,336.61c4.64,32.49 16.06,74.08 26.82,83.18c8.68,7.34 56.13,23 58.81,23.5c6.63,1.24 23.8,-44.88 17,-47.38c-8.52,-3.15 -49.92,-7.93 -52.08,-10.56s-15.55,-24.46 -30.67,-49.59c-10.43,-17.37 -22.74,-19.3 -19.88,0.85z" fill="#f7a9a0" id="svg_112"/>
   <path d="m218.5,440.25c0.76,0.47 11.59,7.1 18.42,9.72c5.08,1.95 19.89,7.17 22.59,1.78c1.85,-3.67 -6.49,-7.77 -12.33,-10.79c-3.07,-1.6 -6.72,-5.26 -5.61,-7.23c2,-3.44 9.84,0.84 15,4.43c9.92,6.93 22.89,19 29.71,14.25c2.57,-1.79 0.08,-5.67 -3.71,-9.59c6.29,4.72 13.08,8.73 16,6.85c1.69,-1.07 1.9,-2.72 1.18,-4.68c2,0.83 3.81,0.86 5.19,-0.37c2.34,-2.08 1.57,-5.5 -0.5,-9.11a2.62,2.62 0 0 0 2.07,-1.13c5.15,-6.58 -16,-28.5 -23.78,-31c-22.8,-7.49 -47.72,-7.56 -47.72,-7.56c-9.77,6.51 -16.53,44.41 -16.51,44.43z" fill="#f7a9a0" id="svg_113"/>
   <path d="m254.51,421.71a39.6,39.6 0 0 1 15,7.27c5.57,4.39 9.1,9.28 13.66,14.28c0.12,0.13 -0.08,0.33 -0.2,0.19c-2.17,-2.38 -11.25,-11.4 -13.62,-13.47a37.71,37.71 0 0 0 -14.88,-8.18a0,0 0 1 1 0.04,-0.09z" fill="#263238" id="svg_114"/>
   <path d="m259.68,412.2c6,2.18 12.1,4.4 17.53,7.77c5.94,3.69 10.37,9.26 14.73,14.62q3.93,4.85 7.64,9.85c0.1,0.14 -0.09,0.33 -0.2,0.19q-6.63,-8.31 -13.75,-16.21a49.79,49.79 0 0 0 -15.63,-11.76c-3.39,-1.63 -6.89,-3 -10.39,-4.36c-0.03,-0.02 0,-0.13 0.07,-0.1z" fill="#263238" id="svg_115"/>
   <path d="m266.94,404.11c5.84,1.72 10.93,3.2 15.92,6.83c6.61,4.8 12.74,12.47 14.89,15.18c2.37,3 4.64,6.08 6.86,9.19c0.09,0.13 -0.13,0.29 -0.22,0.16a198.81,198.81 0 0 0 -16.62,-19.47a39.23,39.23 0 0 0 -9.57,-7.44a71.18,71.18 0 0 0 -11.27,-4.41s-0.02,-0.04 0.01,-0.04z" fill="#263238" id="svg_116"/>
   <path d="m221.62,442.71c-9.66,-2.95 -49,-16.31 -56.78,-22.92c-10.76,-9.1 -22.18,-50.69 -26.82,-83.18c-1.79,-12.54 2.3,-16.53 8.16,-13.57l75.44,119.67z" opacity="0.1" id="svg_117"/>
   <path d="m147.39,391.66l36,-20.15s-14,-24.89 -28.37,-43.65s-20.1,-8 -18,12.38s10.37,51.42 10.37,51.42z" fill="#ff7f00" id="svg_118"/>
   <path d="m177.88,366.47a331.2,331.2 0 0 0 -30.09,16.9c-0.15,0.09 0,0.33 0.15,0.25a331.42,331.42 0 0 0 30.12,-16.87c0.15,-0.1 -0.01,-0.36 -0.18,-0.28z" fill="#263238" id="svg_119"/>
   <path d="m177,375.07l-29.62,16.59s-8.38,-31.08 -10.38,-51.42c-1.31,-12.87 0.51,-21.91 5.67,-22.07l34.33,56.9z" opacity="0.1" id="svg_120"/>
   <path d="m46.18,448l136.16,0c1.71,-1.28 -14.06,-93.53 -34.11,-125.38c-3.75,-6 -21.72,-15.06 -35.79,-4.28c-42.44,32.59 -67.86,127.66 -66.26,129.66z" fill="#ff7f00" id="svg_121"/>
   <path d="m108.56,322.18c-32.35,36.68 -73.38,105 -66.29,118.55c9,17.14 71.13,14 85.63,10.6c6.19,-1.44 -15.2,-55 -21.84,-53.64c-5.79,1.22 -10.78,2.44 -11,1.64s17.09,-26.35 27.61,-63.14c7.19,-25.07 -7.25,-21.8 -14.11,-14.01z" fill="#f7a9a0" id="svg_122"/>
   <path d="m67.26,416.18c3.9,-5.05 15.69,-14.24 27.8,-16.65c0.28,0 0.47,0.12 0.23,0.23a134.25,134.25 0 0 0 -27.95,16.51c-0.05,0.05 -0.12,-0.04 -0.08,-0.09z" fill="#263238" id="svg_123"/>
   <path d="m151.55,372.26s-7.73,-8.94 -1.2,-13.71s12.7,5.3 12.7,5.3l-11.5,8.41z" fill="#455a64" id="svg_124"/>
   <path d="m211.82,430.52l0,0l1.72,11.48l0.59,3.77l-3.44,-1.68l-10.38,-5.11l0,0l0,0l-49,-67l11.5,-8.41l49,67l0.01,-0.05z" fill="#455a64" id="svg_125"/>
   <polygon points="213.54 441.96 214.13 445.73 210.68 444.05 213.54 441.96" fill="#37474f" id="svg_126"/>
   <rect x="-37.80001" y="531.21001" width="16.64" height="3.3" fill="#37474f" transform="rotate(-36.18 -187.21 164.21)" id="svg_127"/>
   <rect x="-36.96999" y="536" width="16.64" height="3.3" fill="#37474f" transform="rotate(-36.18 -188.54 166.05)" id="svg_128"/>
   <polygon points="154.15 377.84 158.48 374.67 173.83 400.68 172.17 401.75 154.15 377.84" fill="#37474f" id="svg_129"/>
   <path d="m193.77,400.74c-0.14,6.77 -16.79,5 -16.79,5a12.5,12.5 0 0 1 4.9,6.94c1.13,5 -6.24,9 -6.24,9a15.4,15.4 0 0 1 4,8.13c0.6,4.91 -6.27,10 -6.27,10a13.55,13.55 0 0 1 -1,9.38c-4.16,7.6 -17.39,8.37 -25.78,8.94s-32.76,-5.67 -37.53,-6.4l-4.06,-53.89s36.94,-13.28 46.91,-12.55c8.36,0.62 42.09,5.11 41.86,15.45z" fill="#f7a9a0" id="svg_130"/>
   <path d="m176.84,405.56c-8.77,-2.8 -18.2,-3.49 -27.3,-4.06a0.16,0.16 0 0 0 0,0.32c9.06,0.46 18.22,3.35 27.24,4.17a0.22,0.22 0 0 0 0.06,-0.43z" fill="#263238" id="svg_131"/>
   <path d="m175.41,421a23.8,23.8 0 0 0 -6.25,-0.5c-2.23,0 -4.45,0 -6.68,0c-4.45,0.09 -8.9,0.28 -13.34,0.6c-0.2,0 -0.23,0.32 0,0.32c4.44,-0.08 8.88,-0.1 13.32,0c2.22,0.05 4.44,0.13 6.66,0.21a28.06,28.06 0 0 0 6.28,-0.05a0.32,0.32 0 0 0 0.01,-0.58z" fill="#263238" id="svg_132"/>
   <path d="m173.19,439.79c-1.72,-0.57 -3.87,-0.23 -5.65,-0.16q-3,0.14 -6.09,0.22c-4.06,0.13 -8.11,0.25 -12.17,0.23c-0.21,0 -0.22,0.31 0,0.31c4.12,0 8.25,0.14 12.37,0.14c2,0 4.05,0 6.08,0c1.72,0 3.87,0.16 5.5,-0.5a0.12,0.12 0 0 0 -0.04,-0.24z" fill="#263238" id="svg_133"/>
   <path d="m70.37,367.43l38.54,14.67s10.1,-26.72 15.27,-49.77s-6.78,-20.53 -21.06,-5.9s-32.75,41 -32.75,41z" fill="#ff7f00" id="svg_134"/>
   <path d="m120.84,352.26a0.09,0.09 0 0 0 -0.15,-0.08c-0.67,1.25 -1.33,2.51 -2,3.77c0.7,-2.55 1.35,-5.12 1.93,-7.71c0,-0.08 -0.11,-0.13 -0.14,-0.05q-2.94,8.35 -5.75,16.74c-1.86,5.6 -4,11.12 -5.79,16.73c-1.11,-0.22 -1.71,-0.4 -2.54,-0.54c-0.19,0 -0.31,0.18 -0.13,0.27a12.84,12.84 0 0 0 3.16,1.2c2.44,-5.37 4.42,-11.4 6.32,-17c0.94,-2.75 1.79,-5.52 2.57,-8.3a50.55,50.55 0 0 0 2.52,-5.03z" fill="#263238" id="svg_135"/>
   <path d="m109.25,374.66a331.26,331.26 0 0 0 -32.25,-12.25c-0.16,-0.05 -0.25,0.21 -0.09,0.28a330.3,330.3 0 0 0 32.24,12.31c0.18,0 0.28,-0.27 0.1,-0.34z" fill="#263238" id="svg_136"/>
   <rect x="181.69" y="450.25" width="152.12" height="3.74" fill="#ff7f00" id="svg_137"/>
   <polygon points="247.61 450.25 247.61 444.68 191.22 445.77 183.81 450.25 247.61 450.25" fill="#ebebeb" id="svg_138"/>
   <path d="m247.61,450.25l0,-5.57s18.34,0.32 21.58,0s19.82,-1.86 22.5,-1.72s7.92,3.31 7.92,3.31l0,4l-52,-0.02z" fill="#dbdbdb" id="svg_139"/>
   <path d="m332.31,450.25l-1.31,-3.17s-8.06,0.17 -9.22,0s-12.1,-3.32 -14.46,-2.89s-7.69,2.08 -7.69,2.08l0,4l32.68,-0.02z" fill="#dbdbdb" id="svg_140"/>
   <path d="m122.17,318.9c0.12,2.22 7.77,17.91 17.6,19.22c3.2,0.42 6.29,-16.94 6.29,-16.94l0.52,-1.23l7.28,-17.23l-21.35,-19.72s-10.37,35 -10.34,35.9z" fill="#f7a9a0" id="svg_141"/>
   <path d="m153.86,302.73l-7.29,17.21l-0.51,1.24s-0.57,3.14 -1.45,6.72c-12.92,-4.39 -17.19,-15.47 -18.59,-22.84c2.98,-10.06 6.49,-22.06 6.49,-22.06l21.35,19.73z" fill="#263238" id="svg_142"/>
   <path d="m185.32,274.7c-2.54,40 -26.77,43 -35.4,42.42c-7.82,-0.51 -34.41,-3.23 -36,-43.26s17.79,-51.49 35.75,-51.28s38.2,12.14 35.65,52.12z" fill="#f7a9a0" id="svg_143"/>
   <path d="m175.42,281.1c4.42,0.48 3.13,9.29 -1,8.84s-2.7,-9.24 1,-8.84z" fill="#263238" id="svg_144"/>
   <path d="m155,279c-4.4,-0.65 -5.37,8.19 -1.3,8.79s4.98,-8.22 1.3,-8.79z" fill="#263238" id="svg_145"/>
   <path d="m179.06,275.94a25.38,25.38 0 0 1 -2.61,-0.93a4.41,4.41 0 0 1 -2.47,-1.45a1.41,1.41 0 0 1 0.23,-1.72a3.54,3.54 0 0 1 3.56,-0.36a5.22,5.22 0 0 1 3,2.26a1.52,1.52 0 0 1 -1.71,2.2z" fill="#263238" id="svg_146"/>
   <path d="m151.91,273.6a25.25,25.25 0 0 0 2.76,-0.2a4.51,4.51 0 0 0 2.78,-0.75a1.43,1.43 0 0 0 0.23,-1.73a3.57,3.57 0 0 0 -3.35,-1.28a5.19,5.19 0 0 0 -3.47,1.39a1.52,1.52 0 0 0 1.05,2.57z" fill="#263238" id="svg_147"/>
   <path d="m152.83,303.16c0.52,0.75 1,1.74 1.94,2a7.12,7.12 0 0 0 3,-0.1a0.1,0.1 0 0 1 0.09,0.16a3.68,3.68 0 0 1 -3.68,0.78a2.89,2.89 0 0 1 -1.64,-2.78c0,-0.15 0.21,-0.17 0.29,-0.06z" fill="#263238" id="svg_148"/>
   <path d="m165.48,295s0,4.12 -0.27,6c0,0.18 -0.49,0.2 -1.15,0.15c0,0 -0.05,0 -0.07,0a9.14,9.14 0 0 1 -8.32,-4.59c-0.11,-0.21 0.16,-0.37 0.32,-0.23a13.73,13.73 0 0 0 7.93,3.51c0.21,-0.51 -0.22,-7.12 0.07,-7c1.24,0.39 3.39,1.25 4.19,1.57c0.06,-2.67 -0.14,-10.26 0,-15.13c0,-0.3 0.48,-0.34 0.51,-0.05a128.58,128.58 0 0 1 1.24,17.08c-0.02,0.39 -3.74,-0.93 -4.45,-1.31z" fill="#263238" id="svg_149"/>
   <g opacity="0.2" id="svg_150">
    <path d="m138.56,284.68a0.64,0.64 0 1 1 -0.33,-0.85a0.65,0.65 0 0 1 0.33,0.85z" id="svg_151"/>
    <path d="m151.23,289.42a0.64,0.64 0 0 1 -0.84,0.34a0.64,0.64 0 1 1 0.51,-1.18a0.63,0.63 0 0 1 0.33,0.84z" id="svg_152"/>
    <path d="m145,291.91a0.65,0.65 0 0 1 -0.85,0.33a0.64,0.64 0 0 1 -0.34,-0.84a0.65,0.65 0 0 1 1.19,0.51z" id="svg_153"/>
    <path d="m141,279.91a0.64,0.64 0 1 1 -0.34,-0.84a0.64,0.64 0 0 1 0.34,0.84z" id="svg_154"/>
    <path d="m145.43,285.77a0.65,0.65 0 1 1 -1.19,-0.51a0.65,0.65 0 1 1 1.19,0.51z" id="svg_155"/>
    <path d="m179.67,290.3a0.65,0.65 0 0 1 -0.85,0.34a0.65,0.65 0 1 1 0.51,-1.19a0.65,0.65 0 0 1 0.34,0.85z" id="svg_156"/>
    <path d="m173.59,291.68a0.64,0.64 0 1 1 -0.34,-0.84a0.64,0.64 0 0 1 0.34,0.84z" id="svg_157"/>
    <path d="m173.1,296.1a0.65,0.65 0 1 1 -1.19,-0.51a0.65,0.65 0 0 1 1.19,0.51z" id="svg_158"/>
    <path d="m178.3,295.11a0.64,0.64 0 1 1 -0.34,-0.84a0.64,0.64 0 0 1 0.34,0.84z" id="svg_159"/>
   </g>
   <path d="m115.45,277.64c7.64,1 12.9,-17.62 12.9,-17.62s10.13,-0.94 17.68,-17.11c0,0 1.71,18.43 33.34,23.08a27.18,27.18 0 0 0 2.12,-16.56a114.68,114.68 0 0 1 3.23,18.57s14.26,-23.47 -5,-38.37c-7.67,-5.93 -21,-8.79 -43.68,-4.37c0,0 -0.57,-13 -3.3,-12.06s-1.34,13.32 -1.34,13.32s-8,-5.1 -10,-3.67c-1.71,1.23 6.14,5.75 6.14,5.75s-14.59,0.62 -16.58,16.71c-1.86,14.8 0.71,31.84 4.49,32.33z" fill="#263238" id="svg_160"/>
   <path d="m130,229.1a16.46,16.46 0 0 0 -19.87,9c-1.83,4.21 -2,9.23 -1.76,13.74a57.11,57.11 0 0 0 3.08,14.26c0.09,0.26 0.48,0.09 0.39,-0.17a43.39,43.39 0 0 1 -2,-13.2c-0.07,-4.17 0.09,-8.71 1.37,-12.7a15.8,15.8 0 0 1 18.68,-10.45c0.25,0.02 0.36,-0.41 0.11,-0.48z" fill="#263238" id="svg_161"/>
   <path d="m163.36,220.66a63.15,63.15 0 0 0 -16.5,1.43a46.45,46.45 0 0 0 -14.79,5.26a0.21,0.21 0 0 0 0.18,0.39c9.28,-3.68 19.67,-4.87 29.61,-5c9.3,-0.11 19.51,2.69 24.17,11.5a0.13,0.13 0 0 0 0.23,-0.11c-3.86,-8.94 -13.71,-12.93 -22.9,-13.47z" fill="#263238" id="svg_162"/>
   <path d="m146,294.71a14,14 0 1 1 17.5,-13.5l0,0a14,14 0 0 1 -14,13.94a13.61,13.61 0 0 1 -3.5,-0.44zm6.54,-25.28a11.78,11.78 0 0 0 -3,-0.39a12.14,12.14 0 1 0 3,0.39z" fill="#455a64" id="svg_163"/>
   <path d="m176.67,298.6c-5.19,-1.35 -8.52,-7.87 -7.53,-15.1a16.74,16.74 0 0 1 4.26,-9.29a8.72,8.72 0 0 1 14.79,2a16.65,16.65 0 0 1 1.59,10.09c-1,7.65 -6.52,13.23 -12.21,12.45a8.43,8.43 0 0 1 -0.9,-0.15zm5.14,-25.6a5.42,5.42 0 0 0 -0.7,-0.14a7.47,7.47 0 0 0 -6.36,2.6a14.82,14.82 0 0 0 -3.75,8.25c-0.91,6.62 2.13,12.53 6.82,13.17s9.2,-4.23 10.11,-10.85a14.82,14.82 0 0 0 -1.4,-9a7.69,7.69 0 0 0 -4.72,-4.03z" fill="#455a64" id="svg_164"/>
   <path d="m163,282.77l-0.84,-1.34c2,-1.24 6.35,-2.68 8.79,0.76l-1.29,0.91c-2.23,-3.1 -6.53,-0.44 -6.66,-0.33z" fill="#455a64" id="svg_165"/>
   <path d="m106.13,278.07l-1.29,-0.9c0.43,-0.61 4.24,-5.88 7.81,-6c3.33,-0.08 24,4.76 24.88,5l-0.36,1.54c-5.92,-1.39 -21.91,-5 -24.48,-4.92c-2.36,0.04 -5.53,3.83 -6.56,5.28z" fill="#455a64" id="svg_166"/>
   <path d="m121.27,278s-6.77,-13.67 -12.85,-11.44s-2.28,21.14 3.93,24.59a6.77,6.77 0 0 0 9.52,-2.24l-0.6,-10.91z" fill="#f7a9a0" id="svg_167"/>
   <path d="m109.64,272c-0.1,0 -0.15,0.12 -0.06,0.17c4.34,2.57 6.12,7.22 7.15,11.91c-1.11,-1.91 -2.84,-3.13 -5.38,-1.84c-0.13,0.06 0,0.27 0.09,0.26a4.17,4.17 0 0 1 4.32,2.13a20.32,20.32 0 0 1 1.61,4c0.16,0.45 0.94,0.34 0.85,-0.16c0,0 0,-0.08 0,-0.11c0.99,-5.89 -2.34,-14.83 -8.58,-16.36z" fill="#263238" id="svg_168"/>
  </g>
 </g>

</svg>