<svg xmlns="http://www.w3.org/2000/svg" xmlns:xlink="http://www.w3.org/1999/xlink" width="500" zoomAndPan="magnify" viewBox="0 0 375 374.999991" height="500" preserveAspectRatio="xMidYMid meet" version="1.0"><defs><clipPath id="id1"><path d="M 7.175781 81.464844 L 152.808594 81.464844 L 152.808594 245.464844 L 7.175781 245.464844 Z M 7.175781 81.464844 " clip-rule="nonzero"/></clipPath><clipPath id="id2"><path d="M 18.285156 124.179688 L 142.265625 124.179688 L 142.265625 202.898438 L 18.285156 202.898438 Z M 18.285156 124.179688 " clip-rule="nonzero"/></clipPath></defs><g clip-path="url(#id1)"><path fill="#ff914d" d="M 152.652344 131.367188 L 152.652344 195.589844 C 152.652344 197.113281 152.449219 198.609375 152.0625 200.074219 C 151.667969 201.546875 151.09375 202.9375 150.339844 204.261719 C 149.585938 205.578125 148.671875 206.777344 147.609375 207.859375 C 146.542969 208.941406 145.351562 209.863281 144.046875 210.632812 L 88.691406 242.726562 C 87.375 243.484375 85.980469 244.0625 84.507812 244.457031 C 83.039062 244.851562 81.542969 245.050781 80.023438 245.050781 C 78.503906 245.050781 77.003906 244.851562 75.535156 244.457031 C 74.0625 244.0625 72.671875 243.484375 71.351562 242.726562 L 16.027344 210.632812 C 14.710938 209.867188 13.511719 208.949219 12.4375 207.875 C 11.355469 206.796875 10.4375 205.597656 9.671875 204.28125 C 8.910156 202.960938 8.332031 201.566406 7.9375 200.089844 C 7.542969 198.613281 7.339844 197.117188 7.335938 195.589844 L 7.335938 131.367188 C 7.339844 129.839844 7.535156 128.339844 7.929688 126.863281 C 8.332031 125.394531 8.910156 123.992188 9.671875 122.671875 C 10.433594 121.347656 11.355469 120.148438 12.429688 119.074219 C 13.511719 117.996094 14.707031 117.082031 16.027344 116.320312 L 71.375 84.199219 C 72.695312 83.441406 74.089844 82.867188 75.558594 82.476562 C 77.027344 82.082031 78.523438 81.886719 80.042969 81.886719 C 81.5625 81.886719 83.058594 82.082031 84.527344 82.476562 C 85.996094 82.867188 87.394531 83.441406 88.710938 84.199219 L 144.066406 116.335938 C 145.375 117.101562 146.558594 118.027344 147.625 119.105469 C 148.6875 120.1875 149.601562 121.386719 150.355469 122.703125 C 151.101562 124.019531 151.675781 125.414062 152.066406 126.882812 C 152.457031 128.355469 152.652344 129.847656 152.652344 131.367188 Z M 152.652344 131.367188 " fill-opacity="1" fill-rule="nonzero"/></g><path fill="#ffffff" d="M 34.929688 185.71875 L 38.800781 187.863281 L 35.6875 178.945312 C 36.453125 178.640625 36.996094 177.898438 36.996094 177.03125 C 36.996094 176.367188 36.675781 175.777344 36.183594 175.398438 L 36.183594 159.160156 L 33.675781 159.160156 L 33.675781 175.398438 C 33.175781 175.777344 32.859375 176.367188 32.859375 177.03125 C 32.859375 177.898438 33.402344 178.640625 34.164062 178.945312 L 31.054688 187.863281 L 34.929688 185.71875 " fill-opacity="1" fill-rule="nonzero"/><g clip-path="url(#id2)"><path fill="#ffffff" d="M 39.613281 175.066406 L 39.613281 184.359375 L 80.277344 202.886719 L 120.9375 184.359375 L 120.9375 175.066406 L 80.277344 193.589844 Z M 39.613281 163.933594 L 39.613281 173.230469 L 80.277344 191.757812 L 120.9375 173.230469 L 120.9375 163.933594 L 80.277344 182.460938 Z M 54.542969 161.441406 C 54.542969 162.207031 53.917969 162.820312 53.152344 162.820312 L 41.140625 162.820312 L 80.277344 180.65625 L 142.253906 152.410156 L 80.277344 124.171875 L 18.300781 152.410156 L 35.082031 160.0625 L 53.152344 160.0625 C 53.917969 160.0625 54.542969 160.679688 54.542969 161.441406 " fill-opacity="1" fill-rule="nonzero"/></g><path fill="#000000" d="M 168.742188 120.890625 L 168.703125 123.234375 L 170.003906 123.234375 C 171.085938 123.1875 172.527344 122.960938 172.703125 124.671875 C 172.796875 132.367188 173.109375 138.984375 173.203125 146.675781 C 173.203125 147.84375 173.382812 148.792969 173.289062 149.6875 C 173.15625 150.863281 172.074219 150.683594 170.5 150.636719 C 170.320312 150.636719 169.597656 150.589844 169.417969 150.589844 L 169.417969 153.066406 C 170.632812 153.019531 190.300781 152.933594 192.726562 152.933594 L 193.539062 152.933594 L 193.539062 150.054688 C 193.539062 148.792969 193.675781 144.964844 193.675781 143.839844 L 191.15625 143.839844 L 191.109375 146.222656 C 191.15625 149.6875 190.703125 150.589844 186.335938 150.410156 C 184.628906 150.410156 182.832031 150.457031 181.027344 150.457031 C 179.5 150.457031 178.148438 150.5 176.890625 150.457031 C 176.753906 146.675781 176.667969 142.804688 176.667969 139.566406 C 176.667969 138.890625 176.667969 138.125 176.707031 137.496094 L 176.753906 137.496094 C 177.339844 137.496094 179.003906 137.542969 179.953125 137.542969 C 181.390625 137.589844 182.964844 137.589844 184.179688 137.589844 C 185.800781 137.542969 185.261719 140.332031 185.300781 141.457031 L 187.691406 141.457031 C 187.691406 139.699219 187.644531 136.867188 187.550781 134.976562 C 187.511719 133.269531 187.417969 131.152344 187.417969 129.890625 C 187.332031 129.890625 186.5625 129.84375 186.335938 129.84375 L 185.300781 129.84375 C 185.300781 130.296875 185.347656 131.332031 185.347656 131.78125 C 185.347656 134.390625 185.890625 134.839844 184 134.839844 C 183.503906 134.839844 183.011719 134.839844 182.46875 134.796875 C 181.929688 134.75 181.300781 134.75 180.667969 134.75 C 179.273438 134.75 177.835938 134.796875 176.527344 134.75 C 176.488281 130.746094 176.394531 127.28125 176.347656 123.320312 L 177.113281 123.320312 C 180.039062 123.273438 182.648438 123.234375 185.710938 123.234375 L 188.273438 123.367188 C 190.027344 123.367188 190.210938 123.1875 190.882812 130.296875 C 191.15625 130.296875 193.132812 130.207031 193.132812 130.207031 C 193.132812 130.207031 193 123.234375 193 120.84375 C 188.953125 120.84375 184.628906 120.890625 180.847656 120.890625 Z M 168.742188 120.890625 " fill-opacity="1" fill-rule="nonzero"/><path fill="#000000" d="M 215.496094 135.339844 C 211.984375 130.476562 208.472656 125.570312 205.773438 121.386719 L 198.9375 121.296875 L 198.9375 123.863281 L 200.058594 123.863281 C 201.320312 123.863281 203.117188 123.90625 203.164062 124.988281 C 203.34375 129.171875 203.34375 132.726562 203.390625 136.367188 C 203.4375 138.757812 203.4375 141.589844 203.523438 144.339844 L 203.523438 148.519531 C 203.390625 150.589844 199.746094 150.636719 199.746094 150.636719 L 199.652344 152.839844 C 202.9375 152.839844 207.214844 152.839844 210.632812 152.886719 L 210.632812 151.757812 C 210.632812 151.402344 210.632812 150.5 210.632812 150.367188 L 209.238281 150.410156 C 206.988281 150.457031 206.316406 149.875 206.316406 148.339844 C 206.316406 143.617188 205.910156 131.601562 205.773438 127.058594 C 208.425781 130.839844 210.007812 133.175781 212.660156 137.046875 C 216.257812 142.269531 219.996094 147.757812 223.59375 152.839844 L 226.023438 152.839844 L 225.796875 144.292969 C 225.617188 137.542969 225.4375 131.871094 225.4375 125.390625 C 225.4375 123.460938 229.664062 123.679688 229.710938 123.679688 L 229.710938 121.25 L 218.328125 121.34375 L 218.328125 123.816406 C 219.316406 123.816406 222.46875 123.59375 222.46875 125.390625 C 222.914062 137.046875 223.140625 140.6875 223.28125 146.589844 C 220.757812 142.851562 218.058594 139.023438 215.496094 135.339844 Z M 215.496094 135.339844 " fill-opacity="1" fill-rule="nonzero"/><path fill="#000000" d="M 248.964844 153.742188 C 254.902344 153.652344 256.609375 151.984375 256.976562 151.625 L 257.242188 144.605469 C 257.242188 141.5 257.195312 140.914062 261.289062 141.234375 L 261.289062 140.464844 C 261.289062 140.375 261.289062 140.242188 261.289062 140.152344 C 261.289062 140.058594 261.289062 139.925781 261.289062 139.839844 L 261.289062 139.117188 C 260.253906 139.070312 257.964844 138.984375 257.015625 138.984375 L 249.457031 138.984375 L 249.457031 140.105469 C 249.457031 140.242188 249.503906 140.914062 249.503906 141.09375 C 250.445312 141.1875 250.988281 141.1875 251.480469 141.1875 C 253.011719 141.234375 254.40625 141.589844 254.40625 143.117188 L 254.40625 149.015625 C 254.226562 149.332031 253.324219 150.816406 248.964844 151.265625 C 240.636719 150.996094 237.171875 142.582031 237.351562 136.328125 C 237.53125 129.53125 240.550781 121.925781 248.648438 121.925781 C 250.445312 121.925781 252.5625 122.332031 254.765625 123.234375 L 254.945312 131.558594 L 257.332031 131.464844 C 257.332031 130.296875 257.378906 128.316406 257.421875 126.964844 C 257.464844 125.210938 257.558594 123.054688 257.558594 121.703125 L 255.574219 120.890625 C 254.003906 120.398438 251.480469 119.628906 248.558594 119.628906 C 238.929688 119.628906 233.621094 127.148438 233.621094 135.964844 C 233.621094 147.84375 240.636719 153.742188 248.511719 153.742188 Z M 248.964844 153.742188 " fill-opacity="1" fill-rule="nonzero"/><path fill="#000000" d="M 264.480469 150.320312 L 264.480469 152.839844 C 267.363281 152.839844 273.34375 152.886719 276.402344 152.886719 C 280.230469 152.933594 284.863281 152.933594 288.6875 152.933594 L 288.6875 142.984375 L 287.292969 142.984375 C 287.066406 142.984375 286.257812 142.9375 286.125 142.9375 C 286.078125 145.554688 286.21875 150.140625 284.054688 150.140625 C 283.152344 150.1875 282.839844 150.140625 282.253906 150.140625 L 275.054688 150.140625 C 272.9375 150.140625 272.671875 150.054688 272.578125 145.414062 L 272.804688 126.292969 C 272.757812 125.121094 272.804688 123.59375 274.828125 123.816406 L 278.613281 123.863281 C 278.613281 122.332031 278.519531 121.835938 278.472656 121.210938 C 275.996094 121.070312 271.996094 120.890625 269.070312 120.804688 L 264.34375 120.667969 C 264.257812 121.296875 264.34375 122.78125 264.34375 123.414062 C 264.839844 123.414062 265.335938 123.414062 265.875 123.414062 C 268.617188 123.320312 269.070312 124.671875 269.027344 125.84375 C 268.933594 128.675781 269.027344 132.546875 269.027344 138.398438 L 269.027344 145.820312 C 268.980469 150.320312 269.25 150.457031 265.695312 150.320312 Z M 264.480469 150.320312 " fill-opacity="1" fill-rule="nonzero"/><path fill="#000000" d="M 299.210938 132.816406 C 299.390625 138.125 299.257812 142.355469 299.4375 148.878906 C 299.484375 150.683594 297.769531 151.042969 296.152344 150.996094 L 294.484375 150.996094 C 294.484375 151.308594 294.484375 151.492188 294.53125 151.804688 C 294.53125 152.078125 294.578125 152.75 294.578125 152.886719 C 297.910156 153.066406 301.101562 153.113281 304.253906 153.113281 L 307.355469 153.113281 L 307.402344 151.128906 C 305.554688 151.089844 302.8125 151.128906 302.589844 148.878906 L 302.542969 145.640625 C 302.542969 144.695312 302.589844 143.117188 302.589844 142.042969 L 302.589844 136.59375 C 302.589844 134.707031 302.632812 132.769531 302.632812 130.65625 L 302.632812 125.390625 C 302.589844 123.773438 305.828125 123.636719 307.445312 123.636719 C 307.445312 123.09375 307.445312 121.878906 307.355469 121.164062 C 303.398438 121.164062 296.554688 121.296875 292.601562 121.386719 L 292.914062 124.042969 L 295.519531 123.949219 C 297.414062 123.863281 298.761719 124.042969 298.851562 125.710938 Z M 299.210938 132.816406 " fill-opacity="1" fill-rule="nonzero"/><path fill="#000000" d="M 323.824219 152.257812 L 323.507812 152.257812 C 319.101562 152.164062 315.589844 148.878906 315.496094 147.890625 L 315.316406 141.949219 L 312.933594 141.863281 C 312.933594 141.863281 312.800781 149.6875 312.980469 149.648438 C 312.933594 149.648438 315.996094 155.089844 324.496094 155.183594 C 329.898438 155 335.207031 152.4375 335.207031 145.367188 C 335.207031 138.304688 330.078125 137.449219 325.039062 136.507812 C 320.492188 135.742188 315.996094 134.929688 315.902344 129.035156 C 315.902344 124.449219 320.269531 122.648438 324.589844 122.871094 C 327.335938 123.054688 328.324219 123.816406 328.636719 124.222656 L 329.3125 131.464844 L 331.5625 131.421875 L 331.875 123.140625 C 331.875 122.511719 328.054688 120.128906 323.28125 120.128906 C 317.839844 120.128906 312.257812 122.511719 312.257812 129.351562 C 312.257812 136.554688 317.386719 137.589844 322.429688 138.578125 C 326.792969 139.433594 331.066406 140.199219 331.066406 145.59375 C 331.066406 147.578125 330.03125 152.210938 323.824219 152.257812 Z M 323.824219 152.257812 " fill-opacity="1" fill-rule="nonzero"/><path fill="#000000" d="M 339.160156 123.59375 C 340.195312 123.59375 343.480469 123.273438 343.570312 125.257812 C 343.660156 127.507812 343.84375 136.773438 343.84375 144.378906 C 343.84375 146.089844 343.84375 147.578125 343.796875 148.878906 C 343.570312 150.769531 342.582031 150.722656 341.859375 150.683594 L 339.835938 150.636719 L 339.789062 152.933594 L 351.265625 152.933594 L 351.355469 150.589844 L 350.003906 150.589844 C 347.308594 150.589844 347.308594 148.117188 347.308594 145.640625 C 347.308594 145.640625 347.308594 138.441406 347.347656 138.484375 C 347.800781 138.441406 352.617188 138.441406 356.980469 138.398438 C 360.265625 138.351562 362.472656 138.441406 362.425781 138.441406 L 362.605469 148.792969 C 362.605469 150.140625 360.941406 150.367188 360.308594 150.367188 C 359.949219 150.367188 359.003906 150.410156 358.558594 150.410156 C 358.558594 151.175781 358.558594 152.078125 358.644531 152.839844 L 370.03125 152.839844 C 369.984375 152.4375 369.984375 150.320312 369.984375 150.140625 L 367.332031 150.140625 C 365.753906 150.140625 365.890625 147.9375 365.890625 146.496094 L 365.890625 145.59375 L 365.796875 143.34375 C 365.796875 141.5 365.710938 139.296875 365.664062 136.957031 C 365.574219 133.804688 365.484375 130.429688 365.484375 127.773438 C 365.484375 126.15625 365.441406 123.773438 367.011719 123.59375 L 369.714844 123.5 L 369.628906 121.023438 L 357.878906 120.890625 C 357.878906 121.746094 357.878906 122.648438 357.835938 123.59375 C 357.835938 123.59375 359.632812 123.59375 359.90625 123.59375 C 361.164062 123.59375 362.15625 124.042969 362.335938 125.210938 C 362.425781 125.886719 362.335938 126.832031 362.335938 129.128906 L 362.335938 135.742188 L 359.050781 135.699219 C 355.988281 135.699219 351.667969 135.652344 349.015625 135.652344 L 347.308594 135.652344 C 347.167969 134.664062 347.167969 125.4375 347.167969 125.390625 C 347.082031 123.773438 350.273438 123.546875 350.996094 123.59375 L 352.4375 123.59375 L 352.523438 121.023438 C 349.597656 121.023438 344.832031 120.984375 339.117188 121.023438 Z M 339.160156 123.59375 " fill-opacity="1" fill-rule="nonzero"/><path fill="#000000" d="M 181.167969 205.390625 L 180.847656 205.390625 C 176.441406 205.300781 172.929688 202.015625 172.839844 201.027344 L 172.660156 195.085938 L 170.277344 195 C 170.277344 195 170.140625 202.824219 170.320312 202.785156 C 170.277344 202.785156 173.335938 208.226562 181.835938 208.320312 C 187.238281 208.132812 192.550781 205.570312 192.550781 198.503906 C 192.550781 191.441406 187.417969 190.585938 182.382812 189.644531 C 177.835938 188.878906 173.335938 188.066406 173.242188 182.171875 C 173.242188 177.585938 177.609375 175.785156 181.929688 176.003906 C 184.675781 176.191406 185.667969 176.953125 185.980469 177.359375 L 186.65625 184.601562 L 188.90625 184.558594 L 189.21875 176.277344 C 189.21875 175.648438 185.394531 173.265625 180.625 173.265625 C 175.179688 173.265625 169.597656 175.648438 169.597656 182.488281 C 169.597656 189.691406 174.730469 190.726562 179.773438 191.714844 C 184.132812 192.570312 188.40625 193.332031 188.40625 198.730469 C 188.40625 200.714844 187.371094 205.347656 181.167969 205.390625 Z M 181.167969 205.390625 " fill-opacity="1" fill-rule="nonzero"/><path fill="#000000" d="M 210.675781 194.324219 C 217.292969 194.324219 222.019531 191.261719 222.019531 184.738281 C 222.019531 181.859375 222.246094 174.074219 210.226562 174.074219 L 209.734375 174.074219 C 206.941406 174.160156 203.65625 174.207031 200.417969 174.207031 C 199.746094 174.207031 199.15625 174.160156 198.527344 174.160156 L 196.460938 174.160156 L 196.460938 176.636719 C 196.726562 176.636719 200.417969 176.457031 200.371094 178.574219 C 200.417969 181.945312 200.464844 183.523438 200.554688 186.894531 C 200.640625 190.945312 200.6875 194.90625 200.734375 198.417969 L 200.820312 202.105469 C 200.417969 203.726562 199.023438 203.5 197.675781 203.5 L 196.6875 203.5 L 196.6875 205.976562 L 202.667969 206.023438 L 208.652344 206.023438 L 208.652344 204.808594 C 208.652344 204.535156 208.699219 203.679688 208.699219 203.5 C 203.925781 203.457031 204.199219 203.953125 204.199219 199.859375 C 204.199219 199.320312 204.246094 198.101562 204.246094 197.472656 C 204.285156 196.527344 204.285156 195.539062 204.285156 194.410156 Z M 210.453125 176.863281 C 218.328125 176.863281 218.101562 182.714844 218.058594 184.648438 L 218.058594 184.964844 C 218.058594 189.101562 214.90625 191.621094 210.808594 191.800781 C 209.191406 191.847656 207.710938 191.894531 206.175781 191.894531 C 205.5 191.894531 205.140625 191.9375 204.425781 191.9375 C 204.332031 190.765625 204.152344 179.203125 204.105469 176.90625 Z M 210.453125 176.863281 " fill-opacity="1" fill-rule="nonzero"/><path fill="#000000" d="M 238.523438 173.125 C 236.902344 177.265625 231.546875 192.34375 229.03125 200.535156 L 228.355469 202.378906 C 227.59375 204 226.734375 203.679688 225.746094 203.632812 C 225.429688 203.632812 224.574219 203.59375 224.308594 203.59375 C 224.308594 203.859375 224.308594 204.941406 224.167969 205.976562 C 226.601562 206.023438 229.84375 206.070312 232.359375 206.070312 L 234.609375 206.070312 C 234.699219 205.617188 234.792969 203.820312 234.792969 203.5 C 232.675781 203.546875 231.414062 203.859375 231.867188 202.195312 C 231.867188 202.195312 232.496094 199.945312 232.808594 198.101562 L 234.382812 198.101562 C 236.769531 198.101562 241.855469 198.101562 244.820312 198.058594 C 245.816406 198.058594 246.9375 198.011719 247.480469 198.011719 L 248.292969 199.992188 C 248.738281 201.207031 249.007812 201.476562 249.460938 202.824219 C 249.863281 204 245.902344 203.546875 245.230469 203.546875 L 245.140625 206.023438 C 247.210938 205.976562 252.972656 205.976562 254.816406 205.976562 L 256.792969 205.976562 L 256.925781 203.457031 C 255.308594 203.5 253.6875 203.457031 253.105469 202.511719 C 251.125 198.058594 249.144531 193.152344 247.210938 188.203125 C 245.816406 184.648438 244.464844 181.09375 243.117188 177.898438 L 241.136719 173.125 Z M 233.890625 195.445312 C 235.199219 192.074219 238.570312 182.128906 239.785156 178.574219 C 241.179688 182.171875 242.125 184.46875 243.472656 188.023438 C 244.375 190.5 245.367188 192.929688 246.261719 195.359375 C 243.609375 195.402344 235.554688 195.445312 233.890625 195.445312 Z M 233.890625 195.445312 " fill-opacity="1" fill-rule="nonzero"/><path fill="#000000" d="M 274.789062 204.3125 C 266.417969 205.167969 262.730469 196.84375 262.636719 189.691406 C 262.503906 183.121094 265.96875 175.691406 274.382812 175.691406 C 276.046875 175.691406 277.847656 175.964844 279.917969 176.59375 C 280.457031 178.394531 280.410156 181.183594 280.410156 183.523438 L 280.410156 184.558594 C 280.589844 184.558594 281.359375 184.601562 281.539062 184.601562 L 282.660156 184.601562 C 282.660156 184.109375 282.707031 182.574219 282.707031 181.90625 C 282.753906 179.742188 282.796875 175.242188 282.753906 175.195312 C 281.398438 174.027344 278.074219 172.90625 273.976562 172.90625 C 271.726562 172.90625 268.980469 173.398438 266.371094 174.835938 C 261.960938 177.585938 259.039062 183.835938 259.039062 189.597656 C 259.039062 201.789062 266.328125 206.878906 273.121094 206.878906 C 279.289062 206.878906 281.761719 203.820312 282.347656 202.964844 L 280.859375 201.25 C 280.859375 201.25 279.109375 203.90625 274.789062 204.3125 Z M 274.789062 204.3125 " fill-opacity="1" fill-rule="nonzero"/><path fill="#000000" d="M 287.199219 174.027344 L 287.15625 176.371094 L 288.457031 176.371094 C 289.539062 176.324219 290.980469 176.097656 291.160156 177.808594 C 291.25 185.503906 291.5625 192.117188 291.65625 199.8125 C 291.65625 200.980469 291.835938 201.929688 291.742188 202.824219 C 291.609375 204 290.527344 203.820312 288.957031 203.773438 C 288.777344 203.773438 288.054688 203.726562 287.875 203.726562 L 287.875 206.203125 C 289.089844 206.15625 308.753906 206.070312 311.183594 206.070312 L 311.992188 206.070312 L 311.992188 203.1875 C 311.992188 201.929688 312.128906 198.101562 312.128906 196.976562 L 309.609375 196.976562 L 309.5625 199.359375 C 309.609375 202.824219 309.15625 203.726562 304.792969 203.546875 C 303.085938 203.546875 301.285156 203.59375 299.480469 203.59375 C 297.953125 203.59375 296.601562 203.632812 295.347656 203.59375 C 295.207031 199.8125 295.121094 195.941406 295.121094 192.703125 C 295.121094 192.027344 295.121094 191.261719 295.160156 190.632812 L 295.207031 190.632812 C 295.792969 190.632812 297.457031 190.679688 298.40625 190.679688 C 299.847656 190.726562 301.417969 190.726562 302.632812 190.726562 C 304.253906 190.679688 303.714844 193.464844 303.757812 194.59375 L 306.144531 194.59375 C 306.144531 192.835938 306.097656 190.003906 306.007812 188.109375 C 305.964844 186.40625 305.871094 184.289062 305.871094 183.027344 C 305.785156 183.027344 305.015625 182.980469 304.792969 182.980469 L 303.757812 182.980469 C 303.757812 183.433594 303.800781 184.46875 303.800781 184.917969 C 303.800781 187.527344 304.34375 187.976562 302.453125 187.976562 C 301.957031 187.976562 301.464844 187.976562 300.921875 187.933594 C 300.382812 187.886719 299.753906 187.886719 299.125 187.886719 C 297.730469 187.886719 296.289062 187.933594 294.980469 187.886719 C 294.941406 183.882812 294.847656 180.417969 294.804688 176.457031 L 295.566406 176.457031 C 298.492188 176.410156 301.101562 176.371094 304.167969 176.371094 L 306.730469 176.503906 C 308.480469 176.503906 308.664062 176.324219 309.335938 183.433594 C 309.609375 183.433594 311.585938 183.34375 311.585938 183.34375 C 311.585938 183.34375 311.453125 176.371094 311.453125 173.980469 C 307.40625 173.980469 303.085938 174.027344 299.300781 174.027344 Z M 287.199219 174.027344 " fill-opacity="1" fill-rule="nonzero"/></svg>